<?xml version="1.0" encoding="utf-8"?>
<!-- Generator: Adobe Illustrator 22.1.0, SVG Export Plug-In . SVG Version: 6.00 Build 0)  -->
<svg version="1.1" id="Слой_1" xmlns="http://www.w3.org/2000/svg" xmlns:xlink="http://www.w3.org/1999/xlink" x="0px" y="0px"
	 viewBox="0 0 75 34.1" style="enable-background:new 0 0 75 34.1;" xml:space="preserve">
<style type="text/css">
	.st0{fill-rule:evenodd;clip-rule:evenodd;fill:#001400;}
	.st1{fill-rule:evenodd;clip-rule:evenodd;fill:#FDCB32;}
</style>
<g>
	<path class="st0" d="M51.4,28h0.2c0.1,0,0.3,0,0.3-0.2c0-0.1-0.1-0.2-0.2-0.2h-0.2V28L51.4,28z M51.2,27.6h0.4
		c0.2,0,0.3,0.1,0.3,0.3c0,0.2-0.1,0.3-0.3,0.3l0.3,0.4h-0.2l-0.3-0.4h-0.2v0.4h-0.2V27.6L51.2,27.6z M51.5,28.8
		c-0.4,0-0.7-0.3-0.7-0.7c0-0.4,0.3-0.7,0.7-0.7c0.4,0,0.7,0.3,0.7,0.7C52.2,28.5,51.9,28.8,51.5,28.8L51.5,28.8z M51.5,27.2
		c0.5,0,0.8,0.4,0.8,0.8c0,0.5-0.4,0.9-0.8,0.9c-0.5,0-0.9-0.4-0.9-0.9C50.7,27.6,51.1,27.2,51.5,27.2z"/>
	<path class="st1" d="M42.1,6.9c2.3,0,4.2,9.9,4.2,22h3.4c0-13.1-3.4-23.7-7.6-23.7c-2.4,0-4.5,3.2-5.9,8.2c-1.4-5-3.5-8.2-5.9-8.2
		c-4.2,0-7.6,10.6-7.6,23.7H26c0-12.2,1.9-22,4.2-22c2.3,0,4.2,9.1,4.2,20.3h3.4C37.9,16,39.8,6.9,42.1,6.9z"/>
</g>
</svg>
