<?xml version="1.0" encoding="utf-8"?>
<!-- Generator: Adobe Illustrator 22.1.0, SVG Export Plug-In . SVG Version: 6.00 Build 0)  -->
<svg version="1.1" id="Слой_1" xmlns="http://www.w3.org/2000/svg" xmlns:xlink="http://www.w3.org/1999/xlink" x="0px" y="0px"
	 viewBox="0 0 75 34.1" style="enable-background:new 0 0 75 34.1;" xml:space="preserve">
<style type="text/css">
	.st0{fill:#1D1D1B;}
	.st1{fill:#E20518;}
	.st2{fill:#FFFFFF;}
</style>
<g>
	<path class="st0" d="M40,18.4L40,18.4l0.1-2.2h-4.7v0.8h4.1v0.8c-0.7,0.3-2,0.7-2.9,0.7c-2,0-4.1-0.7-4.1-2c0-1.5,2.2-2,4.1-2
		c1.1,0,2.3,0.5,3,0.9l0.1,0l0.4-0.7l-0.1-0.1c-1-0.6-2.1-0.9-3.3-0.9c-1.3,0-2.5,0.2-3.4,0.7c-1,0.5-1.5,1.2-1.5,2v0
		c0,0.9,0.5,1.6,1.5,2.1c0.8,0.4,2,0.7,3.4,0.7C37.8,19.3,39.1,19,40,18.4"/>
	<path class="st0" d="M43.4,17.1l1.9-2.2l2,2.2H43.4z M40.6,19.2h0.9l1.2-1.3H48l1.2,1.3h1l-4.9-5.4L40.6,19.2z"/>
	<polygon class="st0" points="52.8,19.2 52.8,14.8 56.5,14.8 56.5,14 48.3,14 48.3,14.8 52.1,14.8 52.1,19.2 	"/>
	<path class="st0" d="M61.2,14.7c1.3,0,2.4,0.3,3.1,0.7c0.5,0.3,0.8,0.7,0.8,1.2c0,0.4-0.2,0.8-0.6,1.1c-0.8,0.5-2,0.9-3.3,0.9
		c-1.2,0-2.4-0.3-3.2-0.8c-0.4-0.3-0.7-0.7-0.7-1.1c0-0.4,0.2-0.9,0.7-1.1C58.7,14.9,59.9,14.7,61.2,14.7 M57.7,18.4
		c0.9,0.6,2.1,0.9,3.5,0.9c1.4,0,2.7-0.4,3.6-1c0.7-0.5,1-1.1,1-1.7c0-0.7-0.4-1.4-1.2-1.9c-0.8-0.5-2-0.8-3.4-0.8
		c-1.5,0-2.7,0.3-3.5,0.9c-0.7,0.5-1.1,1.2-1.1,1.8C56.6,17.3,57,17.9,57.7,18.4"/>
	<polygon class="st0" points="30.8,18.4 24.5,18.4 24.5,16.9 30.5,16.9 30.5,16.1 24.5,16.1 24.5,14.8 30.8,14.8 30.8,14 23.8,14 
		23.8,19.2 30.8,19.2 	"/>
	<polygon class="st0" points="21.8,14 18.1,18.3 14.4,14 13.6,14 13.6,19.2 14.5,19.2 14.5,15.2 17.8,19.2 18.4,19.2 21.8,15.2 
		21.8,19.2 22.6,19.2 22.6,14 	"/>
	<path class="st0" d="M73.8,16.2L73.8,16.2c-0.1,0-0.1,0.1-0.2,0.1c-0.4,0.1-0.9,0.2-1.4,0.2c-0.1,0-0.2,0-0.2,0h0
		c-0.2,0-0.5,0-0.7,0h-3.8v-1.7h3.8c0.2,0,0.4,0,0.7,0l0,0c0.1,0,0.2,0,0.2,0c0.9,0,1.7,0.2,2,0.6l0,0l0,0c0,0,0,0.1,0.1,0.1l0,0
		l0,0c0,0,0,0,0,0c0,0,0,0.1,0,0.1c0,0,0,0,0,0v0c0,0,0,0,0,0c0,0.1,0,0.1-0.1,0.2l0,0l0,0c0,0.1-0.1,0.1-0.2,0.2
		C74,16.1,73.9,16.2,73.8,16.2 M73,14.1c-0.5-0.1-1-0.1-1.6-0.1h-4.5v5.2h0.7v-1.9h3.8c0.6,0,1.2,0,1.7-0.1c0.5-0.1,0.8-0.1,1.1-0.3
		c0.3-0.2,0.5-0.3,0.7-0.6c0.2-0.2,0.2-0.5,0.2-0.7c0-0.2-0.1-0.5-0.2-0.7C74.4,14.4,73.6,14.2,73,14.1"/>
	<path class="st0" d="M14.3,21.2c-0.1,0-0.2,0-0.3,0.1c-0.1,0.1-0.1,0.1-0.2,0.2c0,0.1-0.1,0.2-0.1,0.3c0,0.2,0,0.3,0.1,0.4
		c0.1,0.1,0.2,0.2,0.4,0.2c0.1,0,0.2,0,0.3-0.1c0.1-0.1,0.1-0.1,0.2-0.2c0-0.1,0.1-0.2,0.1-0.3c0-0.1,0-0.2-0.1-0.3
		c0-0.1-0.1-0.2-0.2-0.2C14.5,21.3,14.4,21.2,14.3,21.2 M14.3,21.1c0.2,0,0.3,0.1,0.5,0.2c0.1,0.1,0.2,0.3,0.2,0.5
		c0,0.2-0.1,0.4-0.2,0.5c-0.1,0.1-0.3,0.2-0.4,0.2c-0.2,0-0.3-0.1-0.5-0.2c-0.1-0.1-0.2-0.3-0.2-0.5c0-0.1,0-0.3,0.1-0.4
		c0.1-0.1,0.1-0.2,0.2-0.3C14.1,21.1,14.2,21.1,14.3,21.1"/>
	<path class="st0" d="M17.8,21.9v0.6h0.1c0.1,0,0.2,0,0.2,0c0,0,0.1-0.1,0.1-0.1c0,0,0-0.1,0-0.1c0-0.1,0-0.1-0.1-0.2
		c0,0-0.1-0.1-0.1-0.1C18,21.9,17.9,21.9,17.8,21.9L17.8,21.9z M17.6,22.6v-1.5h0.6v0.1h-0.5v0.5h0.1c0.2,0,0.3,0,0.3,0
		c0.1,0,0.1,0.1,0.2,0.2c0,0.1,0.1,0.1,0.1,0.2c0,0.1,0,0.2-0.1,0.3c-0.1,0.1-0.2,0.1-0.3,0.1H17.6z"/>
	<path class="st0" d="M24.7,21.9v0.6h0.1c0.1,0,0.2,0,0.2,0c0,0,0.1-0.1,0.1-0.1c0,0,0-0.1,0-0.1c0-0.1,0-0.1-0.1-0.2
		c0,0-0.1-0.1-0.1-0.1C25,21.9,24.9,21.9,24.7,21.9L24.7,21.9z M24.7,21.3v0.5h0.1c0.1,0,0.1,0,0.2,0c0,0,0.1,0,0.1-0.1
		c0,0,0-0.1,0-0.1c0-0.1,0-0.1-0.1-0.2c0,0-0.1-0.1-0.2-0.1H24.7z M24.6,21.1h0.2c0.1,0,0.2,0,0.2,0c0.1,0,0.1,0.1,0.1,0.1
		c0,0.1,0,0.1,0,0.2c0,0.1,0,0.1,0,0.2c0,0.1-0.1,0.1-0.1,0.1c0.1,0,0.1,0.1,0.1,0.1c0,0,0.1,0.1,0.1,0.1c0,0,0,0.1,0,0.2
		c0,0.1,0,0.2-0.1,0.3c-0.1,0.1-0.2,0.1-0.3,0.1h-0.3V21.1z"/>
	<path class="st0" d="M28.2,22.5h0.1c0.1,0,0.2,0,0.3,0c0,0,0.1,0,0.1-0.1c0,0,0-0.1,0-0.2c0-0.1,0-0.1,0-0.2c0,0-0.1-0.1-0.1-0.1
		c0,0-0.1,0-0.3,0h-0.1V22.5z M28.1,21.1h0.1v0.6h0.1c0.2,0,0.3,0,0.3,0c0.1,0,0.1,0.1,0.2,0.1c0,0.1,0.1,0.2,0.1,0.3
		c0,0.1,0,0.2-0.1,0.3c0,0.1-0.1,0.1-0.2,0.1c-0.1,0-0.2,0-0.3,0h-0.2V21.1z"/>
	<polygon class="st0" points="35.4,22.6 35.3,22.6 35.3,21.5 34.5,22.6 34.5,22.6 34.5,21.1 34.6,21.1 34.6,22.3 35.4,21.1 
		35.4,21.1 	"/>
	<path class="st0" d="M41.6,21.4L41.4,22h0.4L41.6,21.4z M41.6,21.1l0.6,1.5h-0.1l-0.2-0.5h-0.5l-0.2,0.5H41L41.6,21.1L41.6,21.1z"
		/>
	<polygon class="st0" points="44.9,21.1 45,21.1 45,21.7 45.5,21.1 45.6,21.1 45,21.8 45.7,22.6 45.5,22.6 45,21.9 45,22.6 
		44.9,22.6 	"/>
	<path class="st0" d="M49.4,21.4L49.4,21.4c-0.1,0-0.2-0.1-0.3-0.1c-0.1,0-0.2-0.1-0.2-0.1c-0.1,0-0.2,0-0.3,0.1
		c-0.1,0.1-0.1,0.1-0.2,0.2c0,0.1-0.1,0.2-0.1,0.3c0,0.2,0.1,0.3,0.2,0.4c0.1,0.1,0.2,0.2,0.4,0.2c0.2,0,0.3-0.1,0.4-0.2l0.1,0.1
		c-0.1,0.1-0.1,0.2-0.2,0.2c-0.1,0.1-0.2,0.1-0.3,0.1c-0.2,0-0.4-0.1-0.5-0.3c-0.1-0.1-0.2-0.3-0.2-0.5c0-0.2,0.1-0.4,0.2-0.5
		c0.1-0.1,0.3-0.2,0.5-0.2c0.1,0,0.2,0,0.3,0.1C49.3,21.2,49.4,21.3,49.4,21.4"/>
	<polygon class="st0" points="52.2,21.1 52.8,21.1 52.8,21.3 52.3,21.3 52.3,21.7 52.8,21.7 52.8,21.9 52.3,21.9 52.3,22.5 
		52.8,22.5 52.8,22.6 52.2,22.6 	"/>
	<path class="st0" d="M56.6,21.4L56.6,21.4c-0.1,0-0.2-0.1-0.3-0.1c-0.1,0-0.2-0.1-0.2-0.1c-0.1,0-0.2,0-0.3,0.1
		c-0.1,0.1-0.1,0.1-0.2,0.2c0,0.1-0.1,0.2-0.1,0.3c0,0.2,0.1,0.3,0.2,0.4c0.1,0.1,0.2,0.2,0.4,0.2c0.2,0,0.3-0.1,0.4-0.2l0.1,0.1
		c-0.1,0.1-0.1,0.2-0.2,0.2c-0.1,0.1-0.2,0.1-0.3,0.1c-0.2,0-0.4-0.1-0.5-0.3c-0.1-0.1-0.2-0.3-0.2-0.5c0-0.2,0.1-0.4,0.2-0.5
		c0.1-0.1,0.3-0.2,0.5-0.2c0.1,0,0.2,0,0.3,0.1C56.5,21.2,56.6,21.3,56.6,21.4"/>
	<path class="st0" d="M60.5,21.4L60.5,21.4c-0.1,0-0.2-0.1-0.3-0.1c-0.1,0-0.2-0.1-0.2-0.1c-0.1,0-0.2,0-0.3,0.1
		c-0.1,0.1-0.1,0.1-0.2,0.2c0,0.1-0.1,0.2-0.1,0.3c0,0.2,0.1,0.3,0.2,0.4c0.1,0.1,0.2,0.2,0.4,0.2c0.2,0,0.3-0.1,0.4-0.2l0.1,0.1
		c-0.1,0.1-0.1,0.2-0.2,0.2c-0.1,0.1-0.2,0.1-0.3,0.1c-0.2,0-0.4-0.1-0.5-0.3c-0.1-0.1-0.2-0.3-0.2-0.5c0-0.2,0.1-0.4,0.2-0.5
		c0.1-0.1,0.3-0.2,0.5-0.2c0.1,0,0.2,0,0.3,0.1C60.4,21.2,60.4,21.3,60.5,21.4"/>
	<path class="st0" d="M67.2,21.4L67,22h0.4L67.2,21.4z M67.2,21.1l0.6,1.5h-0.1l-0.2-0.5H67l-0.2,0.5h-0.1L67.2,21.1L67.2,21.1z"/>
	<path class="st0" d="M70.6,21.3v0.5l0.2,0c0.1,0,0.1,0,0.2,0c0,0,0.1,0,0.1-0.1c0,0,0-0.1,0-0.1c0,0,0-0.1,0-0.1
		c0,0-0.1-0.1-0.1-0.1c0,0-0.1,0-0.2,0H70.6z M70.5,21.1h0.2c0.1,0,0.2,0,0.3,0c0.1,0,0.1,0.1,0.2,0.1c0,0.1,0.1,0.1,0.1,0.2
		c0,0.1,0,0.2-0.1,0.2c0,0.1-0.1,0.1-0.2,0.1c-0.1,0-0.2,0-0.3,0h-0.1v0.7h-0.1V21.1z"/>
	<path class="st0" d="M74.9,21.1H75v1.5h-0.1V21.1z M73.8,22.5h0.1c0.1,0,0.2,0,0.3,0c0,0,0.1,0,0.1-0.1c0,0,0-0.1,0-0.2
		c0-0.1,0-0.1,0-0.2c0,0-0.1-0.1-0.1-0.1c0,0-0.1,0-0.3,0h-0.1V22.5z M73.7,21.1h0.1v0.6h0.1c0.2,0,0.3,0,0.3,0
		c0.1,0,0.1,0.1,0.2,0.1c0,0.1,0.1,0.2,0.1,0.3c0,0.1,0,0.2-0.1,0.3c0,0.1-0.1,0.1-0.2,0.1c-0.1,0-0.2,0-0.3,0h-0.2V21.1z"/>
	<rect y="11.5" class="st1" width="10.2" height="12.4"/>
	<path class="st2" d="M4.7,11.8C4.7,11.8,4.7,11.8,4.7,11.8c0.1,0.1,0.1,0.2,0.1,0.4c0.1,0.8,0.3,2.5-0.5,3.3
		c-0.6,0.6-1.9,0.3-2.5-0.2c-0.3-0.2-1.2-1.1-1.5-2.1c-0.1-0.4,0.1-0.6,0.3-0.5c0.2,0.1,0.4,0.4,0.5,0.6c0.8,1.3,1.6,1.9,2.4,1.9
		c1.3,0,1.1-1.9,1.1-3.5C4.6,11.8,4.6,11.8,4.7,11.8C4.7,11.7,4.7,11.7,4.7,11.8"/>
	<path class="st2" d="M2.9,17.6c0.4-0.2,1.1-0.5,1.4,0c0.5,0.6,0.4,1.7,0.1,2.9C4.2,21.7,3.6,23,3.2,24h0.1c0.3-0.5,0.7-1.2,1.1-2.1
		c0.2-0.6,0.7-2.3,0.7-3.6c0-0.6,0-1.2-0.3-1.5c-0.3-0.5-1-0.4-1.4-0.3c-1.2,0.3-2.5,1.4-3.4,2.8v1C0.6,19.1,2.1,17.9,2.9,17.6"/>
	<path class="st2" d="M10.2,21c-1.2-0.2-3-0.7-3.6-2.5c-0.3-0.8-0.2-1.8,0.3-2.4C7.5,15.3,9,15,10.2,15v-1.3c-1.3,0.1-4,0.6-4.3,3.6
		c-0.2,2.1,1.3,3.2,1.6,3.4c0.7,0.5,1.7,0.8,2.7,0.8V21z"/>
	<path class="st0" d="M21.1,21.1H21l0.4,1.1l0,0.1c0,0.1-0.1,0.1-0.1,0.2c0,0-0.1,0-0.1,0h-0.1v0.1h0c0.1,0,0.1,0,0.2-0.1
		c0,0,0.1-0.1,0.2-0.3l0.4-1.1h-0.1L21.5,22L21.1,21.1z"/>
	<path class="st0" d="M63.3,21.1h-0.2l0.4,1.1l0,0.1c0,0.1-0.1,0.1-0.1,0.2c0,0-0.1,0-0.1,0h-0.1v0.1h0c0.1,0,0.1,0,0.2-0.1
		c0,0,0.1-0.1,0.2-0.3l0.4-1.1h-0.1L63.6,22L63.3,21.1z"/>
</g>
</svg>
