<?xml version="1.0" encoding="utf-8"?>
<!-- Generator: Adobe Illustrator 22.1.0, SVG Export Plug-In . SVG Version: 6.00 Build 0)  -->
<svg version="1.1" id="Слой_1" xmlns="http://www.w3.org/2000/svg" xmlns:xlink="http://www.w3.org/1999/xlink" x="0px" y="0px"
	 viewBox="0 0 75 34.1" style="enable-background:new 0 0 75 34.1;" xml:space="preserve">
<style type="text/css">
	.st0{fill:#E20613;}
</style>
<g id="XMLID_383_">
	<path id="XMLID_389_" class="st0" d="M34,24c-1.3-0.9-2.8-1.3-4.2-1.2c-1.4,0.1-2,1.1-2,1.1c-0.6-1.1-1.9-1.8-3.8-1.8
		c-3.1,0-6.2,1.5-8.7,1.5c-2.4,0-4.1-1.5-4-4.1c0.1-4.6,4-8.7,6.9-10.6c1.7-1.1,3.1-1.4,4-1.3c0.7,0.1,1.5,0.8,1,2
		c-0.7,1.7-1.8,1.5-1.7,0.7c0-0.5,0.4-0.8,0.6-1c0.2-0.1,0.5-0.1,0.6-0.1c0.1-0.1,0.3-1-0.9-0.7c-1.2,0.3-2.6,1.5-4,3
		c-1.4,1.5-3.5,4.4-4,7.4c-0.2,1.4-0.1,3.9,3.2,3.9c2.8,0,6.9-1.9,10.7-1.8c1.5,0,2.8,0.4,3.8,1C32.4,22.5,33.6,23.4,34,24
		 M34.9,15.7h0.6c0,0-2.9,4.2-4.5,4c-0.9-0.1-0.6-1.2-0.6-1.2s-1.3,1.5-2.4,1.2c-1.1-0.3-0.4-2-0.4-2c-0.1,0-2.4,2.6-4,2
		c-1.7-0.7-0.8-2.8-0.5-3.5c0.3-0.5,0.6-1.1,0.6-1.1s-0.3,0.1-0.4,0.1c-0.2,0-0.4,0.1-0.4,0.1s-0.8,1.3-1.3,1.9
		c-0.5,0.7-2.6,2.9-3.8,2.4c-1.2-0.4-0.9-2.2-0.2-3.5c1.1-2.2,3.8-4.9,5.4-4.5c1.6,0.4,0.3,3,0.3,3s0.3,0,1.1-0.5
		c1.1-0.8,2.6-2.8,4.1-2.5c0.7,0.1,1.4,0.9,0.5,2.3c-0.3,0.5-0.8,0.9-1.2,0.5c-0.2-0.3,0-0.7,0.2-1c0.4-0.5,0.9-0.4,0.9-0.4
		s0.3-0.6-0.4-0.6c-0.5,0-1.9,1.3-2.7,2.5c-0.7,1.2-1.8,3.1-0.7,3.6c1,0.4,2.9-1.8,3.7-3c0.9-1.2,2.8-3.8,4.5-3.9
		c0.6,0,0.9,0.5,0.9,0.5l0.2-0.3h1.7c0,0-3.1,5.2-3.4,5.6c-0.2,0.3-0.4,1,0.3,0.6C33.4,17.6,34.9,15.7,34.9,15.7 M22.1,15.2
		c0,0-0.4-0.1-0.9-0.4c-0.4-0.3-0.6-0.6-0.6-0.7c0,0,0,0,0,0c0,0-0.1,0.1-0.7,1c-0.6,0.9-1.5,2.6-0.6,2.9c0.5,0.2,1.4-0.7,1.9-1.3
		C21.6,16.2,22.1,15.3,22.1,15.2C22.1,15.2,22.1,15.2,22.1,15.2 M22.7,12.4c-0.4-0.3-1.5,0.4-1.5,1.2c0,0.8,1,1,1.1,1
		c0,0,0.1,0,0.2-0.1c0-0.1,0.2-0.3,0.3-0.7C22.9,13.5,23.1,12.7,22.7,12.4 M31.2,16.7c0.7-0.9,2.5-4.1,2.5-4.1s0-0.2-0.2-0.2
		c-0.3,0-0.7,0.1-1.5,1.1c-0.8,1.1-1.5,1.9-2,2.8c-0.5,1-0.8,1.6-0.5,1.8c0.1,0.1,0.2,0.1,0.3,0c0.2,0,0.5-0.2,0.8-0.7
		C30.8,17.3,30.9,17,31.2,16.7 M38.6,11.8H37l-0.9,1.4h1.6L38.6,11.8z M61.8,9.2c-1.2,0.7-2.8,1.4-4.3,1.3c-0.4,0.4-0.8,0.9-1.2,1.4
		c2.7,0.5,5-1.1,6.3-2.5c0.8-0.9,1.2-1.7,1.2-1.7S62.9,8.4,61.8,9.2 M57.2,21.4c-0.2,0.4-0.5,1,0.3,0.6c0.9-0.5,2.2-2.5,2.2-2.5h0.6
		c0,0-0.8,1.2-1.7,2.3c-0.9,1-2,1.9-2.8,1.8c-0.9-0.1-0.6-1.3-0.6-1.3s-1.3,1.4-2.2,1.3C51.6,23.5,52,22,52,22s-1.4,1.7-2.3,1.6
		c-1.5-0.1-1.1-1.9-0.7-3.1c0.2-0.7,0.4-1.2,0.4-1.2s-0.1,0-0.5,0.1c-0.2,0-0.5,0-0.5,0s-0.6,1.1-1.1,1.7c-0.5,0.6-2.6,2.9-3.8,2.4
		c-1.1-0.4-0.8-2.1-0.1-3.5c1-2,3.7-4.9,5.2-4.5c1.6,0.4,0,3.3,0,3.3s0,0,0,0c0,0,0.1,0,0.3,0c0.3-0.1,0.6-0.2,0.6-0.2
		s1.6-3.4,3.4-5.6c1.8-2.2,5.4-6.1,6.8-5.1c0.3,0.2,0.2,1-0.3,2c-0.2,0.1-0.4,0.1-0.6,0.2c0.3-0.6,0.5-1,0.6-1.4
		c0.2-1.2-2.5,1.3-4.4,3.9c-1.9,2.6-3.1,5-3.1,5s0.4-0.2,1-0.7c0.6-0.5,1.5-1.3,2.4-2.3c0.6-0.7,1.4-1.5,2.1-2.4
		c0.2,0,0.4,0,0.6-0.1c-0.8,1-1.6,2-2.3,2.7c-0.8,0.8-1.6,1.6-2.3,2.2c-1.1,1-2,1.5-2,1.5s-1.7,3.4-0.8,3.6c0.5,0.1,1.6-1.5,1.6-1.5
		s1.4-2.1,2.2-3.1c1.1-1.3,2.1-2,3.1-2.1c0.6,0,0.9,0.6,0.9,0.6l0.3-0.4h1.7C60.5,15.7,57.4,21,57.2,21.4 M47.9,19.3
		c0,0-0.4-0.2-0.8-0.5c-0.4-0.3-0.6-0.7-0.6-0.7c0,0,0,0,0,0c0,0-0.1,0.1-0.7,0.9c-0.6,0.9-1.5,2.7-0.7,3c0.5,0.2,1.4-0.7,1.9-1.3
		C47.5,20.1,47.9,19.4,47.9,19.3C47.9,19.3,47.9,19.3,47.9,19.3 M48.7,17.8c0.2-0.4,0.3-1.2-0.1-1.5c-0.4-0.3-1.5,0.4-1.5,1.2
		c0,0.8,0.8,1.2,1,1.2c0.1,0,0.1,0,0.2-0.1C48.3,18.7,48.6,18.2,48.7,17.8 M58.2,16.7c0-0.1,0-0.1,0-0.1s0-0.2-0.2-0.2
		c-0.3,0-0.6,0-1.5,1c-0.9,1-1.5,1.9-1.9,2.8c-0.5,1-0.7,1.7-0.4,1.9c0.1,0.1,0.2,0.1,0.3,0c0.2,0,0.4-0.2,0.8-0.6
		c0.2-0.2,0.3-0.5,0.6-0.8C56.4,19.8,57.9,17.3,58.2,16.7 M61.8,9.2c-1.2,0.7-2.8,1.4-4.3,1.3c-0.4,0.4-0.8,0.9-1.2,1.4
		c2.7,0.5,5-1.1,6.3-2.5c0.8-0.9,1.2-1.7,1.2-1.7S62.9,8.4,61.8,9.2 M54.2,11.1C53,10.5,52,9.7,51.1,9.2c-0.9-0.5-1.5-0.7-2.3-0.6
		c-0.1,0-0.3,0.1-0.3,0.1s0.4,1.3-1.1,3.5c-1.5,2.2-2.9,2.2-3.3,1.6c-0.4-0.6,0.1-2,1-3.1c0.9-1.2,2.6-2.2,2.6-2.2s-0.5-0.3-1.8,0.4
		c-1.3,0.7-3.4,2.4-5.5,5.3c-2,2.9-2.4,4.4-2.7,5.7c-0.3,1.2,0,2.6,1.4,2.6c1.4,0,3-2.1,3.4-2.8c0.8-1.4,1.4-3.5,0.2-3.2
		c-0.6,0.1-1,0.8-1.3,1.4C41.1,18.4,41,19,41,19s-0.5,0.2-1.1,0.6c-0.6,0.5-1.1,0.9-1.1,0.9s0-1,0.8-2.6c0.8-1.6,2.2-2.3,3.1-2.4
		c0.7-0.1,1.7,0.6,0.9,2.9c-0.8,2.3-3.2,5.1-5.8,5.2c-2.3,0-3.9-3-0.6-8.2c3.6-5.8,7.8-7.5,9.2-7.7c1.4-0.2,1.8,0.4,1.8,0.4
		s1.2-0.5,2.6-0.4c1.7,0.1,3,1.3,4.7,2.1C55,10.3,54.6,10.7,54.2,11.1 M48,8.9c0,0-1,0.4-2.1,1.6c-1.1,1.3-1.8,2.7-1.3,3
		c0.2,0.1,0.6,0.2,1.4-0.5c0.6-0.6,1.2-1.3,1.7-2.3C48.2,9.5,48,8.9,48,8.9"/>
	<path id="XMLID_384_" class="st0" d="M59.1,22.8c0-0.6,0.4-1,1-1c0.6,0,1,0.4,1,1c0,0.6-0.4,1-1,1C59.6,23.8,59.1,23.3,59.1,22.8
		 M61,22.8c0-0.5-0.4-0.8-0.8-0.8c-0.5,0-0.8,0.4-0.8,0.8c0,0.5,0.4,0.8,0.8,0.8C60.6,23.6,61,23.2,61,22.8 M60.6,23.3h-0.2
		l-0.2-0.5h-0.2v0.5h-0.2v-1.1h0.5c0.1,0,0.2,0,0.3,0.1c0.1,0.1,0.1,0.2,0.1,0.3c0,0.2-0.1,0.3-0.3,0.3L60.6,23.3z M60.3,22.7
		c0.1,0,0.2,0,0.2-0.2c0-0.1-0.2-0.1-0.3-0.1h-0.3v0.3H60.3z"/>
</g>
</svg>
