<?xml version="1.0" encoding="utf-8"?>
<!-- Generator: Adobe Illustrator 22.1.0, SVG Export Plug-In . SVG Version: 6.00 Build 0)  -->
<svg version="1.1" id="Слой_1" xmlns="http://www.w3.org/2000/svg" xmlns:xlink="http://www.w3.org/1999/xlink" x="0px" y="0px"
	 viewBox="0 0 75 34.1" style="enable-background:new 0 0 75 34.1;" xml:space="preserve">
<style type="text/css">
	.st0{fill:#00659E;}
</style>
<g>
	<path class="st0" d="M37.6,21.4c0.4,0.2,0.8,0.3,1.2,0.3c0.3,0,0.6-0.1,0.8-0.2c0.2-0.2,0.4-0.4,0.6-0.6c0.1-0.3,0.2-0.5,0.3-0.8
		c0.1-0.5,0-0.9-0.2-1.2c-0.3-0.6-1-0.8-2.2-0.8c-0.2,0-0.5,0-0.7,0c-0.2,0-0.5,0-0.7,0.1c-0.3,0-0.5,0-0.5,0.1l-0.6,5h1.8
		L37.6,21.4z M37.8,19.8c0-0.4,0.3-0.6,0.6-0.6c0.3,0,0.4,0.3,0.3,0.7c0,0.4-0.4,0.6-0.6,0.6C37.8,20.4,37.7,20.1,37.8,19.8z"/>
	<path class="st0" d="M15.9,19.3l1.2-2.1l0,1.3h0l0,0.2l0,0.6h0l0,0.6l1.4-0.5l0.4-0.1l0-0.2c0.4-0.1,0.7-0.2,1-0.2
		c0.2,0,0.3,0,0.4,0.1c0.1,0,0.1,0.1,0.1,0.1c0,0.1,0,0.1-0.1,0.1c-0.1,0-0.1,0.1-0.2,0.1c-0.5,0.1-0.9,0.2-1.1,0.2
		c-0.3,0.1-0.5,0.2-0.7,0.4c-0.2,0.2-0.3,0.5-0.4,0.8c0,0.3,0.2,0.5,0.5,0.7c0.3,0.1,0.8,0.2,1.3,0.2c0.5,0,1.1-0.1,1.8-0.2l0.3-1.1
		c-0.7,0.2-1.3,0.4-1.6,0.4c-0.1,0-0.3,0-0.3-0.1c-0.1,0-0.1-0.1-0.1-0.1c0,0,0-0.1,0.1-0.1c0.1,0,0.1-0.1,0.2-0.1
		c0.3,0,0.6-0.1,0.8-0.2c0.2-0.1,0.4-0.1,0.6-0.2c0.2-0.1,0.3-0.2,0.5-0.4c0.1-0.2,0.2-0.4,0.3-0.7c0-0.2-0.1-0.4-0.2-0.5
		c-0.2-0.1-0.4-0.2-0.7-0.3c-0.3-0.1-0.6-0.1-1-0.1c-0.5,0-0.9,0-1.5,0.1l-0.2-2.6h-2.1l-2.6,3.9H15.9z"/>
	<polygon class="st0" points="17.5,20.1 3.5,20.1 3.2,21.6 17.2,21.6 	"/>
	<path class="st0" d="M10.1,18.9c0.4,0.3,0.9,0.5,1.7,0.5c0.5,0,1,0,1.6-0.1l0.5-1.3c-0.2,0.1-0.4,0.1-0.6,0.1
		c-0.1,0-0.3,0.1-0.5,0.1c-0.2,0-0.4,0-0.5,0c-0.5,0-0.8-0.2-0.7-0.6h2.7c0,0,0-0.1,0.1-0.2c0-0.1,0.1-0.2,0.1-0.2
		c0.1-0.4,0.1-0.7,0-0.9c-0.1-0.3-0.3-0.5-0.5-0.6c-0.2-0.2-0.5-0.2-0.9-0.3c0,0-0.1,0-0.2,0c-0.1,0-0.1,0-0.2,0
		c-0.3,0-0.7,0.1-1,0.2c-0.3,0.1-0.7,0.3-0.9,0.4c-0.3,0.2-0.5,0.4-0.6,0.7c-0.1,0.3-0.2,0.5-0.3,0.7C9.7,18.1,9.8,18.6,10.1,18.9z
		 M12.1,16.6c0.1-0.1,0.3-0.1,0.4-0.1c0.1,0,0.2,0.1,0.3,0.1c0.1,0.1,0.1,0.2,0,0.3l0,0.1h-0.9C11.9,16.9,12,16.7,12.1,16.6z"/>
	<path class="st0" d="M30.7,19c0-0.3-0.1-0.5-0.3-0.7c-0.3-0.2-0.7-0.3-1.3-0.3c-0.5,0-1.1,0.1-1.9,0.2L27,19.3
		c0.6-0.2,1.1-0.3,1.6-0.3c0.1,0,0.2,0,0.3,0c0.1,0.1,0.2,0.2,0.2,0.3c0,0.1-0.1,0.2-0.2,0.3c-0.1,0.1-0.2,0.2-0.4,0.2
		c0.4,0.2,0.5,0.4,0.5,0.6c0,0.1-0.1,0.2-0.2,0.3c-0.1,0.1-0.3,0.1-0.4,0.1c-0.5,0-1-0.2-1.5-0.4l0,1.1c0.5,0.1,1,0.2,1.5,0.2
		c0.4,0,0.7,0,1-0.1c0.3-0.1,0.6-0.2,0.8-0.3c0.2-0.1,0.3-0.3,0.4-0.6l0-0.1c0-0.2,0-0.4-0.1-0.5c-0.1-0.1-0.3-0.3-0.5-0.4
		c0.2,0,0.4-0.1,0.5-0.3C30.6,19.3,30.7,19.2,30.7,19z"/>
	<path class="st0" d="M33.7,21.6h1.8l0.3-2.5c0-0.3,0-0.5-0.1-0.7c-0.1-0.2-0.3-0.3-0.5-0.4c-0.2-0.1-0.4-0.1-0.7-0.1
		c-0.3,0-0.5,0-0.8,0.1c-0.3,0.1-0.5,0.2-0.6,0.3l0-0.3h-1.7L31,21.6h1.8l0.2-1.6c0-0.2,0.1-0.4,0.2-0.5c0.1-0.1,0.3-0.2,0.4-0.2
		c0.1,0,0.2,0,0.3,0.1c0.1,0.1,0.1,0.2,0.1,0.3L33.7,21.6z"/>
	<polygon class="st0" points="62.5,19.4 63,17.9 64,17.9 63.6,19.4 65.5,19.4 66.6,15.5 64.7,15.5 64.4,16.8 63.3,16.8 63.7,15.5 
		61.7,15.5 60.6,19.4 	"/>
	<path class="st0" d="M59.1,16.9c-0.1,0-0.2,0.1-0.3,0.1c-0.3,0-0.5,0.1-0.8,0.1c-0.3,0-0.6,0.1-0.8,0.2c-0.2,0.1-0.4,0.2-0.6,0.4
		c-0.2,0.2-0.3,0.4-0.4,0.7c-0.1,0.3,0,0.6,0.2,0.8c0.2,0.2,0.6,0.3,1,0.3c0.2,0,0.4,0,0.6,0c0,0,0.5-0.1,0.5-0.1h1.9l0.9-2.9
		c0.1-0.3-0.1-0.6-0.4-0.7c-0.3-0.2-0.7-0.2-1.3-0.2c-0.5,0-1.2,0.1-2,0.2l-0.5,1.2c0.8-0.2,1.3-0.4,1.7-0.4c0.2,0,0.3,0,0.3,0.1
		c0.1,0,0.1,0.1,0.1,0.1C59.2,16.8,59.2,16.8,59.1,16.9z M58.8,18.3c0,0-0.2,0.1-0.3,0.1c-0.1,0-0.2,0.1-0.2,0.1
		c-0.1,0-0.1,0-0.2-0.1c0,0,0-0.1,0-0.1c0,0,0-0.1,0.1-0.1c0.1,0,0.1-0.1,0.2-0.1c0.2,0,0.4-0.1,0.5-0.1L58.8,18.3z"/>
	<polygon class="st0" points="67.7,19.4 69.2,14.3 67.3,14.3 65.8,19.4 	"/>
	<path class="st0" d="M26.8,18.9c0-0.3-0.1-0.5-0.4-0.7C26,18.1,25.6,18,25.1,18c-0.5,0-1.1,0.1-1.8,0.2L23,19.3
		c0.7-0.2,1.2-0.3,1.5-0.3c0.1,0,0.2,0,0.3,0.1c0.1,0,0.1,0.1,0.1,0.1c0,0,0,0.1-0.1,0.1c-0.1,0-0.1,0.1-0.2,0.1
		c-0.2,0-0.5,0.1-0.8,0.1c-0.3,0-0.5,0.1-0.7,0.2c-0.2,0.1-0.4,0.2-0.5,0.3c-0.1,0.2-0.2,0.4-0.3,0.6c0,0.3,0.1,0.6,0.3,0.7
		c0.2,0.2,0.6,0.3,1,0.3c0.2,0,0.3,0,0.5,0c0,0,0.5-0.1,0.5-0.1h1.7L26.8,18.9z M24.8,20.7c-0.1,0-0.3,0.1-0.4,0.1
		c-0.1,0-0.1,0-0.2,0c-0.1,0-0.1-0.1-0.1-0.2c0,0,0-0.1,0.1-0.1c0,0,0.1-0.1,0.2-0.1c0.2,0,0.3-0.1,0.5-0.2L24.8,20.7z"/>
	<polygon class="st0" points="53.6,21.6 71.6,21.6 71.2,20.1 53.4,20.1 	"/>
	<polygon class="st0" points="68.9,19.4 70.9,19.4 70.3,17.3 71.9,15.5 69.8,15.5 68.4,17.3 	"/>
	<path class="st0" d="M8.5,19.1c0.3-0.2,0.5-0.4,0.7-0.6c0.2-0.3,0.3-0.5,0.4-0.8c0.1-0.3,0.1-0.6,0-0.9c-0.1-0.3-0.2-0.5-0.5-0.7
		c-0.3-0.2-0.6-0.3-1-0.3c-0.2,0-0.9,0-1,0l0.1-0.3h2.3l0.4-1.4H5.6l-1.5,5.1h3.5C7.9,19.3,8.2,19.2,8.5,19.1z M7.3,17.8
		C7.2,17.9,7,18,6.8,18c0,0-0.1,0-0.1,0c0,0-0.1,0-0.1,0l0.2-0.8c0.1,0,0.3-0.1,0.4-0.1c0.1,0,0.3,0,0.3,0.1
		c0.1,0.1,0.1,0.2,0.1,0.3C7.6,17.7,7.5,17.8,7.3,17.8z"/>
	<path class="st0" d="M47.6,19.7l0.3,1.9h1.7l0.9-1.9l0,1.9h1.7l-0.3-2.3c0.3,0.1,0.6,0.2,1,0.2c0.3,0,0.6,0,0.8-0.1
		c0.3,0,0.6-0.1,0.9-0.3c0.3-0.1,0.5-0.3,0.7-0.5c0.2-0.2,0.4-0.4,0.5-0.6c0.1-0.2,0.2-0.4,0.3-0.7c0-0.2,0.1-0.3,0.1-0.5
		c0-0.5-0.1-0.9-0.3-1.1c-0.2-0.3-0.6-0.4-1.2-0.4c-0.5,0-1.1,0.1-1.9,0.3c0,0,0,0,0,0c0,0,0,0,0,0c0-0.1,0.2-0.2,0.4-0.3
		c0.2-0.1,0.5-0.2,0.8-0.2c0.3-0.1,0.6-0.1,1-0.1c0.5,0,0.9,0,1.2,0.1l0.4-1.4c-0.2,0-0.6,0.1-1.2,0.1c-0.6,0-1.2,0.1-1.7,0.2
		c-0.5,0.1-0.9,0.3-1.3,0.6c-0.4,0.3-0.7,0.7-0.9,1.3L51,17.5c0,0.2-0.1,0.4-0.1,0.6h-1.1l-0.8,1.7L48.7,18h-1.8l-1.6,3.6h1.7
		L47.6,19.7z M53,17.5c0.1-0.2,0.2-0.4,0.4-0.6c0.2-0.1,0.3-0.2,0.5-0.2c0.1,0,0.2,0,0.2,0.1c0.1,0.1,0.1,0.2,0.1,0.3
		c0,0.1,0,0.3,0,0.4c-0.1,0.2-0.2,0.4-0.3,0.5c-0.2,0.2-0.4,0.2-0.5,0.2c-0.2,0-0.3-0.1-0.3-0.3C52.9,17.8,52.9,17.6,53,17.5z"/>
	<path class="st0" d="M29.7,15.3c1.1,0.2,2.5,0.2,3.7,0c0.7,0,1.3-0.1,1.8-0.3c0.4,0.3,1.1,0.4,1.8,0.3c1.2,0.2,2.5,0.2,3.7,0
		c2.3-0.4,3.8-1.2,3-2.1c-0.3-0.3-1.1-0.5-2.1-0.7c0.5-0.8,0.7-1.6,0.3-2.3c-0.4-0.6-1.8-0.7-3.2-0.1c-0.3-1.7-1.7-3.1-3.3-3.1
		s-3,1.3-3.3,3.1c-1.4-0.5-2.9-0.5-3.2,0.1c-0.4,0.6-0.2,1.4,0.3,2.3c-1,0.1-1.9,0.4-2.1,0.7C26,14.1,27.5,14.9,29.7,15.3z
		 M43.2,13.3c0.6,0.6-1,1.2-3.1,1.5c-0.5,0.1-1,0.1-1.4,0.1c0.3-0.1,0.6-0.3,0.9-0.5c0.7-0.5,1.2-1,1.7-1.6
		C42.1,12.9,42.8,13,43.2,13.3z M38.5,10.7c1.1-0.5,2.4-0.8,2.9-0.2c0.5,0.8-0.6,2.1-2.2,3.1c-0.9,0.5-1.7,0.7-2.4,0.8
		c1-0.7,1.7-1.9,1.7-3.4C38.5,10.9,38.5,10.8,38.5,10.7z M33.4,11.1c-0.1-0.1-0.2-0.2-0.3-0.2c-0.2-0.1-0.3-0.2-0.5-0.3
		c0.2-1.7,1.2-3,2.5-3s2.4,1.3,2.5,3c-0.2,0.1-0.3,0.2-0.5,0.3c-0.1,0.1-0.2,0.2-0.3,0.2l0,0.6c0.2-0.2,0.5-0.4,0.9-0.6
		c0,1.9-1.2,3.5-2.6,3.5c-1.4,0-2.5-1.5-2.6-3.5c0.4,0.2,0.7,0.4,0.9,0.6L33.4,11.1z M28.9,10.5c0.6-0.6,1.8-0.3,2.9,0.2
		c0,0.1,0,0.2,0,0.4c0,1.4,0.7,2.7,1.7,3.4c-0.7,0-1.5-0.2-2.4-0.8C29.5,12.6,28.3,11.4,28.9,10.5z M27.1,13.3
		c0.4-0.3,1.1-0.5,1.9-0.5c0.4,0.6,1,1.1,1.7,1.6c0.3,0.2,0.6,0.4,0.9,0.5c-0.4,0-0.9,0-1.4-0.1C28.1,14.5,26.5,13.9,27.1,13.3z"/>
	<path class="st0" d="M45.1,20.4c0.1-0.2,0.2-0.4,0.2-0.6c0-0.2,0-0.3,0-0.5c0-0.2-0.1-0.4-0.2-0.6c-0.1-0.2-0.2-0.3-0.4-0.5
		c-0.2-0.1-0.4-0.2-0.6-0.3c-0.2-0.1-0.5-0.1-0.8-0.1c-0.2,0-0.5,0-0.9,0.1c-0.5,0.1-0.9,0.4-1.2,0.7c-0.3,0.3-0.5,0.7-0.5,1.1
		c0,0.3,0,0.6,0.2,0.9c0.1,0.3,0.4,0.5,0.7,0.7c0.3,0.2,0.7,0.3,1.1,0.3c0.2,0,0.4,0,0.7-0.1c0.3,0,0.5-0.1,0.8-0.2
		c0.2-0.1,0.4-0.3,0.6-0.4C44.9,20.8,45,20.6,45.1,20.4z M43.5,19.9c0,0.2-0.1,0.3-0.2,0.5c-0.1,0.1-0.2,0.2-0.4,0.2
		c-0.1,0-0.3-0.1-0.3-0.2c-0.1-0.1-0.1-0.3-0.1-0.5c0-0.2,0.1-0.3,0.2-0.5c0.1-0.1,0.3-0.2,0.4-0.2c0.1,0,0.2,0.1,0.3,0.2
		C43.5,19.5,43.5,19.7,43.5,19.9z"/>
	<path class="st0" d="M68.6,23.9c-1.2,0-1.8,0.8-1.8,1.6c0,0.3,0.1,1,1.3,1c1.1,0,1.8-0.7,1.8-1.5C69.8,24.4,69.5,23.9,68.6,23.9z
		 M68.5,25.4c0,0.1-0.1,0.3-0.3,0.3c-0.1,0-0.2,0-0.2-0.2c0-0.2,0.1-0.6,0.2-0.7c0-0.1,0.1-0.2,0.3-0.2c0.2,0,0.2,0.2,0.2,0.2
		C68.6,25,68.5,25.3,68.5,25.4z"/>
	<path class="st0" d="M49.8,23.9l-0.6,1.5h0l0-1.5H48l0.4,2.5l0,0.1c-0.1,0.2-0.3,0.2-0.4,0.2c-0.1,0-0.2,0-0.3-0.1l-0.1,0.7
		c0.2,0.1,0.5,0.1,0.7,0.1c0.7,0,1.1-0.3,1.5-1l1.3-2.6H49.8z"/>
	<polygon class="st0" points="38.1,23.9 37.6,26.4 38.8,26.4 39.1,24.6 40,24.6 40.1,23.9 	"/>
	<path class="st0" d="M41.9,23.9c-1.2,0-1.8,0.8-1.8,1.6c0,0.3,0.1,1,1.3,1c1.1,0,1.8-0.7,1.8-1.5C43.1,24.4,42.8,23.9,41.9,23.9z
		 M41.8,25.4c0,0.1-0.1,0.3-0.3,0.3c-0.1,0-0.2,0-0.2-0.2c0-0.2,0.1-0.6,0.2-0.7c0-0.1,0.1-0.2,0.3-0.2c0.2,0,0.2,0.2,0.2,0.2
		C41.9,25,41.8,25.3,41.8,25.4z"/>
	<path class="st0" d="M46.6,24.1c-0.3,0-0.7,0.1-1,0.4h0l0-0.1c0.1-0.4,0.4-0.5,0.6-0.6c0.2-0.1,0.5-0.1,0.9-0.1
		c0.3,0,0.5,0,0.7-0.2l0.2-0.8c-0.2,0.1-0.4,0.1-0.7,0.2c-0.5,0.1-1,0-1.5,0.3c-0.7,0.4-1,1.3-1,2.1c0,0.4,0.1,1.1,1.2,1.1
		c1.3,0,1.8-0.9,1.8-1.4C47.7,24.4,47.2,24.1,46.6,24.1z M46.4,25.2c0,0.2-0.1,0.5-0.3,0.5c-0.2,0-0.2-0.1-0.2-0.2
		c0-0.1,0.1-0.4,0.1-0.5c0.1-0.2,0.2-0.2,0.3-0.2c0.2,0,0.2,0.1,0.2,0.2C46.4,25.1,46.4,25.2,46.4,25.2z"/>
	<path class="st0" d="M56,23.9l-0.6,1.5h0l0-1.5h-1.2l0.4,2.5l0,0.1c-0.1,0.2-0.3,0.2-0.4,0.2c-0.1,0-0.2,0-0.3-0.1l-0.1,0.7
		c0.2,0.1,0.5,0.1,0.7,0.1c0.7,0,1.1-0.3,1.5-1l1.3-2.6H56z"/>
	<path class="st0" d="M4.9,23c-0.4,0-0.7,0-0.9,0.1l-0.1,0L3.8,24c0.2-0.1,0.5-0.2,0.7-0.2c0.3,0,0.7,0.1,0.8,0.5H4.1L4,25h1.1
		c-0.2,0.4-0.5,0.5-0.9,0.5c-0.2,0-0.5,0-0.7-0.1l-0.2,0.9c0.4,0.1,0.7,0.1,0.9,0.1c1.5,0,2.3-1,2.3-2C6.5,23.5,5.9,23,4.9,23z"/>
	<polygon class="st0" points="70,26.4 71,26.4 71.2,25.5 70.2,25.5 	"/>
	<polygon class="st0" points="70.3,25.2 71.2,25.2 71.8,23.1 70.5,23.1 	"/>
	<polygon class="st0" points="60.2,23.9 59.8,25.7 59.5,25.7 59.8,23.9 58.8,23.9 58.4,25.7 58.1,25.7 58.4,23.9 57.3,23.9 
		56.9,26.4 60.1,26.4 59.9,27.1 60.9,27.1 61.2,25.7 60.9,25.7 61.2,23.9 	"/>
	<path class="st0" d="M63.1,23.9c-1.2,0-1.6,1-1.6,1.6c0,0.4,0.1,0.6,0.3,0.7c0.3,0.2,0.7,0.3,1,0.3c0.3,0,0.7,0,1.1-0.1l0.1-0.6
		c-0.3,0.1-0.6,0.2-0.9,0.2c-0.5,0-0.5-0.3-0.5-0.4h1.6l0-0.1c0-0.2,0.1-0.3,0.1-0.5c0-0.1,0-0.2-0.1-0.3
		C64.2,24.3,63.9,23.9,63.1,23.9z M63.3,24.9L63.3,24.9l-0.6,0.1l0,0c0.1-0.4,0.3-0.4,0.4-0.4c0.1,0,0.2,0,0.2,0.3
		C63.3,24.8,63.3,24.8,63.3,24.9z"/>
	<polygon class="st0" points="64.8,23.9 64.3,26.4 65.5,26.4 65.8,24.6 66.7,24.6 66.8,23.9 	"/>
	<path class="st0" d="M53.5,25.7l0.3-1.8h-2.3l-0.1,0.5c-0.1,0.5-0.2,0.9-0.6,1.3h-0.2l-0.3,1.4h1l0.1-0.7h1.2l-0.1,0.7h1l0.3-1.4
		H53.5z M52.5,25.7h-0.6c0.3-0.3,0.4-0.5,0.4-0.9l0-0.1h0.4L52.5,25.7z"/>
	<polygon class="st0" points="16.4,23.9 15.9,26.4 17,26.4 17.4,24.6 18.2,24.6 18.4,23.9 	"/>
	<path class="st0" d="M15,23.9c-0.3,0-0.7,0.1-0.9,0.5h0l0.1-0.4h-1.1l-0.7,3.5h1.2l0.3-1.3c0.2,0.3,0.5,0.4,0.7,0.4
		c0.7,0,1.3-0.6,1.3-1.6C15.8,23.9,15.2,23.9,15,23.9z M14.5,25.4c-0.1,0.2-0.2,0.3-0.3,0.3c-0.1,0-0.2,0-0.2-0.3
		c0-0.2,0-0.3,0.1-0.5c0.1-0.2,0.2-0.3,0.3-0.3c0.1,0,0.2,0,0.2,0.3C14.6,25.1,14.6,25.3,14.5,25.4z"/>
	<polygon class="st0" points="20.3,23.9 19.6,25.1 19.6,25.1 19.8,23.9 18.7,23.9 18.2,26.4 19.4,26.4 20.1,25.2 20.2,25.2 
		19.9,26.4 21,26.4 21.5,23.9 	"/>
	<polygon class="st0" points="8.4,24.8 8,24.8 8.1,23.9 7,23.9 6.5,26.4 7.6,26.4 7.8,25.5 8.2,25.5 8.1,26.4 9.2,26.4 9.7,23.9 
		8.5,23.9 	"/>
	<path class="st0" d="M36.4,23.9c-1.2,0-1.6,1-1.6,1.6c0,0.4,0.1,0.6,0.3,0.7c0.3,0.2,0.7,0.3,1,0.3c0.3,0,0.7,0,1.1-0.1l0.1-0.6
		c-0.3,0.1-0.6,0.2-0.9,0.2c-0.5,0-0.5-0.3-0.5-0.4h1.6l0-0.1c0-0.2,0.1-0.3,0.1-0.5c0-0.1,0-0.2-0.1-0.3
		C37.5,24.3,37.2,23.9,36.4,23.9z M36.6,24.9L36.6,24.9L36,24.9l0,0c0.1-0.4,0.3-0.4,0.4-0.4c0.1,0,0.2,0,0.2,0.3
		C36.6,24.8,36.6,24.8,36.6,24.9z"/>
	<path class="st0" d="M10.9,25.4h1.6l0-0.1c0-0.2,0.1-0.3,0.1-0.5c0-0.1,0-0.2-0.1-0.3c-0.1-0.2-0.3-0.6-1.1-0.6
		c-1.2,0-1.6,1-1.6,1.6c0,0.4,0.1,0.6,0.3,0.7c0.3,0.2,0.7,0.3,1,0.3c0.3,0,0.7,0,1.1-0.1l0.1-0.6c-0.3,0.1-0.6,0.2-0.9,0.2
		C10.9,25.8,10.9,25.5,10.9,25.4z M11,24.9c0.1-0.4,0.3-0.4,0.4-0.4c0.1,0,0.2,0,0.2,0.3c0,0,0,0.1,0,0.1l0,0.1L11,24.9L11,24.9z"/>
	<path class="st0" d="M31.3,24.4c0-0.5-0.5-0.5-0.7-0.5h-1.7l-0.5,2.5h1.8c0.7,0,1-0.4,1-0.8c0-0.3-0.2-0.5-0.5-0.5v0
		C31.2,25,31.3,24.7,31.3,24.4z M29.8,25.8h-0.2l0.1-0.5h0.2c0.1,0,0.3,0,0.3,0.2C30.1,25.7,30.1,25.8,29.8,25.8z M29.9,24.9h-0.1
		l0.1-0.4H30c0.1,0,0.3,0,0.3,0.2C30.3,24.7,30.2,24.9,29.9,24.9z"/>
	<path class="st0" d="M33.3,23.9c-1.2,0-1.8,0.8-1.8,1.6c0,0.3,0.1,1,1.3,1c1.1,0,1.8-0.7,1.8-1.5C34.6,24.4,34.3,23.9,33.3,23.9z
		 M33.3,25.4c0,0.1-0.1,0.3-0.3,0.3c-0.1,0-0.2,0-0.2-0.2c0-0.2,0.1-0.6,0.2-0.7c0-0.1,0.1-0.2,0.3-0.2c0.2,0,0.2,0.2,0.2,0.2
		C33.4,25,33.3,25.3,33.3,25.4z"/>
	<polygon class="st0" points="28.6,23.9 26.2,23.9 26.1,24.6 26.7,24.6 26.4,26.4 27.5,26.4 27.9,24.6 28.5,24.6 	"/>
	<path class="st0" d="M21.7,24.9c0,0.3,0.2,0.4,0.4,0.5l-0.7,1h1.2l0.4-0.8h0.1l-0.2,0.8h1.2l0.5-2.5h-1.8
		C22.1,23.9,21.7,24.4,21.7,24.9z M23.2,24.5L23.2,24.5l0,0.6h-0.1c-0.1,0-0.3-0.1-0.3-0.2C22.8,24.7,22.9,24.5,23.2,24.5z"/>
</g>
</svg>
