<?xml version="1.0" encoding="utf-8"?>
<!-- Generator: Adobe Illustrator 22.1.0, SVG Export Plug-In . SVG Version: 6.00 Build 0)  -->
<svg version="1.1" id="Слой_1" xmlns="http://www.w3.org/2000/svg" xmlns:xlink="http://www.w3.org/1999/xlink" x="0px" y="0px"
	 viewBox="0 0 75 34.1" style="enable-background:new 0 0 75 34.1;" xml:space="preserve">
<style type="text/css">
	.st0{fill:#F49A3C;}
	.st1{fill:#264495;}
	.st2{fill:#6BB65B;}
	.st3{fill:#539652;}
	.st4{fill:#FFFFFF;}
	.st5{fill:#C2C3E0;}
	.st6{fill:#BABBDB;}
</style>
<g>
	<circle class="st0" cx="35.6" cy="17.1" r="13.8"/>
	<path class="st1" d="M19.4,10.9l7.6-0.8c0,0-2.7-2.2-3-3.2c0,0-0.1-0.6,0.8-0.8s4.7-1.8,4.7-1.8s5.5-1.7,8.1,5l4.6-0.7v0.7l8.1-0.2
		l0.3,2.8h2l2.4,8.4l-10.6,8.2c0,0-2.4,2.1-7.8,2.2l-15.5-6.1L19.4,10.9z"/>
	<g>
		<path class="st2" d="M24.9,7c0,0,3.1-1.2,3.3-1.4c0.3-0.3,3.9-1.7,6.5,0.6c0,0,1.8,1.8,2.4,3.9l1.1,2.2l0.6,1c0,0,0.2,0.4,0,0.5
			s-1.3-1.7-1.3-1.7l-0.5-0.8c0,0-0.5-0.6-1.8-0.3c-1.3,0.3-3.3,0.5-4.8,0.2C28.9,10.9,25.6,8,24.9,7z"/>
		<g>
			<g>
				<g>
					<path class="st3" d="M30.7,11.1C29.3,10.9,25.9,8,25.2,7c0,0,3.1-1.2,3.3-1.4c0.1-0.1,1.3-0.6,2.8-0.7c-1.6,0-3,0.5-3.2,0.7
						C27.9,5.8,24.9,7,24.9,7c0.8,1.1,4.1,3.9,5.5,4.1c0.5,0.1,1,0.1,1.6,0.1C31.5,11.2,31.1,11.2,30.7,11.1z"/>
				</g>
			</g>
		</g>
		<path class="st3" d="M27.6,7.8c0,0,1.4-0.7,2.2,0c1.5,1.4,4.8,2.1,5.4,2c0,0-3.3,0.7-4.2,0.2C29.7,9.3,29,8.4,27.6,7.8z"/>
	</g>
	<polygon class="st4" points="20.5,11.9 22.3,24 24.9,23.8 24.5,18.7 27.1,18.4 26.7,16.2 24.1,16.5 23.9,14.3 27.1,13.7 26.6,10.9 
			"/>
	<polygon class="st4" points="34,13 35.2,22.8 37.7,22.5 37.3,17.6 41.3,22.1 43.1,21.9 41.7,10 39,10.2 39.6,15.3 36.5,12.4 	"/>
	<g>
		<polygon class="st5" points="36.5,12.7 39.6,15.5 39.5,15.2 36.5,12.4 34,13 34,13.2 		"/>
		<polygon class="st5" points="41.7,10.2 43.1,21.9 43.1,21.9 41.7,10 39,10.2 39,10.5 		"/>
		<polygon class="st5" points="37.3,17.8 37.6,22.5 37.7,22.5 37.3,17.8 		"/>
	</g>
	<polygon class="st4" points="42.3,10.4 42.7,13.1 44.3,13.1 45,21.4 48,21.4 47.7,12.9 49.8,12.7 49.4,9.8 	"/>
	<g>
		<polygon class="st5" points="42.6,10.7 44.8,10.4 49.4,9.8 42.3,10.4 42.7,13.1 42.9,13.1 		"/>
		<polygon class="st5" points="44.5,13.4 44.3,13.4 45,21.4 45.2,21.4 		"/>
	</g>
	<path class="st4" d="M30.9,12.3l-2.5,0.3l-1.1,11l2-0.1l0.5-2.9l1.5-0.2l1.2,2.7l2.1-0.3L30.9,12.3z M29.7,18.7l0.3-1.9h0.5
		l0.7,1.7L29.7,18.7z"/>
	<g>
		<g>
			<polygon class="st5" points="28.4,12.7 30.9,12.3 30.9,12.3 28.4,12.6 27.3,23.6 27.7,23.6 			"/>
			<polygon class="st5" points="32.9,23.1 31.6,20.4 31.3,20.4 32.5,23.1 34.6,22.8 34.6,22.8 			"/>
		</g>
	</g>
	<path class="st4" d="M52.2,13.1l-3.4,0.5l0.1,7.5l1.8-0.2l0.1-1.9l1-0.1l0.8,1.6l1.9-0.1L52.2,13.1z M51.4,17.4
		c-0.6,0-0.8-0.3-0.9-0.7l1.5-0.2C51.9,16.6,52,17.4,51.4,17.4z"/>
	<g>
		<g>
			<polygon class="st6" points="49.2,13.8 52.3,13.4 52.2,13.1 48.8,13.6 48.9,21.1 49,21.1 			"/>
			<path class="st6" d="M52.2,16.9l-0.4,0c-0.1,0.2-0.2,0.5-0.5,0.5c-0.2,0-0.3,0-0.4-0.1c0.1,0.2,0.3,0.4,0.7,0.4
				C52.3,17.7,52.2,16.9,52.2,16.9z"/>
			<polygon class="st6" points="52,19.2 52,19.2 52.6,20.4 52.6,20.4 			"/>
		</g>
	</g>
	<g>
		<polygon class="st5" points="21.1,16 22.3,24 22.9,24 21.4,16.3 		"/>
	</g>
	<g>
		<path class="st1" d="M55.8,19.4l-0.2,0l0-0.1l0.5-0.1l0,0.1L55.8,19.4L56,20l-0.1,0L55.8,19.4z"/>
		<path class="st1" d="M56.8,19.5c0-0.1,0-0.2-0.1-0.3l0,0c0,0.1,0,0.2,0,0.3l-0.1,0.3l-0.1,0l-0.2-0.3c0-0.1-0.1-0.2-0.1-0.2l0,0
			c0,0.1,0,0.2,0,0.3l0,0.3l-0.1,0l-0.1-0.7l0.1,0l0.2,0.3c0,0.1,0.1,0.1,0.1,0.2l0,0c0-0.1,0-0.1,0-0.2l0.1-0.3l0.1,0l0.2,0.6
			l-0.1,0L56.8,19.5z"/>
	</g>
</g>
</svg>
