<?xml version="1.0" encoding="utf-8"?>
<!-- Generator: Adobe Illustrator 22.1.0, SVG Export Plug-In . SVG Version: 6.00 Build 0)  -->
<svg version="1.1" id="Слой_1" xmlns="http://www.w3.org/2000/svg" xmlns:xlink="http://www.w3.org/1999/xlink" x="0px" y="0px"
	 viewBox="0 0 4.6 7.2" style="enable-background:new 0 0 4.6 7.2;" xml:space="preserve">
<style type="text/css">
	.st0{display:none;fill:#D6D5D7;}
	.st1{display:none;}
	.st2{display:inline;}
	.st3{fill:#5E6566;}
	.st4{fill:none;stroke:#5E6566;stroke-width:0.25;stroke-miterlimit:10;}
	.st5{display:inline;fill-rule:evenodd;clip-rule:evenodd;fill:#CECECF;}
	.st6{display:inline;fill-rule:evenodd;clip-rule:evenodd;fill:#FFFFFF;}
	.st7{display:inline;fill:#FFFFFF;}
	.st8{fill:#D6D5D7;}
	.st9{display:none;fill:#FFFFFF;}
	.st10{fill:#FFFFFF;}
</style>
<g>
	<rect x="-334.8" y="-13.6" class="st0" width="678.2" height="37.9"/>
	
		<text transform="matrix(1 0 0 1 5.9329 7.0596)" style="display:none;fill:#5E6566; font-family:'Lato-Regular'; font-size:5.0859px;">Минск, ул. Ленинградская 18, оф. 7</text>
	<g class="st1">
		
			<text transform="matrix(1 0 0 1 -66.9006 7.3936)" style="display:inline;fill:#5E6566; font-family:'Lato-Regular'; font-size:5.0859px;">2017-2018 LeoBurnett Kryn</text>
		<g class="st2">
			<g>
				<path class="st3" d="M-69.7,6.4C-69.7,6.4-69.7,6.4-69.7,6.4l0.2,0.2c-0.1,0.1-0.3,0.2-0.4,0.3C-70.1,7-70.3,7-70.5,7
					c-0.2,0-0.4,0-0.5-0.1s-0.3-0.2-0.4-0.3c-0.1-0.1-0.2-0.3-0.3-0.4c-0.1-0.2-0.1-0.4-0.1-0.6s0-0.4,0.1-0.6
					c0.1-0.2,0.2-0.3,0.3-0.4c0.1-0.1,0.3-0.2,0.4-0.3c0.2-0.1,0.3-0.1,0.5-0.1c0.2,0,0.4,0,0.5,0.1c0.2,0.1,0.3,0.1,0.4,0.3
					l-0.1,0.2c0,0,0,0,0,0c0,0,0,0,0,0c0,0-0.1,0-0.1,0c0,0-0.1-0.1-0.1-0.1c-0.1,0-0.1-0.1-0.2-0.1s-0.2,0-0.3,0
					c-0.1,0-0.3,0-0.4,0.1c-0.1,0-0.2,0.1-0.3,0.2s-0.2,0.2-0.2,0.3c0,0.1-0.1,0.3-0.1,0.5c0,0.2,0,0.3,0.1,0.5
					c0,0.1,0.1,0.2,0.2,0.3c0.1,0.1,0.2,0.2,0.3,0.2s0.2,0.1,0.4,0.1c0.1,0,0.2,0,0.2,0c0.1,0,0.1,0,0.2,0c0.1,0,0.1,0,0.2-0.1
					C-69.9,6.5-69.8,6.5-69.7,6.4C-69.8,6.4-69.7,6.4-69.7,6.4z"/>
			</g>
			<circle class="st4" cx="-70.5" cy="5.6" r="2.3"/>
		</g>
	</g>
	<g class="st1">
		<g class="st2">
			<g id="XMLID_207_">
				<path id="XMLID_215_" class="st3" d="M-94.5,7.6V2.4h0.5V5l1.9-2.6h0.5l-1.5,2.1l1.6,3.1H-92l-1.4-2.7l-0.6,0.8v2H-94.5z"/>
				<path id="XMLID_212_" class="st3" d="M-89.9,5.2v2.5h-0.5V2.4h1c1,0,1.6,0.3,1.6,1.3c0,0.5-0.2,1.1-0.8,1.2v0
					c0.6,0.2,0.7,0.6,0.7,1.3c0,0.3,0,1.2,0.2,1.3v0.1h-0.5c-0.2-0.4-0.2-1.3-0.2-1.7c0-0.7-0.6-0.7-1.2-0.7H-89.9z M-89.9,4.8h0.8
					c0.2,0,0.9-0.1,0.9-1c0-0.8-0.3-1-1.1-1h-0.7V4.8z"/>
				<path id="XMLID_210_" class="st3" d="M-83.9,2.4h0.5l-1.4,3v2.2h-0.5V5.4l-1.4-3h0.5l1.1,2.5L-83.9,2.4z"/>
				<path id="XMLID_208_" class="st3" d="M-79.6,6.9L-79.6,6.9l0-4.5h0.5v5.2h-0.5l-1.9-4.5h0v4.5h-0.5V2.4h0.6L-79.6,6.9z"/>
			</g>
			<g id="XMLID_190_">
				<g id="XMLID_192_">
					<path id="XMLID_193_" class="st3" d="M-121.7,6.6c-0.1,0-0.2-0.2-0.2-0.5c0-0.2,0.3-0.5-0.3-0.7c-0.6-0.1-1.2,0.8-1.5,0.7
						c-0.3-0.1,0.2-0.8-0.2-0.9c-0.4,0-1,0.4-1.4,0.6c-0.4,0.2-1.5,0.7-1.8,0.6c-0.3-0.1-0.2-0.4-0.2-0.5c0-0.1,0.1,0.1,0.1-0.3
						c0-0.4-0.4-0.5-0.6-0.5c-0.2,0-0.3-0.2-0.4,0.1c0,0.2-0.1,0.2-0.2,0.3c-0.1,0.1-0.6,0.5-0.9,0.7c-0.3,0.2-1.2,0.7-1.6,0.6
						c-0.4-0.1-0.5-0.4-0.3-1c0.3-0.5-0.3-0.6-0.8,0c-0.2,0.2-0.9,0.4-1.4,0.6c-0.4,0.2-0.7,0-0.3-0.4c0.1-0.1,0.5-0.5,0.6-0.6
						c0.1-0.2,0.1-0.5-0.1-0.5c-0.3-0.1-0.3,0-0.5,0.1c-0.2,0.1-0.4,0.1-0.5,0.1c-0.2,0-1.4,0-1.7,0c-0.3,0-0.3-0.3-0.3-0.4
						c0-0.1,0.2-0.4,0-1c-0.2-0.6,0.2-0.5,0.4-0.7c0.2-0.1,0.8-0.4,0.8-1.1c0-0.7-0.4-1.4-0.9-1.5c-0.7,0-1.4,0.5-1.8,0.7
						c-0.4,0.3-1.4,0.9-1.7,1.2c-0.3,0-1,0-1.1,0.1c-0.1,0.1-0.2,0.5,0,0.5c0.2,0,0.1,0.3,0,0.4c-0.1,0.1-0.5,0.6-0.8,0.9
						c-0.3,0.3-0.9,1.1-0.9,1.3c-0.1,0.2,0,0.8,0.3,0.9c0.4,0,0.5-0.4,0.9-0.4c0.3,0.1,0.1,1.1,1.3,1.2c0.6,0.1,1.4-0.3,1.8-0.6
						c0.4-0.3,1.3-0.9,1.6-1.3c0.5,0,1.1,0,1.4,0c0.3,0,0.9-0.1,0.9,0.1c0,0.2-1,1-0.9,1.1c0,0.1,0,0.4,0.5,0.4
						c0.7,0,1.6-0.9,2.1-0.8c0.7,0-0.4,0.9,1.4,0.9c1.8,0,2.6-1.5,3-1.5c0.7,0-0.4,1.1,0.6,1.1c1.2,0.1,2.5-1.1,2.8-1.1
						c0.3,0,0,0.5,0,0.6c-0.1,0.2,0,0.5,0.3,0.5c0.3,0,1.5-1.1,1.7-1c0.2,0,0.1,0.3,0.1,0.6c0,0.3,0.2,0.3,0.4,0.4
						c0.2,0.1,0.2-0.1,0.4-0.2C-121.6,6.7-121.6,6.5-121.7,6.6z M-137.8,6c-0.3,0.4-1.5,1-2,1c-0.5,0-1-0.8-0.6-1.5
						c0.5,0,0.9,0,1.1,0c0.4,0,1.2,0.1,1.5,0.1C-137.4,5.7-137.5,5.7-137.8,6z M-136.8,4.5c0,0.3-0.2,0.6-0.4,0.8
						c-0.3,0-1.2-0.2-1.6-0.2c-0.5,0-0.9,0-1.2,0c-0.2,0-0.3-0.2-0.2-0.4c0.1-0.2,0.7-0.9,0.9-1.1c0.3,0,0.5,0,0.8,0.1
						c0.4,0,0.9,0,1.1,0C-137.1,3.9-136.7,4.1-136.8,4.5z M-137.4,3c-2.1-0.1-0.5-0.6,0.2-1c0.3-0.2,0.7-0.6,0.9-0.6
						c0.2,0,0.4,0.1,0.4,0.8C-135.9,3-137,3-137.4,3z M-145.6,4.8c-0.5-0.3-0.4-0.2-0.5,0c-0.2,0.2-0.4,0.4-0.6,0.5
						c-0.2,0.1-1.1,0.4-1.7,0.3c-0.5,0-0.8-0.1-0.5-0.4c0.4-0.3,0.4-1-0.2-1c-0.6,0-1.5,0.4-1.7,0.9c-0.1,0.2-0.1,0.4-0.5,0.6
						c-0.5,0.2-1,0.4-1.3,0.4c-0.3-0.1-0.6,0-0.5-0.5c0.1-0.5,0.2-0.5,0.4-1.1c0.3-0.2,1-1.1,1.3-1.3c0.5-0.1,2.4-0.5,3.2-1
						c1.1-0.7,2.6-2.2,1.6-3c-0.7-0.6-2.3,0.5-2.6,0.9c-0.3,0.4-2.2,2.3-2.5,2.5c-0.4-0.2-1-0.2-1.3-0.7c-0.3-0.5-0.5-0.7-0.7-0.5
						c-0.2,0.1-0.1,0.4,0,0.6c0.1,0.3,0.4,0.8,1.1,1c0.7,0.2,0.3,0.3,0.2,0.5c-0.1,0.1-1.7,1.6-2.4,2.1c-0.7,0.6-2,1.2-1.6,1.7
						c0.1,0.3,0.6-0.2,0.8-0.2c0.1,0,0.3,0,0.4-0.1c0.1-0.1,0.5-0.6,0.8-0.6c0.3,0,0.5,0.4,0.8,0.5c0.5,0.1,2.4-0.2,2.7-0.5
						c0.2,0,0.7,0.1,0.9,0.1c0.3,0,1.4-0.1,1.7-0.2c0.3-0.1,0.4,0,0.3,0.2c-0.1,0.1-0.5,0.8-0.1,1.1c0.4,0.4,1.7,0,2.2-0.3
						c0.5-0.3,1.1-0.9,1.1-1.2C-144.6,5.6-145.1,5.1-145.6,4.8z M-150.3,2.2c0.3-0.5,0.4-0.5,0.6-0.8c0.3-0.4,1.5-1.9,2.6-1.9
						c0.6,0,0.5,0.6,0.4,0.9c-0.2,0.3-1.1,1.3-1.7,1.6c-0.6,0.3-1.1,0.5-1.4,0.5C-150.1,2.5-150.6,2.8-150.3,2.2z M-149.3,5
						c0,0-0.3,0.2-0.4,0.2c-0.2,0-0.3,0.1-0.3,0c-0.1,0-0.2,0-0.1-0.1c0.1-0.1,0.1-0.1,0.2-0.1c0.1-0.1,0.4-0.3,0.7-0.3
						C-149.2,4.9-149.3,5-149.3,5z M-146.2,6.8c-0.6,0.1-0.5,0.3-0.6,0.3c-0.2,0-0.8-0.1-0.5-0.5c0.4-0.4,1.2-1.4,1.6-1.4
						c0.4,0,0.5,0.4,0.6,0.7C-145.1,6.2-145.5,6.7-146.2,6.8z M-104.8,2.8c-0.4,0-1.9-0.1-2.6-0.1c-0.8,0-1.7-0.2-2.4-0.2
						c-0.3,0-1,0.1-1.3-0.1c-0.3-0.2-1.5-0.3-1.9-0.3c-0.3,0-1.1-0.2-1.6-0.2c-0.5,0-0.7-0.4-1.6-0.4c-0.7,0-0.2,0.7,0.3,0.8
						c0.5,0.1,0.5,1,0.6,1.8c0.2,0.9-0.2,1.2-0.4,1.4c-0.2,0.2-0.5,0.6-0.8,0.4c-0.3-0.2-0.1-0.4,0.4-1.1c0.5-0.7-0.3-0.8-0.6-0.5
						c-0.3,0.3-0.5,0.7-1,0.9c-0.4,0.3-0.7,0.6-1.5,0.9c-0.8,0.2-0.7-0.2,0.1-0.7c0.4-0.3,0.2-0.8-0.4-0.7c-0.6,0-0.6,0.2-1.3,0.5
						c-0.4,0.2-0.6,0.4-0.6,0.7c0,0.1,0.1,0.3,0.1,0.3c0,0-0.1,0.1-0.1,0.1c0,0.1,0.2,0.1,0.2,0.1c0.1,0.2,0.3,0.4,0.7,0.4
						c0.3,0,1.2-0.3,2.2-0.9c1-0.5,0.8-0.2,1,0.1c0.2,0.3,0.4,0.3,0.8,0.2c0.5-0.1,0.3,0.1,0.2,0.3c-0.1,0.2-0.1,0.3,0.3,0.6
						c0.4,0.3,0.4-0.2,0.5-0.5c0.1-0.3,0.9-1.2,1.1-1.5c0.2-0.3,0.7-0.4,0.9-0.5c0.2-0.2,0.3-0.5,0.1-0.9c-0.2-0.3-0.7,0.2-1,0.5
						c-0.3,0.3-0.4,0-0.4-0.3c0-0.3-0.1-1-0.4-1.6c-0.2-0.6,0.3-0.5,0.5-0.4c0.2,0.1,0.7,0.1,1,0.2c0.3,0.1,1.4,0.1,1.9,0.2
						c0.5,0.1,1,0.3,1.7,0.2l2.1,0.2c0.2,0,0.3-0.1,0.4-0.1c0.2,0,0.3,0.3,0.5,0.3c0.2,0,0.2-0.1,0.4-0.1c0.2,0,1,0.1,1.3,0.2
						c0.3,0.1,0.4,0.3,0.6,0.3c0.3,0,0.4-0.2,0.6-0.6C-104.1,2.9-104.4,2.8-104.8,2.8z M-120,5.6c0,0-0.2,0.2-0.4,0.2
						c-0.2,0-0.3,0-0.4,0c-0.1,0,0-0.1,0.1-0.2c0.1-0.1,0.3-0.1,0.3-0.2c0.1,0,0.2-0.2,0.4-0.1C-119.8,5.5-120,5.6-120,5.6z"/>
				</g>
				<path id="XMLID_191_" class="st3" d="M-122,7c0,0,0.6-0.1,0.9-0.3l-0.1-0.2l0.1-0.1c0,0-0.3,0.3-0.6,0.2C-122.1,6.4-122,7-122,7
					z"/>
			</g>
			<g>
				<rect x="-99.4" y="0.7" class="st3" width="0.4" height="7.9"/>
			</g>
		</g>
	</g>
	<g class="st1">
		<circle class="st5" cx="204.9" cy="2.3" r="5.6"/>
		<path class="st6" d="M205.9,2.1h-1v3.1c-0.3,0-0.6,0-1,0V2.1h-0.8V1.2h0.8l0-0.6l0-0.1c0-0.1,0-0.2,0-0.3c0-0.1,0-0.2,0.1-0.2
			c0-0.1,0.1-0.1,0.1-0.2c0-0.1,0.1-0.1,0.1-0.2c0.1-0.1,0.1-0.1,0.2-0.1c0.1,0,0.1-0.1,0.2-0.1c0.1,0,0.1-0.1,0.2-0.1
			c0.1,0,0.2,0,0.3,0c0,0,0.1,0,0.1,0c0,0,0.1,0,0.1,0c0,0,0.1,0,0.1,0c0,0,0.1,0,0.1,0l0.1,0l0.1,0c0.1,0,0.1,0,0.2,0
			c0.1,0,0.1,0,0.2,0l0.1,0L206,0.2h-0.6c0,0-0.1,0-0.1,0c0,0-0.1,0-0.1,0c0,0-0.1,0-0.1,0c0,0-0.1,0-0.1,0.1c0,0,0,0-0.1,0.1
			c0,0,0,0.1,0,0.1c0,0,0,0.1,0,0.1c0,0,0,0.1,0,0.1v0.5l1,0C205.9,1.5,205.9,1.8,205.9,2.1"/>
		<circle class="st5" cx="219.1" cy="2.3" r="5.6"/>
		<path id="lozenge_10_" class="st7" d="M222.5,2.7c0,0-0.1-0.5-0.3-0.7c-0.3-0.3-0.5-0.3-0.7-0.3c-0.9-0.1-2.4-0.1-2.4-0.1h0
			c0,0-1.4,0-2.4,0.1c-0.1,0-0.4,0-0.7,0.3c-0.2,0.2-0.3,0.7-0.3,0.7s-0.1,0.5-0.1,1.1v0.5c0,0.5,0.1,1.1,0.1,1.1s0.1,0.5,0.3,0.7
			c0.3,0.3,0.6,0.3,0.7,0.3c0.5,0.1,2.3,0.1,2.3,0.1s1.4,0,2.4-0.1c0.1,0,0.4,0,0.7-0.3c0.2-0.2,0.3-0.7,0.3-0.7s0.1-0.5,0.1-1.1
			V3.7C222.5,3.2,222.5,2.7,222.5,2.7z"/>
		<path id="u_20_" class="st7" d="M220.9,1h-0.4V0.8c-0.2,0.2-0.3,0.3-0.4,0.3c-0.1,0-0.2-0.1-0.3-0.2c0-0.1,0-0.2,0-0.3v-1.8h0.4
			v1.7c0,0.1,0,0.1,0,0.2c0,0.1,0,0.1,0.1,0.1c0.1,0,0.2-0.1,0.2-0.2v-1.7h0.4V1z"/>
		<path id="o_10_" class="st7" d="M219.4-0.5c0-0.2,0-0.4-0.1-0.5c-0.1-0.2-0.3-0.2-0.5-0.2c-0.2,0-0.4,0.1-0.5,0.2
			c-0.1,0.1-0.1,0.3-0.1,0.5l0,0.8c0,0.2,0,0.4,0.1,0.5c0.1,0.2,0.3,0.2,0.5,0.2c0.2,0,0.4-0.1,0.5-0.2c0.1-0.1,0.1-0.3,0.1-0.5
			V-0.5z M219,0.4c0,0.2,0,0.3-0.2,0.3c-0.1,0-0.2-0.1-0.2-0.3v-0.9c0-0.2,0-0.3,0.2-0.3c0.1,0,0.2,0.1,0.2,0.3L219,0.4z"/>
		<path id="y_10_" class="st7" d="M217.7-0.2V1h-0.4v-1.2c0,0-0.5-1.5-0.6-1.8h0.5l0.3,1.2l0.3-1.2h0.5L217.7-0.2z"/>
		<g class="st2">
			<path id="e_10_" class="st8" d="M222,4.4l0-0.5c0-0.2,0-0.4-0.1-0.5c-0.1-0.2-0.3-0.2-0.5-0.2c-0.2,0-0.4,0.1-0.5,0.2
				c-0.1,0.1-0.1,0.3-0.1,0.5v0.8c0,0.2,0.1,0.4,0.1,0.5c0.1,0.2,0.3,0.2,0.5,0.2c0.2,0,0.4-0.1,0.5-0.2c0-0.1,0.1-0.2,0.1-0.2
				c0,0,0-0.1,0-0.3V4.7h-0.4c0,0.2,0,0.3,0,0.3c0,0.1-0.1,0.2-0.2,0.2c-0.1,0-0.2-0.1-0.2-0.3V4.4H222z M221.2,3.8
				c0-0.2,0.1-0.3,0.2-0.3c0.1,0,0.2,0.1,0.2,0.3v0.2l-0.4,0V3.8z"/>
			<path id="b_10_" class="st8" d="M220.1,3.2c-0.1,0-0.3,0.1-0.4,0.3l0-1h-0.4v3h0.4l0-0.2c0.1,0.2,0.3,0.3,0.4,0.3
				c0.2,0,0.3-0.1,0.3-0.3c0-0.1,0-0.2,0-0.4V3.9c0-0.2,0-0.4-0.1-0.4C220.4,3.3,220.3,3.2,220.1,3.2z M220,4.8
				c0,0.2-0.1,0.3-0.2,0.3c-0.1,0-0.1,0-0.2-0.1l0-1.4c0.1-0.1,0.1-0.1,0.2-0.1c0.1,0,0.2,0.1,0.2,0.3V4.8z"/>
			<path id="u_19_" class="st8" d="M218.9,5.5h-0.4V5.2c-0.2,0.2-0.3,0.3-0.4,0.3c-0.1,0-0.2-0.1-0.3-0.2c0-0.1,0-0.2,0-0.3V3.2h0.4
				v1.7c0,0.1,0,0.1,0,0.2c0,0.1,0,0.1,0.1,0.1c0.1,0,0.2-0.1,0.2-0.2V3.2h0.4V5.5z"/>
			<polygon id="T_10_" class="st8" points="217.3,5.5 216.8,5.5 216.8,2.9 216.4,2.9 216.4,2.4 217.8,2.4 217.8,2.9 217.3,2.9 			
				"/>
		</g>
	</g>
	<g class="st1">
		
			<text transform="matrix(1 0 0 1 152.3499 6.2979)" style="display:inline;fill:#5E6566; font-family:'Lato-Regular'; font-size:5.0859px;">hello@leoburnett.by</text>
	</g>
	<path id="_x30_1_8_" class="st9" d="M142.9,2.3v4.4h6.6V2.3H142.9z M146.2,5.3l-2.6-2.5h5.2L146.2,5.3z M144.8,4.5L143.4,6v-3
		L144.8,4.5z M145.1,4.8l1.1,1.1l1.1-1.1l1.5,1.5h-5.1L145.1,4.8z M147.7,4.5l1.5-1.5v3L147.7,4.5z"/>
	<g id="_x30_8_8_">
		<path class="st10" d="M2.3,7.2L2.2,7C2.1,6.9,0,4.4,0,3.1c0-1.3,1-2.3,2.3-2.3c1.3,0,2.3,1,2.3,2.3c0,1.2-2.1,3.7-2.2,3.8L2.3,7.2
			L2.3,7.2z M2.3,1.2c-1,0-1.9,0.9-1.9,1.9c0,0.8,1.2,2.6,1.9,3.4C3,5.7,4.2,4,4.2,3.1C4.2,2.1,3.4,1.2,2.3,1.2L2.3,1.2z"/>
		<path class="st10" d="M2.3,4.1c-0.5,0-0.9-0.4-0.9-0.9c0-0.5,0.4-0.9,0.9-0.9c0.5,0,0.9,0.4,0.9,0.9C3.3,3.7,2.8,4.1,2.3,4.1
			L2.3,4.1z M2.3,2.6C2,2.6,1.8,2.9,1.8,3.1c0,0.3,0.2,0.5,0.5,0.5c0.3,0,0.5-0.2,0.5-0.5C2.8,2.9,2.6,2.6,2.3,2.6L2.3,2.6z"/>
	</g>
	<path id="_x30_4_8_" class="st9" d="M92.3,1.7c0.1,0.1,0.2,0.2,0.2,0.3c0.1,0.5,0.1,1,0.1,1.3c0,0.1-0.1,0.3-0.3,0.4
		c-0.2,0.1-0.3,0-0.4,0.1c-0.1,0-0.2,0.2-0.2,0.4c0,0.3,0,0.5,0.1,0.9C92,5.6,92.1,5.8,92.3,6c0.1,0.1,0.1,0.1,0.2,0.1
		c0.1,0,0.2,0.1,0.2,0.1c0.1,0,0.2-0.1,0.4-0.2c0.1,0,0.2,0,0.3,0c0.1,0,0.1,0.1,0.2,0.1c0.2,0.3,0.4,0.7,0.6,1.1
		c0.2,0.3-0.1,0.5-0.2,0.6C94,8,93.6,8.2,93.1,8.2c-0.1,0-0.3,0-0.5-0.1c-0.5-0.3-1.2-1.1-1.7-2.6c-0.6-2-0.2-3.2,0.2-3.5
		c0.4-0.3,0.8-0.3,0.9-0.3C92.2,1.6,92.3,1.6,92.3,1.7L92.3,1.7z M92.6,1.3c-0.2-0.1-0.3-0.1-0.4-0.1c-0.2,0-0.7,0-1.2,0.4
		c-0.6,0.4-1.1,1.7-0.4,4c0.6,1.9,1.4,2.6,1.9,2.9c0.2,0.1,0.5,0.2,0.7,0.2c0.6,0,1-0.2,1.2-0.3c0.4-0.3,0.5-0.7,0.3-1.1
		c0-0.1-0.1-0.1-0.1-0.2C94.3,6.6,94.1,6.2,94,6c-0.1-0.1-0.2-0.2-0.3-0.3c-0.2-0.1-0.4-0.1-0.6-0.1c-0.1,0-0.2,0.1-0.3,0.1
		c0,0,0,0,0,0c0,0,0,0,0,0c0,0,0,0,0,0c-0.1-0.2-0.2-0.3-0.3-0.7c-0.1-0.4-0.1-0.6-0.1-0.8c0,0,0,0,0,0c0,0,0,0,0.1,0
		c0.1,0,0.2,0,0.3-0.1c0.4-0.1,0.6-0.5,0.6-0.8c0-0.3,0-0.7-0.1-1.1C93,2.1,93,2,93,2C93,1.7,92.8,1.4,92.6,1.3L92.6,1.3z"/>
	<g class="st1">
		
			<text transform="matrix(1 0 0 1 94.9349 6.7256)" style="display:inline;fill:#5E6566; font-family:'Lato-Regular'; font-size:5.0859px;">+ 375 17 327 85 01</text>
	</g>
</g>
</svg>
