<?xml version="1.0" encoding="utf-8"?>
<!-- Generator: Adobe Illustrator 22.1.0, SVG Export Plug-In . SVG Version: 6.00 Build 0)  -->
<svg version="1.1" id="Слой_1" xmlns="http://www.w3.org/2000/svg" xmlns:xlink="http://www.w3.org/1999/xlink" x="0px" y="0px"
	 viewBox="0 0 11.2 11.2" style="enable-background:new 0 0 11.2 11.2;" xml:space="preserve">
<style type="text/css">
	.st0{display:none;fill:#D6D5D7;}
	.st1{display:none;}
	.st2{display:inline;}
	.st3{fill:#5E6566;}
	.st4{fill:none;stroke:#5E6566;stroke-width:0.25;stroke-miterlimit:10;}
	.st5{fill-rule:evenodd;clip-rule:evenodd;fill:#CECECF;}
	.st6{fill-rule:evenodd;clip-rule:evenodd;fill:#FFFFFF;}
	.st7{display:none;fill:#FFFFFF;}
	.st8{display:inline;fill:#FFFFFF;}
</style>
<g>
	<rect x="-534.1" y="-10.3" class="st0" width="678.2" height="37.9"/>
	
		<text transform="matrix(1 0 0 1 -193.377 10.409)" style="display:none;fill:#5E6566; font-family:'Lato-Regular'; font-size:5.0859px;">Минск, ул. Ленинградская 18, оф. 7</text>
	<g class="st1">
		
			<text transform="matrix(1 0 0 1 -266.2104 10.7423)" style="display:inline;fill:#5E6566; font-family:'Lato-Regular'; font-size:5.0859px;">2017-2018 LeoBurnett Kryn</text>
		<g class="st2">
			<g>
				<path class="st3" d="M-269,9.8C-269,9.8-269,9.8-269,9.8l0.2,0.2c-0.1,0.1-0.3,0.2-0.4,0.3c-0.2,0.1-0.4,0.1-0.6,0.1
					c-0.2,0-0.4,0-0.5-0.1s-0.3-0.2-0.4-0.3c-0.1-0.1-0.2-0.3-0.3-0.4c-0.1-0.2-0.1-0.4-0.1-0.6s0-0.4,0.1-0.6
					c0.1-0.2,0.2-0.3,0.3-0.4c0.1-0.1,0.3-0.2,0.4-0.3c0.2-0.1,0.3-0.1,0.5-0.1c0.2,0,0.4,0,0.5,0.1c0.2,0.1,0.3,0.1,0.4,0.3
					l-0.1,0.2c0,0,0,0,0,0c0,0,0,0,0,0c0,0-0.1,0-0.1,0c0,0-0.1-0.1-0.1-0.1c-0.1,0-0.1-0.1-0.2-0.1s-0.2,0-0.3,0
					c-0.1,0-0.3,0-0.4,0.1c-0.1,0-0.2,0.1-0.3,0.2s-0.2,0.2-0.2,0.3c0,0.1-0.1,0.3-0.1,0.5c0,0.2,0,0.3,0.1,0.5
					c0,0.1,0.1,0.2,0.2,0.3c0.1,0.1,0.2,0.2,0.3,0.2s0.2,0.1,0.4,0.1c0.1,0,0.2,0,0.2,0c0.1,0,0.1,0,0.2,0c0.1,0,0.1,0,0.2-0.1
					C-269.2,9.9-269.1,9.9-269,9.8C-269.1,9.8-269,9.8-269,9.8z"/>
			</g>
			<circle class="st4" cx="-269.8" cy="9" r="2.3"/>
		</g>
	</g>
	<g class="st1">
		<g class="st2">
			<g id="XMLID_207_">
				<path id="XMLID_215_" class="st3" d="M-293.8,11V5.8h0.5v2.6l1.9-2.6h0.5l-1.5,2.1l1.6,3.1h-0.5l-1.4-2.7l-0.6,0.8v2H-293.8z"/>
				<path id="XMLID_212_" class="st3" d="M-289.2,8.5V11h-0.5V5.8h1c1,0,1.6,0.3,1.6,1.3c0,0.5-0.2,1.1-0.8,1.2v0
					c0.6,0.2,0.7,0.6,0.7,1.3c0,0.3,0,1.2,0.2,1.3V11h-0.5c-0.2-0.4-0.2-1.3-0.2-1.7c0-0.7-0.6-0.7-1.2-0.7H-289.2z M-289.2,8.1h0.8
					c0.2,0,0.9-0.1,0.9-1c0-0.8-0.3-1-1.1-1h-0.7V8.1z"/>
				<path id="XMLID_210_" class="st3" d="M-283.2,5.8h0.5l-1.4,3V11h-0.5V8.8l-1.4-3h0.5l1.1,2.5L-283.2,5.8z"/>
				<path id="XMLID_208_" class="st3" d="M-279,10.3L-279,10.3l0-4.5h0.5V11h-0.5l-1.9-4.5h0V11h-0.5V5.8h0.6L-279,10.3z"/>
			</g>
			<g id="XMLID_190_">
				<g id="XMLID_192_">
					<path id="XMLID_193_" class="st3" d="M-321.1,9.9c-0.1,0-0.2-0.2-0.2-0.5c0-0.2,0.3-0.5-0.3-0.7c-0.6-0.1-1.2,0.8-1.5,0.7
						c-0.3-0.1,0.2-0.8-0.2-0.9c-0.4,0-1,0.4-1.4,0.6c-0.4,0.2-1.5,0.7-1.8,0.6c-0.3-0.1-0.2-0.4-0.2-0.5c0-0.1,0.1,0.1,0.1-0.3
						c0-0.4-0.4-0.5-0.6-0.5c-0.2,0-0.3-0.2-0.4,0.1c0,0.2-0.1,0.2-0.2,0.3c-0.1,0.1-0.6,0.5-0.9,0.7c-0.3,0.2-1.2,0.7-1.6,0.6
						c-0.4-0.1-0.5-0.4-0.3-1c0.3-0.5-0.3-0.6-0.8,0c-0.2,0.2-0.9,0.4-1.4,0.6c-0.4,0.2-0.7,0-0.3-0.4c0.1-0.1,0.5-0.5,0.6-0.6
						c0.1-0.2,0.1-0.5-0.1-0.5c-0.3-0.1-0.3,0-0.5,0.1c-0.2,0.1-0.4,0.1-0.5,0.1s-1.4,0-1.7,0c-0.3,0-0.3-0.3-0.3-0.4
						c0-0.1,0.2-0.4,0-1c-0.2-0.6,0.2-0.5,0.4-0.7c0.2-0.1,0.8-0.4,0.8-1.1c0-0.7-0.4-1.4-0.9-1.5c-0.7,0-1.4,0.5-1.8,0.7
						c-0.4,0.3-1.4,0.9-1.7,1.2c-0.3,0-1,0-1.1,0.1c-0.1,0.1-0.2,0.5,0,0.5c0.2,0,0.1,0.3,0,0.4c-0.1,0.1-0.5,0.6-0.8,0.9
						c-0.3,0.3-0.9,1.1-0.9,1.3c-0.1,0.2,0,0.8,0.3,0.9c0.4,0,0.5-0.4,0.9-0.4c0.3,0.1,0.1,1.1,1.3,1.2c0.6,0.1,1.4-0.3,1.8-0.6
						c0.4-0.3,1.3-0.9,1.6-1.3c0.5,0,1.1,0,1.4,0c0.3,0,0.9-0.1,0.9,0.1c0,0.2-1,1-0.9,1.1c0,0.1,0,0.4,0.5,0.4
						c0.7,0,1.6-0.9,2.1-0.8c0.7,0-0.4,0.9,1.4,0.9c1.8,0,2.6-1.5,3-1.5c0.7,0-0.4,1.1,0.6,1.1c1.2,0.1,2.5-1.1,2.8-1.1
						c0.3,0,0,0.5,0,0.6c-0.1,0.2,0,0.5,0.3,0.5c0.3,0,1.5-1.1,1.7-1c0.2,0,0.1,0.3,0.1,0.6c0,0.3,0.2,0.3,0.4,0.4
						c0.2,0.1,0.2-0.1,0.4-0.2C-320.9,10.1-320.9,9.9-321.1,9.9z M-337.2,9.4c-0.3,0.4-1.5,1-2,1c-0.5,0-1-0.8-0.6-1.5
						c0.5,0,0.9,0,1.1,0c0.4,0,1.2,0.1,1.5,0.1C-336.7,9.1-336.8,9-337.2,9.4z M-336.1,7.8c0,0.3-0.2,0.6-0.4,0.8
						c-0.3,0-1.2-0.2-1.6-0.2c-0.5,0-0.9,0-1.2,0c-0.2,0-0.3-0.2-0.2-0.4c0.1-0.2,0.7-0.9,0.9-1.1c0.3,0,0.5,0,0.8,0.1
						c0.4,0,0.9,0,1.1,0C-336.4,7.2-336,7.5-336.1,7.8z M-336.7,6.3c-2.1-0.1-0.5-0.6,0.2-1c0.3-0.2,0.7-0.6,0.9-0.6
						c0.2,0,0.4,0.1,0.4,0.8C-335.2,6.3-336.3,6.3-336.7,6.3z M-344.9,8.2c-0.5-0.3-0.4-0.2-0.5,0c-0.2,0.2-0.4,0.4-0.6,0.5
						c-0.2,0.1-1.1,0.4-1.7,0.3c-0.5,0-0.8-0.1-0.5-0.4c0.4-0.3,0.4-1-0.2-1c-0.6,0-1.5,0.4-1.7,0.9c-0.1,0.2-0.1,0.4-0.5,0.6
						c-0.5,0.2-1,0.4-1.3,0.4c-0.3-0.1-0.6,0-0.5-0.5c0.1-0.5,0.2-0.5,0.4-1.1c0.3-0.2,1-1.1,1.3-1.3c0.5-0.1,2.4-0.5,3.2-1
						c1.1-0.7,2.6-2.2,1.6-3c-0.7-0.6-2.3,0.5-2.6,0.9c-0.3,0.4-2.2,2.3-2.5,2.5c-0.4-0.2-1-0.2-1.3-0.7c-0.3-0.5-0.5-0.7-0.7-0.5
						c-0.2,0.1-0.1,0.4,0,0.6c0.1,0.3,0.4,0.8,1.1,1c0.7,0.2,0.3,0.3,0.2,0.5c-0.1,0.1-1.7,1.6-2.4,2.1c-0.7,0.6-2,1.2-1.6,1.7
						c0.1,0.3,0.6-0.2,0.8-0.2c0.1,0,0.3,0,0.4-0.1c0.1-0.1,0.5-0.6,0.8-0.6c0.3,0,0.5,0.4,0.8,0.5c0.5,0.1,2.4-0.2,2.7-0.5
						c0.2,0,0.7,0.1,0.9,0.1c0.3,0,1.4-0.1,1.7-0.2c0.3-0.1,0.4,0,0.3,0.2c-0.1,0.1-0.5,0.8-0.1,1.1c0.4,0.4,1.7,0,2.2-0.3
						c0.5-0.3,1.1-0.9,1.1-1.2C-343.9,9-344.4,8.4-344.9,8.2z M-349.6,5.6c0.3-0.5,0.4-0.5,0.6-0.8c0.3-0.4,1.5-1.9,2.6-1.9
						c0.6,0,0.5,0.6,0.4,0.9c-0.2,0.3-1.1,1.3-1.7,1.6c-0.6,0.3-1.1,0.5-1.4,0.5C-349.5,5.9-349.9,6.1-349.6,5.6z M-348.6,8.4
						c0,0-0.3,0.2-0.4,0.2c-0.2,0-0.3,0.1-0.3,0c-0.1,0-0.2,0-0.1-0.1c0.1-0.1,0.1-0.1,0.2-0.1c0.1-0.1,0.4-0.3,0.7-0.3
						C-348.5,8.2-348.6,8.3-348.6,8.4z M-345.5,10.2c-0.6,0.1-0.5,0.3-0.6,0.3c-0.2,0-0.8-0.1-0.5-0.5c0.4-0.4,1.2-1.4,1.6-1.4
						c0.4,0,0.5,0.4,0.6,0.7C-344.4,9.6-344.8,10.1-345.5,10.2z M-304.1,6.2c-0.4,0-1.9-0.1-2.6-0.1c-0.8,0-1.7-0.2-2.4-0.2
						c-0.3,0-1,0.1-1.3-0.1c-0.3-0.2-1.5-0.3-1.9-0.3c-0.3,0-1.1-0.2-1.6-0.2c-0.5,0-0.7-0.4-1.6-0.4c-0.7,0-0.2,0.7,0.3,0.8
						c0.5,0.1,0.5,1,0.6,1.8c0.2,0.9-0.2,1.2-0.4,1.4c-0.2,0.2-0.5,0.6-0.8,0.4c-0.3-0.2-0.1-0.4,0.4-1.1c0.5-0.7-0.3-0.8-0.6-0.5
						c-0.3,0.3-0.5,0.7-1,0.9c-0.4,0.3-0.7,0.6-1.5,0.9c-0.8,0.2-0.7-0.2,0.1-0.7c0.4-0.3,0.2-0.8-0.4-0.7c-0.6,0-0.6,0.2-1.3,0.5
						c-0.4,0.2-0.6,0.4-0.6,0.7c0,0.1,0.1,0.3,0.1,0.3c0,0-0.1,0.1-0.1,0.1c0,0.1,0.2,0.1,0.2,0.1c0.1,0.2,0.3,0.4,0.7,0.4
						c0.3,0,1.2-0.3,2.2-0.9c1-0.5,0.8-0.2,1,0.1c0.2,0.3,0.4,0.3,0.8,0.2c0.5-0.1,0.3,0.1,0.2,0.3c-0.1,0.2-0.1,0.3,0.3,0.6
						c0.4,0.3,0.4-0.2,0.5-0.5c0.1-0.3,0.9-1.2,1.1-1.5c0.2-0.3,0.7-0.4,0.9-0.5c0.2-0.2,0.3-0.5,0.1-0.9c-0.2-0.3-0.7,0.2-1,0.5
						c-0.3,0.3-0.4,0-0.4-0.3c0-0.3-0.1-1-0.4-1.6c-0.2-0.6,0.3-0.5,0.5-0.4c0.2,0.1,0.7,0.1,1,0.2c0.3,0.1,1.4,0.1,1.9,0.2
						c0.5,0.1,1,0.3,1.7,0.2l2.1,0.2c0.2,0,0.3-0.1,0.4-0.1c0.2,0,0.3,0.3,0.5,0.3c0.2,0,0.2-0.1,0.4-0.1c0.2,0,1,0.1,1.3,0.2
						c0.3,0.1,0.4,0.3,0.6,0.3s0.4-0.2,0.6-0.6C-303.4,6.3-303.7,6.2-304.1,6.2z M-319.3,9c0,0-0.2,0.2-0.4,0.2c-0.2,0-0.3,0-0.4,0
						s0-0.1,0.1-0.2c0.1-0.1,0.3-0.1,0.3-0.2c0.1,0,0.2-0.2,0.4-0.1C-319.1,8.8-319.3,8.9-319.3,9z"/>
				</g>
				<path id="XMLID_191_" class="st3" d="M-321.4,10.3c0,0,0.6-0.1,0.9-0.3l-0.1-0.2l0.1-0.1c0,0-0.3,0.3-0.6,0.2
					C-321.4,9.8-321.4,10.3-321.4,10.3z"/>
			</g>
			<g>
				<rect x="-298.7" y="4.1" class="st3" width="0.4" height="7.9"/>
			</g>
		</g>
	</g>
	<g>
		<circle class="st5" cx="5.6" cy="5.6" r="5.6"/>
		<path class="st6" d="M6.6,5.4h-1v3.1c-0.3,0-0.6,0-1,0V5.4H3.8V4.5h0.8l0-0.6l0-0.1c0-0.1,0-0.2,0-0.3c0-0.1,0-0.2,0.1-0.2
			c0-0.1,0.1-0.1,0.1-0.2c0-0.1,0.1-0.1,0.1-0.2C5,2.9,5.1,2.9,5.1,2.9c0.1,0,0.1-0.1,0.2-0.1c0.1,0,0.1-0.1,0.2-0.1
			c0.1,0,0.2,0,0.3,0c0,0,0.1,0,0.1,0c0,0,0.1,0,0.1,0c0,0,0.1,0,0.1,0c0,0,0.1,0,0.1,0l0.1,0l0.1,0c0.1,0,0.1,0,0.2,0
			c0.1,0,0.1,0,0.2,0l0.1,0L6.7,3.5H6.1c0,0-0.1,0-0.1,0c0,0-0.1,0-0.1,0c0,0-0.1,0-0.1,0c0,0-0.1,0-0.1,0.1c0,0,0,0-0.1,0.1
			c0,0,0,0.1,0,0.1c0,0,0,0.1,0,0.1c0,0,0,0.1,0,0.1v0.5l1,0C6.6,4.8,6.6,5.1,6.6,5.4"/>
	</g>
	<g class="st1">
		
			<text transform="matrix(1 0 0 1 -46.9605 9.6471)" style="display:inline;fill:#5E6566; font-family:'Lato-Regular'; font-size:5.0859px;">hello@leoburnett.by</text>
	</g>
	<path id="_x30_1_8_" class="st7" d="M-56.4,5.7v4.4h6.6V5.7H-56.4z M-53.1,8.7l-2.6-2.5h5.2L-53.1,8.7z M-54.5,7.9l-1.5,1.5v-3
		L-54.5,7.9z M-54.2,8.2l1.1,1.1l1.1-1.1l1.5,1.5h-5.1L-54.2,8.2z M-51.7,7.9l1.5-1.5v3L-51.7,7.9z"/>
	<g id="_x30_8_8_" class="st1">
		<path class="st8" d="M-197,10.5l-0.2-0.2c-0.1-0.1-2.2-2.6-2.2-3.8c0-1.3,1-2.3,2.3-2.3c1.3,0,2.3,1,2.3,2.3
			c0,1.2-2.1,3.7-2.2,3.8L-197,10.5L-197,10.5z M-197,4.6c-1,0-1.9,0.9-1.9,1.9c0,0.8,1.2,2.6,1.9,3.4c0.7-0.8,1.9-2.5,1.9-3.4
			C-195.1,5.4-195.9,4.6-197,4.6L-197,4.6z"/>
		<path class="st8" d="M-197,7.4c-0.5,0-0.9-0.4-0.9-0.9c0-0.5,0.4-0.9,0.9-0.9c0.5,0,0.9,0.4,0.9,0.9C-196.1,7-196.5,7.4-197,7.4
			L-197,7.4z M-197,6c-0.3,0-0.5,0.2-0.5,0.5c0,0.3,0.2,0.5,0.5,0.5c0.3,0,0.5-0.2,0.5-0.5C-196.5,6.2-196.7,6-197,6L-197,6z"/>
	</g>
	<path id="_x30_4_8_" class="st7" d="M-107,5c0.1,0.1,0.2,0.2,0.2,0.3c0.1,0.5,0.1,1,0.1,1.3c0,0.1-0.1,0.3-0.3,0.4
		c-0.2,0.1-0.3,0-0.4,0.1c-0.1,0-0.2,0.2-0.2,0.4c0,0.3,0,0.5,0.1,0.9c0.1,0.4,0.2,0.6,0.4,0.9c0.1,0.1,0.1,0.1,0.2,0.1
		c0.1,0,0.2,0.1,0.2,0.1c0.1,0,0.2-0.1,0.4-0.2c0.1,0,0.2,0,0.3,0c0.1,0,0.1,0.1,0.2,0.1c0.2,0.3,0.4,0.7,0.6,1.1
		c0.2,0.3-0.1,0.5-0.2,0.6c-0.1,0.1-0.4,0.2-0.9,0.2c-0.1,0-0.3,0-0.5-0.1c-0.5-0.3-1.2-1.1-1.7-2.6c-0.6-2-0.2-3.2,0.2-3.5
		c0.4-0.3,0.8-0.3,0.9-0.3C-107.1,5-107.1,5-107,5L-107,5z M-106.8,4.6c-0.2-0.1-0.3-0.1-0.4-0.1c-0.2,0-0.7,0-1.2,0.4
		c-0.6,0.4-1.1,1.7-0.4,4c0.6,1.9,1.4,2.6,1.9,2.9c0.2,0.1,0.5,0.2,0.7,0.2c0.6,0,1-0.2,1.2-0.3c0.4-0.3,0.5-0.7,0.3-1.1
		c0-0.1-0.1-0.1-0.1-0.2c-0.2-0.4-0.4-0.7-0.5-0.9c-0.1-0.1-0.2-0.2-0.3-0.3c-0.2-0.1-0.4-0.1-0.6-0.1c-0.1,0-0.2,0.1-0.3,0.1
		c0,0,0,0,0,0c0,0,0,0,0,0c0,0,0,0,0,0c-0.1-0.2-0.2-0.3-0.3-0.7c-0.1-0.4-0.1-0.6-0.1-0.8c0,0,0,0,0,0c0,0,0,0,0.1,0
		c0.1,0,0.2,0,0.3-0.1c0.4-0.1,0.6-0.5,0.6-0.8c0-0.3,0-0.7-0.1-1.1c0-0.1,0-0.1,0-0.2C-106.3,5-106.5,4.8-106.8,4.6L-106.8,4.6z"/>
	<g class="st1">
		
			<text transform="matrix(1 0 0 1 -104.3748 10.076)" style="display:inline;fill:#5E6566; font-family:'Lato-Regular'; font-size:5.0859px;">+ 375 17 327 85 01</text>
	</g>
</g>
</svg>
