<?xml version="1.0" encoding="utf-8"?>
<!-- Generator: Adobe Illustrator 22.1.0, SVG Export Plug-In . SVG Version: 6.00 Build 0)  -->
<svg version="1.1" id="Слой_1" xmlns="http://www.w3.org/2000/svg" xmlns:xlink="http://www.w3.org/1999/xlink" x="0px" y="0px"
	 viewBox="0 0 78.3 11.6" style="enable-background:new 0 0 78.3 11.6;" xml:space="preserve">
<style type="text/css">
	.st0{display:none;fill:#D6D5D7;}
	.st1{display:none;}
	.st2{display:inline;}
	.st3{fill:#5E6566;}
	.st4{fill:none;stroke:#5E6566;stroke-width:0.25;stroke-miterlimit:10;}
	.st5{display:inline;fill-rule:evenodd;clip-rule:evenodd;fill:#CECECF;}
	.st6{display:inline;fill-rule:evenodd;clip-rule:evenodd;fill:#FFFFFF;}
	.st7{display:inline;fill:#FFFFFF;}
	.st8{fill:#D6D5D7;}
	.st9{display:none;fill:#FFFFFF;}
</style>
<g>
	<rect x="-178.4" y="-11.7" class="st0" width="678.2" height="37.9"/>
	
		<text transform="matrix(1 0 0 1 162.2442 8.9346)" style="display:none;fill:#5E6566; font-family:'Lato-Regular'; font-size:5.0859px;">Минск, ул. Ленинградская 18, оф. 7</text>
	<g class="st1">
		
			<text transform="matrix(1 0 0 1 89.4107 9.2686)" style="display:inline;fill:#5E6566; font-family:'Lato-Regular'; font-size:5.0859px;">2017-2018 LeoBurnett Kryn</text>
		<g class="st2">
			<g>
				<path class="st3" d="M86.6,8.3C86.6,8.3,86.6,8.3,86.6,8.3l0.2,0.2c-0.1,0.1-0.3,0.2-0.4,0.3c-0.2,0.1-0.4,0.1-0.6,0.1
					c-0.2,0-0.4,0-0.5-0.1S85,8.6,84.8,8.5c-0.1-0.1-0.2-0.3-0.3-0.4c-0.1-0.2-0.1-0.4-0.1-0.6s0-0.4,0.1-0.6
					c0.1-0.2,0.2-0.3,0.3-0.4c0.1-0.1,0.3-0.2,0.4-0.3c0.2-0.1,0.3-0.1,0.5-0.1c0.2,0,0.4,0,0.5,0.1c0.2,0.1,0.3,0.1,0.4,0.3
					l-0.1,0.2c0,0,0,0,0,0c0,0,0,0,0,0c0,0-0.1,0-0.1,0c0,0-0.1-0.1-0.1-0.1c-0.1,0-0.1-0.1-0.2-0.1s-0.2,0-0.3,0
					c-0.1,0-0.3,0-0.4,0.1c-0.1,0-0.2,0.1-0.3,0.2S85,6.9,84.9,7c0,0.1-0.1,0.3-0.1,0.5c0,0.2,0,0.3,0.1,0.5c0,0.1,0.1,0.2,0.2,0.3
					c0.1,0.1,0.2,0.2,0.3,0.2s0.2,0.1,0.4,0.1c0.1,0,0.2,0,0.2,0c0.1,0,0.1,0,0.2,0c0.1,0,0.1,0,0.2-0.1C86.4,8.4,86.5,8.4,86.6,8.3
					C86.6,8.3,86.6,8.3,86.6,8.3z"/>
			</g>
			<circle class="st4" cx="85.8" cy="7.5" r="2.3"/>
		</g>
	</g>
	<g>
		<g>
			<g id="XMLID_207_">
				<path id="XMLID_215_" class="st3" d="M61.8,9.5V4.3h0.5v2.6l1.9-2.6h0.5l-1.5,2.1l1.6,3.1h-0.5l-1.4-2.7l-0.6,0.8v2H61.8z"/>
				<path id="XMLID_212_" class="st3" d="M66.4,7.1v2.5h-0.5V4.3h1c1,0,1.6,0.3,1.6,1.3c0,0.5-0.2,1.1-0.8,1.2v0
					c0.6,0.2,0.7,0.6,0.7,1.3c0,0.3,0,1.2,0.2,1.3v0.1h-0.5C68,9.1,68.1,8.2,68,7.8c0-0.7-0.6-0.7-1.2-0.7H66.4z M66.4,6.7h0.8
					c0.2,0,0.9-0.1,0.9-1c0-0.8-0.3-1-1.1-1h-0.7V6.7z"/>
				<path id="XMLID_210_" class="st3" d="M72.4,4.3h0.5l-1.4,3v2.2h-0.5V7.3l-1.4-3h0.5l1.1,2.5L72.4,4.3z"/>
				<path id="XMLID_208_" class="st3" d="M76.7,8.8L76.7,8.8l0-4.5h0.5v5.2h-0.5l-1.9-4.5h0v4.5h-0.5V4.3h0.6L76.7,8.8z"/>
			</g>
			<g id="XMLID_190_">
				<g id="XMLID_192_">
					<path id="XMLID_193_" class="st3" d="M34.6,8.4c-0.1,0-0.2-0.2-0.2-0.5c0-0.2,0.3-0.5-0.3-0.7c-0.6-0.1-1.2,0.8-1.5,0.7
						c-0.3-0.1,0.2-0.8-0.2-0.9c-0.4,0-1,0.4-1.4,0.6c-0.4,0.2-1.5,0.7-1.8,0.6C28.9,8.4,29,8,29,7.9c0-0.1,0.1,0.1,0.1-0.3
						c0-0.4-0.4-0.5-0.6-0.5c-0.2,0-0.3-0.2-0.4,0.1c0,0.2-0.1,0.2-0.2,0.3C27.8,7.6,27.3,8,27,8.2c-0.3,0.2-1.2,0.7-1.6,0.6
						c-0.4-0.1-0.5-0.4-0.3-1c0.3-0.5-0.3-0.6-0.8,0c-0.2,0.2-0.9,0.4-1.4,0.6c-0.4,0.2-0.7,0-0.3-0.4c0.1-0.1,0.5-0.5,0.6-0.6
						c0.1-0.2,0.1-0.5-0.1-0.5c-0.3-0.1-0.3,0-0.5,0.1c-0.2,0.1-0.4,0.1-0.5,0.1c-0.2,0-1.4,0-1.7,0C20,7.2,20,7,20,6.9
						c0-0.1,0.2-0.4,0-1c-0.2-0.6,0.2-0.5,0.4-0.7c0.2-0.1,0.8-0.4,0.8-1.1c0-0.7-0.4-1.4-0.9-1.5c-0.7,0-1.4,0.5-1.8,0.7
						c-0.4,0.3-1.4,0.9-1.7,1.2c-0.3,0-1,0-1.1,0.1c-0.1,0.1-0.2,0.5,0,0.5c0.2,0,0.1,0.3,0,0.4c-0.1,0.1-0.5,0.6-0.8,0.9
						c-0.3,0.3-0.9,1.1-0.9,1.3c-0.1,0.2,0,0.8,0.3,0.9c0.4,0,0.5-0.4,0.9-0.4c0.3,0.1,0.1,1.1,1.3,1.2c0.6,0.1,1.4-0.3,1.8-0.6
						c0.4-0.3,1.3-0.9,1.6-1.3c0.5,0,1.1,0,1.4,0c0.3,0,0.9-0.1,0.9,0.1c0,0.2-1,1-0.9,1.1c0,0.1,0,0.4,0.5,0.4
						c0.7,0,1.6-0.9,2.1-0.8c0.7,0-0.4,0.9,1.4,0.9c1.8,0,2.6-1.5,3-1.5c0.7,0-0.4,1.1,0.6,1.1c1.2,0.1,2.5-1.1,2.8-1.1
						c0.3,0,0,0.5,0,0.6c-0.1,0.2,0,0.5,0.3,0.5c0.3,0,1.5-1.1,1.7-1c0.2,0,0.1,0.3,0.1,0.6c0,0.3,0.2,0.3,0.4,0.4
						c0.2,0.1,0.2-0.1,0.4-0.2C34.7,8.6,34.7,8.4,34.6,8.4z M18.5,7.9c-0.3,0.4-1.5,1-2,1c-0.5,0-1-0.8-0.6-1.5c0.5,0,0.9,0,1.1,0
						c0.4,0,1.2,0.1,1.5,0.1C18.9,7.6,18.8,7.6,18.5,7.9z M19.5,6.3c0,0.3-0.2,0.6-0.4,0.8c-0.3,0-1.2-0.2-1.6-0.2
						c-0.5,0-0.9,0-1.2,0c-0.2,0-0.3-0.2-0.2-0.4c0.1-0.2,0.7-0.9,0.9-1.1c0.3,0,0.5,0,0.8,0.1c0.4,0,0.9,0,1.1,0
						C19.2,5.8,19.6,6,19.5,6.3z M18.9,4.8c-2.1-0.1-0.5-0.6,0.2-1c0.3-0.2,0.7-0.6,0.9-0.6c0.2,0,0.4,0.1,0.4,0.8
						C20.4,4.8,19.3,4.8,18.9,4.8z M10.8,6.7c-0.5-0.3-0.4-0.2-0.5,0C10,6.9,9.8,7.1,9.6,7.2C9.4,7.3,8.5,7.6,7.9,7.5
						c-0.5,0-0.8-0.1-0.5-0.4c0.4-0.3,0.4-1-0.2-1c-0.6,0-1.5,0.4-1.7,0.9C5.5,7.3,5.5,7.5,5.1,7.7C4.6,7.9,4.1,8.1,3.8,8
						C3.5,8,3.2,8,3.3,7.5C3.4,7.1,3.5,7,3.7,6.5C4,6.2,4.7,5.4,5,5.1c0.5-0.1,2.4-0.5,3.2-1c1.1-0.7,2.6-2.2,1.6-3
						C9.2,0.4,7.6,1.6,7.3,1.9C6.9,2.3,5,4.2,4.8,4.5c-0.4-0.2-1-0.2-1.3-0.7C3.2,3.2,3,3,2.7,3.2c-0.2,0.1-0.1,0.4,0,0.6
						c0.1,0.3,0.4,0.8,1.1,1C4.6,5.1,4.2,5.2,4,5.3C3.9,5.5,2.4,6.9,1.7,7.4C1,8-0.3,8.6,0.1,9.1c0.1,0.3,0.6-0.2,0.8-0.2
						c0.1,0,0.3,0,0.4-0.1C1.4,8.6,1.7,8.2,2,8.1c0.3,0,0.5,0.4,0.8,0.5c0.5,0.1,2.4-0.2,2.7-0.5c0.2,0,0.7,0.1,0.9,0.1
						c0.3,0,1.4-0.1,1.7-0.2c0.3-0.1,0.4,0,0.3,0.2C8.5,8.3,8,8.9,8.4,9.3c0.4,0.4,1.7,0,2.2-0.3c0.5-0.3,1.1-0.9,1.1-1.2
						C11.7,7.5,11.2,7,10.8,6.7z M6,4.1c0.3-0.5,0.4-0.5,0.6-0.8C6.9,3,8.1,1.5,9.2,1.4c0.6,0,0.5,0.6,0.4,0.9
						C9.4,2.6,8.5,3.6,7.9,3.9C7.2,4.2,6.7,4.4,6.5,4.4C6.2,4.4,5.7,4.6,6,4.1z M7,6.9c0,0-0.3,0.2-0.4,0.2c-0.2,0-0.3,0.1-0.3,0
						c-0.1,0-0.2,0-0.1-0.1C6.2,7,6.2,7,6.3,7c0.1-0.1,0.4-0.3,0.7-0.3C7.1,6.7,7.1,6.8,7,6.9z M10.1,8.7C9.5,8.8,9.7,9,9.5,9
						C9.3,9,8.7,8.9,9,8.5c0.4-0.4,1.2-1.4,1.6-1.4c0.4,0,0.5,0.4,0.6,0.7C11.2,8.1,10.8,8.6,10.1,8.7z M51.5,4.7
						c-0.4,0-1.9-0.1-2.6-0.1c-0.8,0-1.7-0.2-2.4-0.2c-0.3,0-1,0.1-1.3-0.1C44.8,4.2,43.6,4,43.2,4c-0.3,0-1.1-0.2-1.6-0.2
						c-0.5,0-0.7-0.4-1.6-0.4c-0.7,0-0.2,0.7,0.3,0.8c0.5,0.1,0.5,1,0.6,1.8c0.2,0.9-0.2,1.2-0.4,1.4c-0.2,0.2-0.5,0.6-0.8,0.4
						c-0.3-0.2-0.1-0.4,0.4-1.1c0.5-0.7-0.3-0.8-0.6-0.5c-0.3,0.3-0.5,0.7-1,0.9c-0.4,0.3-0.7,0.6-1.5,0.9c-0.8,0.2-0.7-0.2,0.1-0.7
						c0.4-0.3,0.2-0.8-0.4-0.7c-0.6,0-0.6,0.2-1.3,0.5c-0.4,0.2-0.6,0.4-0.6,0.7C34.9,8,35,8.1,35,8.2c0,0-0.1,0.1-0.1,0.1
						c0,0.1,0.2,0.1,0.2,0.1c0.1,0.2,0.3,0.4,0.7,0.4c0.3,0,1.2-0.3,2.2-0.9c1-0.5,0.8-0.2,1,0.1c0.2,0.3,0.4,0.3,0.8,0.2
						c0.5-0.1,0.3,0.1,0.2,0.3c-0.1,0.2-0.1,0.3,0.3,0.6c0.4,0.3,0.4-0.2,0.5-0.5c0.1-0.3,0.9-1.2,1.1-1.5C42,7.1,42.5,7,42.7,6.8
						C42.9,6.6,43,6.3,42.8,6c-0.2-0.3-0.7,0.2-1,0.5c-0.3,0.3-0.4,0-0.4-0.3c0-0.3-0.1-1-0.4-1.6c-0.2-0.6,0.3-0.5,0.5-0.4
						c0.2,0.1,0.7,0.1,1,0.2c0.3,0.1,1.4,0.1,1.9,0.2c0.5,0.1,1,0.3,1.7,0.2l2.1,0.2c0.2,0,0.3-0.1,0.4-0.1c0.2,0,0.3,0.3,0.5,0.3
						c0.2,0,0.2-0.1,0.4-0.1c0.2,0,1,0.1,1.3,0.2c0.3,0.1,0.4,0.3,0.6,0.3s0.4-0.2,0.6-0.6C52.2,4.8,51.9,4.7,51.5,4.7z M36.3,7.5
						c0,0-0.2,0.2-0.4,0.2c-0.2,0-0.3,0-0.4,0c-0.1,0,0-0.1,0.1-0.2c0.1-0.1,0.3-0.1,0.3-0.2c0.1,0,0.2-0.2,0.4-0.1
						C36.5,7.4,36.3,7.4,36.3,7.5z"/>
				</g>
				<path id="XMLID_191_" class="st3" d="M34.3,8.9c0,0,0.6-0.1,0.9-0.3L35,8.3L35,8.2c0,0-0.3,0.3-0.6,0.2
					C34.3,8.3,34.3,8.9,34.3,8.9z"/>
			</g>
			<g>
				<rect x="56.9" y="2.6" class="st3" width="0.4" height="7.9"/>
			</g>
		</g>
	</g>
	<g class="st1">
		<circle class="st5" cx="361.2" cy="4.1" r="5.6"/>
		<path class="st6" d="M362.2,4h-1v3.1c-0.3,0-0.6,0-1,0V4h-0.8V3h0.8l0-0.6l0-0.1c0-0.1,0-0.2,0-0.3c0-0.1,0-0.2,0.1-0.2
			c0-0.1,0.1-0.1,0.1-0.2c0-0.1,0.1-0.1,0.1-0.2c0.1-0.1,0.1-0.1,0.2-0.1c0.1,0,0.1-0.1,0.2-0.1c0.1,0,0.1-0.1,0.2-0.1
			c0.1,0,0.2,0,0.3,0c0,0,0.1,0,0.1,0c0,0,0.1,0,0.1,0c0,0,0.1,0,0.1,0c0,0,0.1,0,0.1,0l0.1,0l0.1,0c0.1,0,0.1,0,0.2,0
			c0.1,0,0.1,0,0.2,0l0.1,0L362.3,2h-0.6c0,0-0.1,0-0.1,0c0,0-0.1,0-0.1,0c0,0-0.1,0-0.1,0c0,0-0.1,0-0.1,0.1c0,0,0,0-0.1,0.1
			c0,0,0,0.1,0,0.1c0,0,0,0.1,0,0.1c0,0,0,0.1,0,0.1V3l1,0C362.2,3.3,362.2,3.7,362.2,4"/>
		<circle class="st5" cx="375.4" cy="4.1" r="5.6"/>
		<path id="lozenge_10_" class="st7" d="M378.8,4.5c0,0-0.1-0.5-0.3-0.7c-0.3-0.3-0.5-0.3-0.7-0.3c-0.9-0.1-2.4-0.1-2.4-0.1h0
			c0,0-1.4,0-2.4,0.1c-0.1,0-0.4,0-0.7,0.3c-0.2,0.2-0.3,0.7-0.3,0.7s-0.1,0.5-0.1,1.1v0.5c0,0.5,0.1,1.1,0.1,1.1s0.1,0.5,0.3,0.7
			c0.3,0.3,0.6,0.3,0.7,0.3c0.5,0.1,2.3,0.1,2.3,0.1s1.4,0,2.4-0.1c0.1,0,0.4,0,0.7-0.3c0.2-0.2,0.3-0.7,0.3-0.7s0.1-0.5,0.1-1.1
			V5.6C378.8,5.1,378.8,4.5,378.8,4.5z"/>
		<path id="u_20_" class="st7" d="M377.2,2.9h-0.4V2.7c-0.2,0.2-0.3,0.3-0.4,0.3c-0.1,0-0.2-0.1-0.3-0.2c0-0.1,0-0.2,0-0.3V0.6h0.4
			v1.7c0,0.1,0,0.1,0,0.2c0,0.1,0,0.1,0.1,0.1c0.1,0,0.2-0.1,0.2-0.2V0.6h0.4V2.9z"/>
		<path id="o_10_" class="st7" d="M375.7,1.4c0-0.2,0-0.4-0.1-0.5c-0.1-0.2-0.3-0.2-0.5-0.2c-0.2,0-0.4,0.1-0.5,0.2
			c-0.1,0.1-0.1,0.3-0.1,0.5l0,0.8c0,0.2,0,0.4,0.1,0.5c0.1,0.2,0.3,0.2,0.5,0.2c0.2,0,0.4-0.1,0.5-0.2c0.1-0.1,0.1-0.3,0.1-0.5V1.4
			z M375.3,2.2c0,0.2,0,0.3-0.2,0.3c-0.1,0-0.2-0.1-0.2-0.3V1.3c0-0.2,0-0.3,0.2-0.3s0.2,0.1,0.2,0.3L375.3,2.2z"/>
		<path id="y_10_" class="st7" d="M374,1.7v1.2h-0.4V1.7c0,0-0.5-1.5-0.6-1.8h0.5l0.3,1.2l0.3-1.2h0.5L374,1.7z"/>
		<g class="st2">
			<path id="e_10_" class="st8" d="M378.3,6.3l0-0.5c0-0.2,0-0.4-0.1-0.5C378,5.1,377.9,5,377.7,5c-0.2,0-0.4,0.1-0.5,0.2
				c-0.1,0.1-0.1,0.3-0.1,0.5v0.8c0,0.2,0.1,0.4,0.1,0.5c0.1,0.2,0.3,0.2,0.5,0.2c0.2,0,0.4-0.1,0.5-0.2c0-0.1,0.1-0.2,0.1-0.2
				c0,0,0-0.1,0-0.3V6.5h-0.4c0,0.2,0,0.3,0,0.3c0,0.1-0.1,0.2-0.2,0.2c-0.1,0-0.2-0.1-0.2-0.3V6.3H378.3z M377.5,5.7
				c0-0.2,0.1-0.3,0.2-0.3c0.1,0,0.2,0.1,0.2,0.3v0.2l-0.4,0V5.7z"/>
			<path id="b_10_" class="st8" d="M376.4,5c-0.1,0-0.3,0.1-0.4,0.3l0-1h-0.4v3h0.4l0-0.2c0.1,0.2,0.3,0.3,0.4,0.3
				c0.2,0,0.3-0.1,0.3-0.3c0-0.1,0-0.2,0-0.4V5.8c0-0.2,0-0.4-0.1-0.4C376.7,5.1,376.6,5,376.4,5z M376.4,6.7c0,0.2-0.1,0.3-0.2,0.3
				c-0.1,0-0.1,0-0.2-0.1l0-1.4c0.1-0.1,0.1-0.1,0.2-0.1c0.1,0,0.2,0.1,0.2,0.3V6.7z"/>
			<path id="u_19_" class="st8" d="M375.2,7.3h-0.4V7.1c-0.2,0.2-0.3,0.3-0.4,0.3c-0.1,0-0.2-0.1-0.3-0.2c0-0.1,0-0.2,0-0.3V5.1h0.4
				v1.7c0,0.1,0,0.1,0,0.2c0,0.1,0,0.1,0.1,0.1c0.1,0,0.2-0.1,0.2-0.2V5.1h0.4V7.3z"/>
			<polygon id="T_10_" class="st8" points="373.6,7.3 373.2,7.3 373.2,4.7 372.7,4.7 372.7,4.3 374.1,4.3 374.1,4.7 373.6,4.7 			
				"/>
		</g>
	</g>
	<g class="st1">
		
			<text transform="matrix(1 0 0 1 308.6612 8.1729)" style="display:inline;fill:#5E6566; font-family:'Lato-Regular'; font-size:5.0859px;">hello@leoburnett.by</text>
	</g>
	<path id="_x30_1_8_" class="st9" d="M299.3,4.2v4.4h6.6V4.2H299.3z M302.6,7.2L300,4.6h5.2L302.6,7.2z M301.2,6.4l-1.5,1.5V5
		L301.2,6.4z M301.5,6.7l1.1,1.1l1.1-1.1l1.5,1.5H300L301.5,6.7z M304,6.4l1.5-1.5v3L304,6.4z"/>
	<g id="_x30_8_8_" class="st1">
		<path class="st7" d="M158.6,9.1l-0.2-0.2c-0.1-0.1-2.2-2.6-2.2-3.8c0-1.3,1-2.3,2.3-2.3c1.3,0,2.3,1,2.3,2.3
			c0,1.2-2.1,3.7-2.2,3.8L158.6,9.1L158.6,9.1z M158.6,3.1c-1,0-1.9,0.9-1.9,1.9c0,0.8,1.2,2.6,1.9,3.4c0.7-0.8,1.9-2.5,1.9-3.4
			C160.5,4,159.7,3.1,158.6,3.1L158.6,3.1z"/>
		<path class="st7" d="M158.6,6c-0.5,0-0.9-0.4-0.9-0.9c0-0.5,0.4-0.9,0.9-0.9c0.5,0,0.9,0.4,0.9,0.9C159.6,5.5,159.2,6,158.6,6
			L158.6,6z M158.6,4.5c-0.3,0-0.5,0.2-0.5,0.5c0,0.3,0.2,0.5,0.5,0.5c0.3,0,0.5-0.2,0.5-0.5C159.1,4.7,158.9,4.5,158.6,4.5
			L158.6,4.5z"/>
	</g>
	<path id="_x30_4_8_" class="st9" d="M248.7,3.5c0.1,0.1,0.2,0.2,0.2,0.3c0.1,0.5,0.1,1,0.1,1.3c0,0.1-0.1,0.3-0.3,0.4
		c-0.2,0.1-0.3,0-0.4,0.1c-0.1,0-0.2,0.2-0.2,0.4c0,0.3,0,0.5,0.1,0.9c0.1,0.4,0.2,0.6,0.4,0.9c0.1,0.1,0.1,0.1,0.2,0.1
		c0.1,0,0.2,0.1,0.2,0.1c0.1,0,0.2-0.1,0.4-0.2c0.1,0,0.2,0,0.3,0c0.1,0,0.1,0.1,0.2,0.1c0.2,0.3,0.4,0.7,0.6,1.1
		c0.2,0.3-0.1,0.5-0.2,0.6c-0.1,0.1-0.4,0.2-0.9,0.2c-0.1,0-0.3,0-0.5-0.1c-0.5-0.3-1.2-1.1-1.7-2.6c-0.6-2-0.2-3.2,0.2-3.5
		c0.4-0.3,0.8-0.3,0.9-0.3C248.5,3.5,248.6,3.5,248.7,3.5L248.7,3.5z M248.9,3.2c-0.2-0.1-0.3-0.1-0.4-0.1c-0.2,0-0.7,0-1.2,0.4
		c-0.6,0.4-1.1,1.7-0.4,4c0.6,1.9,1.4,2.6,1.9,2.9c0.2,0.1,0.5,0.2,0.7,0.2c0.6,0,1-0.2,1.2-0.3c0.4-0.3,0.5-0.7,0.3-1.1
		c0-0.1-0.1-0.1-0.1-0.2c-0.2-0.4-0.4-0.7-0.5-0.9c-0.1-0.1-0.2-0.2-0.3-0.3c-0.2-0.1-0.4-0.1-0.6-0.1c-0.1,0-0.2,0.1-0.3,0.1
		c0,0,0,0,0,0c0,0,0,0,0,0c0,0,0,0,0,0c-0.1-0.2-0.2-0.3-0.3-0.7c-0.1-0.4-0.1-0.6-0.1-0.8c0,0,0,0,0,0c0,0,0,0,0.1,0
		c0.1,0,0.2,0,0.3-0.1c0.4-0.1,0.6-0.5,0.6-0.8c0-0.3,0-0.7-0.1-1.1c0-0.1,0-0.1,0-0.2C249.3,3.5,249.1,3.3,248.9,3.2L248.9,3.2z"/>
	<g class="st1">
		
			<text transform="matrix(1 0 0 1 251.2462 8.6006)" style="display:inline;fill:#5E6566; font-family:'Lato-Regular'; font-size:5.0859px;">+ 375 17 327 85 01</text>
	</g>
</g>
</svg>
