<?xml version="1.0" encoding="utf-8"?>
<!-- Generator: Adobe Illustrator 22.1.0, SVG Export Plug-In . SVG Version: 6.00 Build 0)  -->
<svg version="1.1" id="Слой_1" xmlns="http://www.w3.org/2000/svg" xmlns:xlink="http://www.w3.org/1999/xlink" x="0px" y="0px"
	 viewBox="0 0 117.8 25.9" style="enable-background:new 0 0 117.8 25.9;" xml:space="preserve">
<style type="text/css">
	.st0{fill:#1D1D1B;}
	.st1{fill:#454F50;stroke:#454F50;stroke-width:0.25;stroke-miterlimit:10;}
</style>
<g>
	<g>
		<g id="XMLID_79_">
			<path id="XMLID_268_" class="st0" d="M92.4,12.9V5.1h0.7V9l2.8-3.9h0.8l-2.3,3.1l2.4,4.6h-0.7l-2.1-4.1L93.1,10v3H92.4z"/>
			<path id="XMLID_243_" class="st0" d="M99.3,9.3v3.7h-0.7V5.1h1.5c1.4,0,2.4,0.4,2.4,2c0,0.8-0.3,1.7-1.1,1.8v0
				c0.9,0.2,1,0.9,1,1.9c0,0.4,0,1.7,0.4,2v0.1H102c-0.3-0.7-0.3-2-0.3-2.6c-0.1-1-0.9-1.1-1.7-1.1H99.3z M99.3,8.7h1.2
				c0.2,0,1.4-0.1,1.4-1.5c0-1.1-0.5-1.4-1.6-1.4h-1V8.7z"/>
			<path id="XMLID_163_" class="st0" d="M108.3,5.1h0.7l-2.1,4.5v3.3h-0.7V9.6l-2.1-4.5h0.7l1.6,3.7L108.3,5.1z"/>
			<path id="XMLID_80_" class="st0" d="M114.6,11.8L114.6,11.8l0-6.7h0.7v7.8h-0.8l-2.9-6.7h0v6.7h-0.7V5.1h0.8L114.6,11.8z"/>
		</g>
		<g id="XMLID_62_">
			<g id="XMLID_64_">
				<path id="XMLID_65_" class="st0" d="M51.7,11.3c-0.2,0-0.3-0.4-0.3-0.7c0-0.3,0.4-0.8-0.5-1c-0.9-0.2-1.8,1.2-2.3,1.1
					c-0.4-0.1,0.2-1.2-0.3-1.3c-0.5,0-1.5,0.5-2,0.9c-0.5,0.4-2.2,1.1-2.6,1c-0.4-0.1-0.4-0.6-0.4-0.8c0-0.2,0.1,0.1,0.1-0.4
					c0-0.6-0.6-0.7-0.9-0.7C42.3,9.2,42.1,9,42,9.4c-0.1,0.3-0.1,0.3-0.2,0.5c-0.1,0.1-0.9,0.7-1.4,1.1c-0.5,0.4-1.8,1-2.4,0.9
					c-0.6-0.1-0.8-0.6-0.4-1.4c0.4-0.8-0.4-0.9-1.2,0c-0.3,0.4-1.3,0.6-2.1,1c-0.5,0.3-1,0-0.4-0.5c0.2-0.2,0.7-0.7,0.9-1
					c0.2-0.3,0.2-0.7-0.2-0.8c-0.4-0.1-0.5,0-0.7,0.2c-0.2,0.2-0.6,0.2-0.8,0.2c-0.2,0-2.1,0-2.6,0c-0.5,0-0.4-0.4-0.4-0.6
					c0-0.1,0.3-0.6,0-1.5c-0.3-0.9,0.3-0.8,0.6-1c0.4-0.2,1.2-0.5,1.2-1.6c0.1-1.1-0.5-2.1-1.4-2.2c-1.1-0.1-2,0.7-2.6,1.1
					c-0.6,0.4-2.1,1.3-2.5,1.8c-0.5,0-1.4,0-1.6,0.1c-0.2,0.1-0.3,0.7,0,0.7c0.2,0,0.1,0.4-0.1,0.5c-0.2,0.1-0.7,0.9-1.2,1.3
					c-0.4,0.4-1.3,1.6-1.4,2c-0.1,0.4-0.1,1.2,0.5,1.3c0.5,0.1,0.7-0.6,1.3-0.5c0.5,0.1,0.2,1.6,1.9,1.8c0.9,0.1,2.1-0.5,2.7-0.9
					c0.6-0.4,2-1.4,2.4-2c0.8-0.1,1.7,0,2.1,0.1c0.5,0,1.4-0.2,1.4,0.1c0,0.3-1.4,1.5-1.4,1.6c0,0.1,0,0.6,0.7,0.6
					c1.1,0.1,2.4-1.3,3.2-1.3c1.1,0-0.6,1.3,2.1,1.3c2.7,0,3.8-2.3,4.4-2.3c1.1,0.1-0.7,1.6,0.9,1.7c1.8,0.1,3.7-1.7,4.1-1.6
					c0.4,0.1,0.1,0.7-0.1,1c-0.1,0.3-0.1,0.7,0.4,0.7c0.5,0,2.2-1.6,2.5-1.5c0.3,0,0.2,0.5,0.2,0.9c0,0.5,0.4,0.5,0.6,0.6
					c0.3,0.1,0.4-0.1,0.6-0.3C51.9,11.5,51.9,11.3,51.7,11.3z M27.6,10.5c-0.5,0.5-2.3,1.5-3.1,1.5c-0.8-0.1-1.5-1.1-0.9-2.2
					c0.8,0,1.3,0,1.7,0c0.6,0,1.8,0.1,2.2,0.2C28.2,10.1,28.1,10,27.6,10.5z M29.2,8.2c-0.1,0.5-0.4,1-0.6,1.2
					c-0.5,0-1.7-0.3-2.4-0.3c-0.7,0-1.4,0-1.7,0c-0.4,0-0.4-0.3-0.3-0.6c0.2-0.3,1-1.4,1.3-1.6C26,6.9,26.3,7,26.7,7
					c0.6,0.1,1.3,0,1.7,0.1C28.8,7.3,29.3,7.7,29.2,8.2z M28.2,5.9c-3.1-0.1-0.7-0.9,0.3-1.6C29,4,29.6,3.5,29.9,3.5
					c0.3,0,0.6,0.1,0.6,1.2C30.5,5.9,28.9,5.9,28.2,5.9z M16.1,8.7c-0.7-0.4-0.5-0.3-0.8,0C15,9,14.7,9.3,14.4,9.5
					c-0.3,0.1-1.7,0.5-2.5,0.5c-0.8,0-1.2-0.2-0.7-0.6c0.6-0.4,0.6-1.5-0.3-1.4C9.9,8,8.7,8.6,8.4,9.3c-0.2,0.4-0.1,0.6-0.7,0.9
					c-0.7,0.3-1.5,0.6-2,0.5C5.2,10.6,4.8,10.6,5,10c0.1-0.7,0.3-0.8,0.6-1.6c0.4-0.3,1.6-1.6,2-2c0.8-0.2,3.5-0.7,4.8-1.5
					c1.7-1,3.9-3.2,2.4-4.5c-1-0.9-3.4,0.8-3.9,1.3C10.3,2.1,7.5,5,7.2,5.4C6.6,5.1,5.6,5,5.2,4.3c-0.4-0.7-0.7-1-1.1-0.8
					C3.8,3.6,4,4,4.1,4.4C4.3,4.8,4.7,5.6,5.8,6c1.1,0.3,0.5,0.5,0.3,0.7C5.8,6.9,3.6,9,2.5,9.8c-1,0.8-3,1.7-2.5,2.6
					C0.3,12.7,1,12.1,1.2,12c0.2-0.1,0.5,0,0.6-0.2C2,11.6,2.5,10.9,3,10.9c0.5,0,0.7,0.6,1.2,0.7c0.7,0.1,3.6-0.3,4.1-0.7
					c0.3,0.1,1,0.2,1.4,0.2c0.4,0,2.1-0.2,2.6-0.4c0.4-0.1,0.6,0.1,0.5,0.3c-0.1,0.2-0.8,1.1-0.2,1.7c0.6,0.6,2.6,0,3.3-0.4
					c0.7-0.4,1.7-1.3,1.7-1.8C17.5,9.9,16.8,9.1,16.1,8.7z M8.9,4.8c0.4-0.8,0.6-0.8,0.9-1.1c0.5-0.6,2.3-2.8,3.9-2.9
					c0.9,0,0.8,0.9,0.5,1.3c-0.2,0.4-1.6,1.9-2.5,2.4C10.8,5,10.1,5.2,9.6,5.3C9.2,5.3,8.5,5.6,8.9,4.8z M10.5,9
					C10.4,9.1,10,9.3,9.8,9.4C9.6,9.4,9.4,9.4,9.3,9.4c-0.1,0-0.3,0-0.1-0.1c0.1-0.1,0.2-0.1,0.2-0.2c0.1-0.1,0.6-0.5,1-0.4
					C10.6,8.8,10.5,8.9,10.5,9z M15.2,11.7c-1,0.1-0.7,0.5-1,0.5c-0.3,0-1.2-0.1-0.7-0.7c0.5-0.6,1.7-2.1,2.4-2.1
					c0.6,0,0.8,0.6,0.8,1C16.8,10.8,16.1,11.6,15.2,11.7z M77,5.7c-0.6,0-2.8-0.1-3.9-0.1c-1.1,0-2.6-0.2-3.6-0.2
					c-0.5,0-1.6,0.1-2-0.1c-0.4-0.3-2.3-0.5-2.8-0.5c-0.5,0-1.6-0.3-2.4-0.3c-0.8,0-1.1-0.6-2.4-0.6c-1.1,0-0.3,1,0.4,1.2
					c0.7,0.2,0.7,1.5,1,2.8c0.2,1.3-0.3,1.8-0.6,2.1c-0.3,0.3-0.8,0.9-1.2,0.6C59,10.2,59.3,9.9,60,8.9c0.7-1-0.5-1.2-0.9-0.8
					c-0.4,0.4-0.8,1-1.4,1.4c-0.6,0.4-1.1,0.9-2.3,1.3c-1.2,0.4-1-0.3,0.1-1c0.6-0.4,0.3-1.1-0.6-1.1C54.1,8.7,54,8.9,53,9.5
					c-0.6,0.3-0.9,0.6-0.9,1c0,0.1,0.1,0.4,0.2,0.5c0,0.1-0.2,0.1-0.1,0.2c0,0.1,0.2,0.2,0.3,0.2c0.2,0.3,0.5,0.5,1,0.5
					c0.5,0,1.8-0.5,3.3-1.3c1.5-0.8,1.2-0.3,1.5,0.1c0.2,0.4,0.5,0.5,1.2,0.3c0.7-0.2,0.4,0.2,0.2,0.5c-0.2,0.3-0.1,0.5,0.5,0.9
					c0.6,0.4,0.7-0.2,0.8-0.7c0.1-0.5,1.4-1.8,1.7-2.2c0.2-0.4,1-0.5,1.3-0.8c0.3-0.3,0.4-0.8,0.1-1.3c-0.3-0.5-1,0.3-1.5,0.7
					c-0.5,0.4-0.6,0-0.6-0.4c0-0.4-0.2-1.5-0.5-2.3C61,4.8,61.8,4.9,62.1,5c0.3,0.1,1,0.1,1.5,0.2c0.4,0.1,2,0.2,2.9,0.3
					C67.3,5.6,68,5.9,69,5.9l3.1,0.4c0.3,0,0.4-0.2,0.7-0.1c0.3,0,0.5,0.4,0.7,0.4c0.2,0,0.2-0.1,0.6-0.1c0.3,0,1.5,0.2,2,0.3
					c0.5,0.1,0.6,0.5,1,0.5c0.4,0,0.7-0.3,0.9-0.9C78,5.8,77.6,5.8,77,5.7z M54.3,9.9c-0.1,0.1-0.3,0.3-0.5,0.4
					c-0.2,0.1-0.5,0-0.6,0c-0.1,0,0-0.1,0.1-0.2c0.1-0.1,0.4-0.2,0.5-0.3c0.1-0.1,0.3-0.2,0.6-0.1C54.5,9.7,54.3,9.8,54.3,9.9z"/>
			</g>
			<path id="XMLID_63_" class="st0" d="M51.2,12c0,0,0.9-0.2,1.3-0.4l-0.2-0.3l0.1-0.2c0,0-0.5,0.4-0.8,0.3
				C51.2,11.1,51.2,12,51.2,12z"/>
		</g>
		<g>
			<rect x="85.1" y="2.6" class="st0" width="0.6" height="11.8"/>
		</g>
	</g>
	<g>
		<g>
			<path class="st1" d="M1,20.5h0.5c0.1,0,0.1,0,0.1,0c0,0,0.1,0,0.1,0s0.1,0,0.1-0.1c0,0,0.1-0.1,0.1-0.1l1.5-1.8
				c0,0,0.1-0.1,0.1-0.1h0.1l-1.6,1.9c-0.1,0.1-0.1,0.1-0.2,0.2c-0.1,0-0.1,0.1-0.2,0.1c0.1,0,0.2,0,0.2,0.1c0.1,0,0.1,0.1,0.2,0.2
				l1.7,2H3.7c0,0-0.1,0-0.1,0c0,0,0,0-0.1-0.1L2,20.9c0,0-0.1-0.1-0.1-0.1c0,0-0.1,0-0.1-0.1c0,0-0.1,0-0.1,0c0,0-0.1,0-0.2,0H1
				v2.1H0.8v-4.3H1V20.5z"/>
			<path class="st1" d="M4.8,21v1.8H4.7v-4.3h1c0.5,0,0.9,0.1,1.1,0.3c0.3,0.2,0.4,0.5,0.4,0.9c0,0.2,0,0.4-0.1,0.5
				c-0.1,0.2-0.2,0.3-0.3,0.4c-0.1,0.1-0.3,0.2-0.5,0.3C6.1,21,5.9,21,5.7,21H4.8z M4.8,20.9h0.9c0.2,0,0.4,0,0.6-0.1
				s0.3-0.1,0.4-0.2c0.1-0.1,0.2-0.2,0.3-0.4C7,20,7,19.9,7,19.7c0-0.4-0.1-0.6-0.3-0.8c-0.2-0.2-0.6-0.3-1-0.3H4.8V20.9z"/>
			<path class="st1" d="M10.7,18.5v0.1H8.3v1.9h2v0.1h-2v2h2.4l0,0.1H8.2v-4.3H10.7z"/>
			<path class="st1" d="M14.9,22.8h-0.1c0,0-0.1,0-0.1-0.1l-0.6-1.4H12l-0.6,1.4c0,0,0,0.1-0.1,0.1h-0.1l1.8-4.3h0.2L14.9,22.8z
				 M12,21.3h2.1l-1-2.4c0,0,0-0.1,0-0.1c0,0,0-0.1,0-0.1c0,0,0,0.1,0,0.1c0,0,0,0.1,0,0.1L12,21.3z"/>
			<path class="st1" d="M18.1,18.5v0.1h-1.6v4.2h-0.2v-4.2h-1.6v-0.1H18.1z"/>
			<path class="st1" d="M21.9,18.5C21.9,18.5,22,18.5,21.9,18.5l0.2-0.1v4.3h-0.2V19c0-0.1,0-0.1,0-0.2s0-0.1,0-0.2
				c0,0,0,0.1-0.1,0.1c0,0,0,0.1-0.1,0.1l-2.8,3.9c0,0,0,0.1-0.1,0.1h-0.1v-4.3H19v3.8c0,0.1,0,0.1,0,0.2c0,0.1,0,0.1,0,0.2
				c0,0,0-0.1,0.1-0.1c0,0,0-0.1,0.1-0.1L21.9,18.5z"/>
			<path class="st1" d="M23.5,22.8v-4.3h1.2c0.5,0,0.8,0.1,1.1,0.3s0.3,0.5,0.3,0.8c0,0.1,0,0.2-0.1,0.4c0,0.1-0.1,0.2-0.2,0.3
				s-0.2,0.2-0.3,0.2c-0.1,0.1-0.2,0.1-0.4,0.1c0.2,0,0.3,0.1,0.5,0.1s0.3,0.1,0.4,0.2c0.1,0.1,0.2,0.2,0.2,0.3
				c0.1,0.1,0.1,0.3,0.1,0.4c0,0.2,0,0.3-0.1,0.5c-0.1,0.1-0.2,0.3-0.3,0.4s-0.3,0.2-0.4,0.2c-0.2,0.1-0.4,0.1-0.6,0.1H23.5z
				 M23.7,20.5h1c0.2,0,0.4,0,0.6-0.1c0.2-0.1,0.3-0.1,0.4-0.2c0.1-0.1,0.2-0.2,0.2-0.3s0.1-0.2,0.1-0.3c0-0.3-0.1-0.5-0.3-0.7
				c-0.2-0.2-0.5-0.3-0.9-0.3h-1V20.5z M23.7,20.7v2h1.2c0.4,0,0.7-0.1,0.9-0.3s0.3-0.4,0.3-0.8c0-0.2,0-0.3-0.1-0.4
				c-0.1-0.1-0.1-0.2-0.3-0.3c-0.1-0.1-0.2-0.1-0.4-0.2c-0.2,0-0.3-0.1-0.5-0.1H23.7z"/>
			<path class="st1" d="M30.6,22.8h-0.2v-2.1h-2.9v2.1h-0.2v-4.3h0.2v2.1h2.9v-2.1h0.2V22.8z"/>
			<path class="st1" d="M35.8,20.6c0,0.3,0,0.6-0.1,0.9c-0.1,0.3-0.2,0.5-0.4,0.7s-0.4,0.3-0.6,0.4c-0.2,0.1-0.5,0.2-0.8,0.2
				c-0.3,0-0.6-0.1-0.8-0.2c-0.2-0.1-0.5-0.3-0.6-0.4s-0.3-0.4-0.4-0.7c-0.1-0.3-0.1-0.6-0.1-0.9c0-0.3,0-0.6,0.1-0.9
				c0.1-0.3,0.2-0.5,0.4-0.7s0.4-0.3,0.6-0.4c0.2-0.1,0.5-0.2,0.8-0.2c0.3,0,0.6,0.1,0.8,0.2c0.2,0.1,0.5,0.3,0.6,0.4
				s0.3,0.4,0.4,0.7C35.7,20,35.8,20.3,35.8,20.6z M35.6,20.6c0-0.3,0-0.6-0.1-0.9c-0.1-0.3-0.2-0.5-0.4-0.7
				c-0.2-0.2-0.4-0.3-0.6-0.4c-0.2-0.1-0.5-0.1-0.8-0.1c-0.3,0-0.5,0-0.7,0.1c-0.2,0.1-0.4,0.2-0.6,0.4c-0.2,0.2-0.3,0.4-0.4,0.7
				c-0.1,0.3-0.1,0.5-0.1,0.9s0,0.6,0.1,0.9c0.1,0.3,0.2,0.5,0.4,0.7c0.2,0.2,0.4,0.3,0.6,0.4c0.2,0.1,0.5,0.1,0.7,0.1
				c0.3,0,0.5,0,0.8-0.1c0.2-0.1,0.4-0.2,0.6-0.4c0.2-0.2,0.3-0.4,0.4-0.7C35.5,21.3,35.6,21,35.6,20.6z"/>
			<path class="st1" d="M39.4,18.5v0.1H37v1.9h2v0.1h-2v2h2.4l0,0.1h-2.6v-4.3H39.4z"/>
			<path class="st1" d="M42.3,21v1.8h-0.2v-4.3h1c0.5,0,0.9,0.1,1.1,0.3c0.3,0.2,0.4,0.5,0.4,0.9c0,0.2,0,0.4-0.1,0.5
				c-0.1,0.2-0.2,0.3-0.3,0.4c-0.1,0.1-0.3,0.2-0.5,0.3C43.6,21,43.4,21,43.2,21H42.3z M42.3,20.9h0.9c0.2,0,0.4,0,0.6-0.1
				s0.3-0.1,0.4-0.2c0.1-0.1,0.2-0.2,0.3-0.4c0.1-0.1,0.1-0.3,0.1-0.4c0-0.4-0.1-0.6-0.3-0.8c-0.2-0.2-0.6-0.3-1-0.3h-0.9V20.9z"/>
			<path class="st1" d="M48.2,18.5v0.1h-2.4v1.9h2v0.1h-2v2h2.4l0,0.1h-2.6v-4.3H48.2z"/>
			<path class="st1" d="M49.4,20.5H50c0.1,0,0.1,0,0.1,0c0,0,0.1,0,0.1,0s0.1,0,0.1-0.1c0,0,0.1-0.1,0.1-0.1l1.5-1.8
				c0,0,0.1-0.1,0.1-0.1h0.1l-1.6,1.9c-0.1,0.1-0.1,0.1-0.2,0.2s-0.1,0.1-0.2,0.1c0.1,0,0.2,0,0.2,0.1c0.1,0,0.1,0.1,0.2,0.2l1.7,2
				h-0.1c0,0-0.1,0-0.1,0c0,0,0,0-0.1-0.1l-1.6-1.9c0,0-0.1-0.1-0.1-0.1c0,0-0.1,0-0.1-0.1c0,0-0.1,0-0.1,0c0,0-0.1,0-0.2,0h-0.6
				v2.1h-0.2v-4.3h0.2V20.5z"/>
			<path class="st1" d="M56.1,18.5v4.3h-0.2v-4.2H54c0,0.6-0.1,1.1-0.1,1.5c0,0.4-0.1,0.8-0.2,1.1c-0.1,0.3-0.1,0.6-0.2,0.8
				s-0.2,0.4-0.3,0.5c-0.1,0.1-0.2,0.2-0.3,0.2c-0.1,0-0.2,0.1-0.3,0.1c0,0,0,0-0.1,0c0,0,0,0-0.1,0s0,0,0,0c0,0,0,0,0,0v-0.1h0.2
				c0.1,0,0.2,0,0.3-0.1c0.1,0,0.2-0.1,0.3-0.3c0.1-0.1,0.2-0.3,0.2-0.5c0.1-0.2,0.1-0.5,0.2-0.8c0.1-0.3,0.1-0.7,0.1-1.1
				c0-0.4,0.1-0.9,0.1-1.5H56.1z"/>
			<path class="st1" d="M60.6,22.8h-0.1c0,0-0.1,0-0.1-0.1l-0.6-1.4h-2.2l-0.6,1.4c0,0,0,0.1-0.1,0.1h-0.1l1.8-4.3h0.2L60.6,22.8z
				 M57.7,21.3h2.1l-1-2.4c0,0,0-0.1,0-0.1c0,0,0-0.1,0-0.1c0,0,0,0.1,0,0.1c0,0,0,0.1,0,0.1L57.7,21.3z"/>
			<path class="st1" d="M63.5,21.8C63.5,21.8,63.5,21.8,63.5,21.8c0-0.1,0-0.1,0.1-0.1l1.8-3.2c0,0,0,0,0,0s0,0,0,0h0.1v4.3h-0.1v-4
				c0,0,0,0,0,0s0,0,0,0l-1.8,3.2c0,0,0,0.1-0.1,0.1h0c0,0-0.1,0-0.1-0.1l-1.9-3.2c0,0,0,0,0,0.1c0,0,0,0,0,0.1v4h-0.1v-4.3h0.1
				c0,0,0,0,0,0c0,0,0,0,0,0l1.9,3.2L63.5,21.8z"/>
			<path class="st1" d="M70.2,22.8h-0.2v-2.1h-2.9v2.1H67v-4.3h0.2v2.1h2.9v-2.1h0.2V22.8z"/>
			<path class="st1" d="M75.4,20.6c0,0.3,0,0.6-0.1,0.9c-0.1,0.3-0.2,0.5-0.4,0.7c-0.2,0.2-0.4,0.3-0.6,0.4
				c-0.3,0.1-0.5,0.2-0.8,0.2c-0.3,0-0.6-0.1-0.8-0.2c-0.2-0.1-0.5-0.3-0.6-0.4c-0.2-0.2-0.3-0.4-0.4-0.7c-0.1-0.3-0.1-0.6-0.1-0.9
				c0-0.3,0-0.6,0.1-0.9c0.1-0.3,0.2-0.5,0.4-0.7c0.2-0.2,0.4-0.3,0.6-0.4c0.3-0.1,0.5-0.2,0.8-0.2c0.3,0,0.6,0.1,0.8,0.2
				c0.2,0.1,0.5,0.3,0.6,0.4c0.2,0.2,0.3,0.4,0.4,0.7C75.3,20,75.4,20.3,75.4,20.6z M75.2,20.6c0-0.3,0-0.6-0.1-0.9
				c-0.1-0.3-0.2-0.5-0.4-0.7c-0.2-0.2-0.4-0.3-0.6-0.4c-0.2-0.1-0.5-0.1-0.8-0.1c-0.3,0-0.5,0-0.7,0.1s-0.4,0.2-0.6,0.4
				c-0.2,0.2-0.3,0.4-0.4,0.7c-0.1,0.3-0.1,0.5-0.1,0.9s0,0.6,0.1,0.9c0.1,0.3,0.2,0.5,0.4,0.7c0.2,0.2,0.4,0.3,0.6,0.4
				s0.5,0.1,0.7,0.1c0.3,0,0.5,0,0.8-0.1c0.2-0.1,0.4-0.2,0.6-0.4c0.2-0.2,0.3-0.4,0.4-0.7C75.2,21.3,75.2,21,75.2,20.6z"/>
			<path class="st1" d="M79,18.5v0.1h-2.4v1.9h2v0.1h-2v2H79l0,0.1h-2.6v-4.3H79z"/>
			<path class="st1" d="M85,22.8h-0.1c0,0-0.1,0-0.1-0.1l-0.6-1.4H82l-0.6,1.4c0,0,0,0.1-0.1,0.1h-0.1l1.8-4.3h0.2L85,22.8z
				 M82,21.3h2.1l-1-2.4c0,0,0-0.1,0-0.1c0,0,0-0.1,0-0.1c0,0,0,0.1,0,0.1c0,0,0,0.1,0,0.1L82,21.3z"/>
			<path class="st1" d="M88.3,18.6h-2.3v4.2h-0.2v-4.3h2.5V18.6z"/>
			<path class="st1" d="M91.6,18.5v0.1h-2.4v1.9h2v0.1h-2v2h2.4l0,0.1H89v-4.3H91.6z"/>
			<path class="st1" d="M95.9,22.8h-0.2v-2.1h-2.9v2.1h-0.2v-4.3h0.2v2.1h2.9v-2.1h0.2V22.8z"/>
			<path class="st1" d="M100,18.5v0.1h-1.6v4.2h-0.2v-4.2h-1.6v-0.1H100z"/>
			<path class="st1" d="M103.7,22.2C103.7,22.2,103.7,22.2,103.7,22.2L103.7,22.2c0,0.2-0.1,0.3-0.2,0.3s-0.2,0.1-0.3,0.2
				c-0.1,0.1-0.3,0.1-0.4,0.1c-0.2,0-0.3,0-0.5,0c-0.3,0-0.6-0.1-0.8-0.2c-0.2-0.1-0.5-0.3-0.6-0.4s-0.3-0.4-0.4-0.7
				c-0.1-0.3-0.2-0.6-0.2-0.9c0-0.3,0.1-0.6,0.2-0.9c0.1-0.3,0.2-0.5,0.4-0.7c0.2-0.2,0.4-0.3,0.7-0.5s0.5-0.2,0.8-0.2
				c0.3,0,0.5,0,0.8,0.1c0.2,0.1,0.4,0.2,0.6,0.4l0,0.1c0,0,0,0,0,0c0,0,0,0-0.1,0c0,0-0.1-0.1-0.1-0.1s-0.1-0.1-0.2-0.1
				c-0.1,0-0.2-0.1-0.2-0.1c-0.1,0-0.2-0.1-0.3-0.1c-0.1,0-0.2,0-0.4,0c-0.3,0-0.5,0-0.8,0.1c-0.2,0.1-0.4,0.2-0.6,0.4
				c-0.2,0.2-0.3,0.4-0.4,0.7c-0.1,0.3-0.1,0.5-0.1,0.9c0,0.3,0,0.6,0.1,0.9c0.1,0.3,0.2,0.5,0.4,0.7c0.2,0.2,0.4,0.3,0.6,0.4
				s0.5,0.1,0.7,0.1c0.2,0,0.3,0,0.4,0s0.3-0.1,0.4-0.1c0.1,0,0.2-0.1,0.3-0.2C103.5,22.3,103.6,22.3,103.7,22.2
				C103.7,22.2,103.7,22.2,103.7,22.2z"/>
			<path class="st1" d="M107.5,18.5v0.1h-1.6v4.2h-0.2v-4.2h-1.6v-0.1H107.5z"/>
			<path class="st1" d="M108.3,22.8v-4.3h1.2c0.5,0,0.8,0.1,1.1,0.3s0.3,0.5,0.3,0.8c0,0.1,0,0.2-0.1,0.4c0,0.1-0.1,0.2-0.2,0.3
				s-0.2,0.2-0.3,0.2c-0.1,0.1-0.2,0.1-0.4,0.1c0.2,0,0.3,0.1,0.5,0.1c0.1,0.1,0.3,0.1,0.4,0.2c0.1,0.1,0.2,0.2,0.2,0.3
				c0.1,0.1,0.1,0.3,0.1,0.4c0,0.2,0,0.3-0.1,0.5c-0.1,0.1-0.2,0.3-0.3,0.4c-0.1,0.1-0.3,0.2-0.4,0.2c-0.2,0.1-0.4,0.1-0.6,0.1
				H108.3z M108.4,20.5h1c0.2,0,0.4,0,0.6-0.1c0.2-0.1,0.3-0.1,0.4-0.2s0.2-0.2,0.2-0.3s0.1-0.2,0.1-0.3c0-0.3-0.1-0.5-0.3-0.7
				c-0.2-0.2-0.5-0.3-0.9-0.3h-1V20.5z M108.4,20.7v2h1.2c0.4,0,0.7-0.1,0.9-0.3s0.3-0.4,0.3-0.8c0-0.2,0-0.3-0.1-0.4
				c-0.1-0.1-0.1-0.2-0.3-0.3c-0.1-0.1-0.2-0.1-0.4-0.2c-0.2,0-0.3-0.1-0.5-0.1H108.4z"/>
			<path class="st1" d="M115.9,20.6c0,0.3,0,0.6-0.1,0.9c-0.1,0.3-0.2,0.5-0.4,0.7s-0.4,0.3-0.6,0.4c-0.2,0.1-0.5,0.2-0.8,0.2
				c-0.3,0-0.6-0.1-0.8-0.2c-0.3-0.1-0.5-0.3-0.6-0.4s-0.3-0.4-0.4-0.7s-0.1-0.6-0.1-0.9c0-0.3,0-0.6,0.1-0.9
				c0.1-0.3,0.2-0.5,0.4-0.7s0.4-0.3,0.6-0.4c0.2-0.1,0.5-0.2,0.8-0.2c0.3,0,0.6,0.1,0.8,0.2c0.2,0.1,0.5,0.3,0.6,0.4
				s0.3,0.4,0.4,0.7C115.9,20,115.9,20.3,115.9,20.6z M115.7,20.6c0-0.3,0-0.6-0.1-0.9c-0.1-0.3-0.2-0.5-0.4-0.7
				c-0.2-0.2-0.4-0.3-0.6-0.4s-0.5-0.1-0.8-0.1c-0.3,0-0.5,0-0.8,0.1c-0.2,0.1-0.4,0.2-0.6,0.4c-0.2,0.2-0.3,0.4-0.4,0.7
				c-0.1,0.3-0.1,0.5-0.1,0.9s0,0.6,0.1,0.9c0.1,0.3,0.2,0.5,0.4,0.7c0.2,0.2,0.4,0.3,0.6,0.4c0.2,0.1,0.5,0.1,0.8,0.1
				c0.3,0,0.5,0,0.8-0.1s0.4-0.2,0.6-0.4c0.2-0.2,0.3-0.4,0.4-0.7C115.7,21.3,115.7,21,115.7,20.6z"/>
		</g>
	</g>
</g>
</svg>
