<?xml version="1.0" encoding="utf-8"?>
<!-- Generator: Adobe Illustrator 22.1.0, SVG Export Plug-In . SVG Version: 6.00 Build 0)  -->
<svg version="1.1" id="Слой_1" xmlns="http://www.w3.org/2000/svg" xmlns:xlink="http://www.w3.org/1999/xlink" x="0px" y="0px"
	 viewBox="0 0 7.1 5.4" style="enable-background:new 0 0 7.1 5.4;" xml:space="preserve">
<style type="text/css">
	.st0{display:none;fill:#D6D5D7;}
	.st1{display:none;}
	.st2{display:inline;}
	.st3{fill:#5E6566;}
	.st4{fill:none;stroke:#5E6566;stroke-width:0.25;stroke-miterlimit:10;}
	.st5{display:inline;fill-rule:evenodd;clip-rule:evenodd;fill:#CECECF;}
	.st6{display:inline;fill-rule:evenodd;clip-rule:evenodd;fill:#FFFFFF;}
	.st7{display:inline;fill:#FFFFFF;}
	.st8{fill:#D6D5D7;}
	.st9{fill:#FFFFFF;}
	.st10{display:none;fill:#FFFFFF;}
</style>
<g>
	<rect x="-477.3" y="-15.6" class="st0" width="678.2" height="37.9"/>
	
		<text transform="matrix(1 0 0 1 -136.6051 5.0493)" style="display:none;fill:#5E6566; font-family:'Lato-Regular'; font-size:5.0859px;">Минск, ул. Ленинградская 18, оф. 7</text>
	<g class="st1">
		
			<text transform="matrix(1 0 0 1 -209.4384 5.3825)" style="display:inline;fill:#5E6566; font-family:'Lato-Regular'; font-size:5.0859px;">2017-2018 LeoBurnett Kryn</text>
		<g class="st2">
			<g>
				<path class="st3" d="M-212.3,4.4C-212.2,4.4-212.2,4.4-212.3,4.4l0.2,0.2c-0.1,0.1-0.3,0.2-0.4,0.3C-212.6,5-212.8,5-213,5
					c-0.2,0-0.4,0-0.5-0.1s-0.3-0.2-0.4-0.3c-0.1-0.1-0.2-0.3-0.3-0.4c-0.1-0.2-0.1-0.4-0.1-0.6s0-0.4,0.1-0.6
					c0.1-0.2,0.2-0.3,0.3-0.4c0.1-0.1,0.3-0.2,0.4-0.3c0.2-0.1,0.3-0.1,0.5-0.1c0.2,0,0.4,0,0.5,0.1c0.2,0.1,0.3,0.1,0.4,0.3
					l-0.1,0.2c0,0,0,0,0,0c0,0,0,0,0,0c0,0-0.1,0-0.1,0c0,0-0.1-0.1-0.1-0.1c-0.1,0-0.1-0.1-0.2-0.1s-0.2,0-0.3,0
					c-0.1,0-0.3,0-0.4,0.1c-0.1,0-0.2,0.1-0.3,0.2s-0.2,0.2-0.2,0.3c0,0.1-0.1,0.3-0.1,0.5c0,0.2,0,0.3,0.1,0.5
					c0,0.1,0.1,0.2,0.2,0.3c0.1,0.1,0.2,0.2,0.3,0.2s0.2,0.1,0.4,0.1c0.1,0,0.2,0,0.2,0c0.1,0,0.1,0,0.2,0c0.1,0,0.1,0,0.2-0.1
					C-212.4,4.5-212.4,4.5-212.3,4.4C-212.3,4.4-212.3,4.4-212.3,4.4z"/>
			</g>
			<circle class="st4" cx="-213" cy="3.6" r="2.3"/>
		</g>
	</g>
	<g class="st1">
		<g class="st2">
			<g id="XMLID_207_">
				<path id="XMLID_215_" class="st3" d="M-237,5.6V0.4h0.5V3l1.9-2.6h0.5l-1.5,2.1l1.6,3.1h-0.5l-1.4-2.7l-0.6,0.8v2H-237z"/>
				<path id="XMLID_212_" class="st3" d="M-232.5,3.2v2.5h-0.5V0.4h1c1,0,1.6,0.3,1.6,1.3c0,0.5-0.2,1.1-0.8,1.2v0
					c0.6,0.2,0.7,0.6,0.7,1.3c0,0.3,0,1.2,0.2,1.3v0.1h-0.5c-0.2-0.4-0.2-1.3-0.2-1.7c0-0.7-0.6-0.7-1.2-0.7H-232.5z M-232.5,2.8
					h0.8c0.2,0,0.9-0.1,0.9-1c0-0.8-0.3-1-1.1-1h-0.7V2.8z"/>
				<path id="XMLID_210_" class="st3" d="M-226.4,0.4h0.5l-1.4,3v2.2h-0.5V3.4l-1.4-3h0.5l1.1,2.5L-226.4,0.4z"/>
				<path id="XMLID_208_" class="st3" d="M-222.2,4.9L-222.2,4.9l0-4.5h0.5v5.2h-0.5l-1.9-4.5h0v4.5h-0.5V0.4h0.6L-222.2,4.9z"/>
			</g>
			<g id="XMLID_190_">
				<g id="XMLID_192_">
					<path id="XMLID_193_" class="st3" d="M-264.3,4.5c-0.1,0-0.2-0.2-0.2-0.5c0-0.2,0.3-0.5-0.3-0.7c-0.6-0.1-1.2,0.8-1.5,0.7
						c-0.3-0.1,0.2-0.8-0.2-0.9c-0.4,0-1,0.4-1.4,0.6c-0.4,0.2-1.5,0.7-1.8,0.6c-0.3-0.1-0.2-0.4-0.2-0.5c0-0.1,0.1,0.1,0.1-0.3
						c0-0.4-0.4-0.5-0.6-0.5c-0.2,0-0.3-0.2-0.4,0.1c0,0.2-0.1,0.2-0.2,0.3c-0.1,0.1-0.6,0.5-0.9,0.7c-0.3,0.2-1.2,0.7-1.6,0.6
						c-0.4-0.1-0.5-0.4-0.3-1c0.3-0.5-0.3-0.6-0.8,0c-0.2,0.2-0.9,0.4-1.4,0.6c-0.4,0.2-0.7,0-0.3-0.4c0.1-0.1,0.5-0.5,0.6-0.6
						c0.1-0.2,0.1-0.5-0.1-0.5c-0.3-0.1-0.3,0-0.5,0.1c-0.2,0.1-0.4,0.1-0.5,0.1c-0.2,0-1.4,0-1.7,0c-0.3,0-0.3-0.3-0.3-0.4
						c0-0.1,0.2-0.4,0-1c-0.2-0.6,0.2-0.5,0.4-0.7c0.2-0.1,0.8-0.4,0.8-1.1c0-0.7-0.4-1.4-0.9-1.5c-0.7,0-1.4,0.5-1.8,0.7
						c-0.4,0.3-1.4,0.9-1.7,1.2c-0.3,0-1,0-1.1,0.1c-0.1,0.1-0.2,0.5,0,0.5c0.2,0,0.1,0.3,0,0.4c-0.1,0.1-0.5,0.6-0.8,0.9
						c-0.3,0.3-0.9,1.1-0.9,1.3c-0.1,0.2,0,0.8,0.3,0.9c0.4,0,0.5-0.4,0.9-0.4c0.3,0.1,0.1,1.1,1.3,1.2c0.6,0.1,1.4-0.3,1.8-0.6
						c0.4-0.3,1.3-0.9,1.6-1.3c0.5,0,1.1,0,1.4,0c0.3,0,0.9-0.1,0.9,0.1c0,0.2-1,1-0.9,1.1c0,0.1,0,0.4,0.5,0.4
						c0.7,0,1.6-0.9,2.1-0.8c0.7,0-0.4,0.9,1.4,0.9c1.8,0,2.6-1.5,3-1.5c0.7,0-0.4,1.1,0.6,1.1c1.2,0.1,2.5-1.1,2.8-1.1
						c0.3,0,0,0.5,0,0.6c-0.1,0.2,0,0.5,0.3,0.5c0.3,0,1.5-1.1,1.7-1c0.2,0,0.1,0.3,0.1,0.6c0,0.3,0.2,0.3,0.4,0.4
						c0.2,0.1,0.2-0.1,0.4-0.2C-264.1,4.7-264.1,4.5-264.3,4.5z M-280.4,4c-0.3,0.4-1.5,1-2,1c-0.5,0-1-0.8-0.6-1.5
						c0.5,0,0.9,0,1.1,0c0.4,0,1.2,0.1,1.5,0.1C-280,3.7-280.1,3.7-280.4,4z M-279.3,2.4c0,0.3-0.2,0.6-0.4,0.8
						c-0.3,0-1.2-0.2-1.6-0.2c-0.5,0-0.9,0-1.2,0c-0.2,0-0.3-0.2-0.2-0.4c0.1-0.2,0.7-0.9,0.9-1.1c0.3,0,0.5,0,0.8,0.1
						c0.4,0,0.9,0,1.1,0C-279.6,1.9-279.3,2.1-279.3,2.4z M-280,0.9c-2.1-0.1-0.5-0.6,0.2-1c0.3-0.2,0.7-0.6,0.9-0.6
						c0.2,0,0.4,0.1,0.4,0.8C-278.5,0.9-279.5,1-280,0.9z M-288.1,2.8c-0.5-0.3-0.4-0.2-0.5,0c-0.2,0.2-0.4,0.4-0.6,0.5
						c-0.2,0.1-1.1,0.4-1.7,0.3c-0.5,0-0.8-0.1-0.5-0.4c0.4-0.3,0.4-1-0.2-1c-0.6,0-1.5,0.4-1.7,0.9c-0.1,0.2-0.1,0.4-0.5,0.6
						c-0.5,0.2-1,0.4-1.3,0.4c-0.3-0.1-0.6,0-0.5-0.5c0.1-0.5,0.2-0.5,0.4-1.1c0.3-0.2,1-1.1,1.3-1.3c0.5-0.1,2.4-0.5,3.2-1
						c1.1-0.7,2.6-2.2,1.6-3c-0.7-0.6-2.3,0.5-2.6,0.9c-0.3,0.4-2.2,2.3-2.5,2.5c-0.4-0.2-1-0.2-1.3-0.7c-0.3-0.5-0.5-0.7-0.7-0.5
						c-0.2,0.1-0.1,0.4,0,0.6c0.1,0.3,0.4,0.8,1.1,1c0.7,0.2,0.3,0.3,0.2,0.5c-0.1,0.1-1.7,1.6-2.4,2.1c-0.7,0.6-2,1.2-1.6,1.7
						c0.1,0.3,0.6-0.2,0.8-0.2c0.1,0,0.3,0,0.4-0.1c0.1-0.1,0.5-0.6,0.8-0.6c0.3,0,0.5,0.4,0.8,0.5c0.5,0.1,2.4-0.2,2.7-0.5
						c0.2,0,0.7,0.1,0.9,0.1s1.4-0.1,1.7-0.2c0.3-0.1,0.4,0,0.3,0.2c-0.1,0.1-0.5,0.8-0.1,1.1c0.4,0.4,1.7,0,2.2-0.3
						c0.5-0.3,1.1-0.9,1.1-1.2C-287.1,3.6-287.6,3.1-288.1,2.8z M-292.9,0.2c0.3-0.5,0.4-0.5,0.6-0.8c0.3-0.4,1.5-1.9,2.6-1.9
						c0.6,0,0.5,0.6,0.4,0.9c-0.2,0.3-1.1,1.3-1.7,1.6c-0.6,0.3-1.1,0.5-1.4,0.5C-292.7,0.5-293.2,0.8-292.9,0.2z M-291.8,3
						c0,0-0.3,0.2-0.4,0.2c-0.2,0-0.3,0.1-0.3,0c-0.1,0-0.2,0-0.1-0.1c0.1-0.1,0.1-0.1,0.2-0.1c0.1-0.1,0.4-0.3,0.7-0.3
						C-291.8,2.8-291.8,3-291.8,3z M-288.7,4.8c-0.6,0.1-0.5,0.3-0.6,0.3c-0.2,0-0.8-0.1-0.5-0.5c0.4-0.4,1.2-1.4,1.6-1.4
						c0.4,0,0.5,0.4,0.6,0.7C-287.6,4.2-288.1,4.7-288.7,4.8z M-247.4,0.8c-0.4,0-1.9-0.1-2.6-0.1c-0.8,0-1.7-0.2-2.4-0.2
						c-0.3,0-1,0.1-1.3-0.1c-0.3-0.2-1.5-0.3-1.9-0.3c-0.3,0-1.1-0.2-1.6-0.2c-0.5,0-0.7-0.4-1.6-0.4c-0.7,0-0.2,0.7,0.3,0.8
						c0.5,0.1,0.5,1,0.6,1.8c0.2,0.9-0.2,1.2-0.4,1.4c-0.2,0.2-0.5,0.6-0.8,0.4c-0.3-0.2-0.1-0.4,0.4-1.1c0.5-0.7-0.3-0.8-0.6-0.5
						c-0.3,0.3-0.5,0.7-1,0.9c-0.4,0.3-0.7,0.6-1.5,0.9c-0.8,0.2-0.7-0.2,0.1-0.7c0.4-0.3,0.2-0.8-0.4-0.7c-0.6,0-0.6,0.2-1.3,0.5
						c-0.4,0.2-0.6,0.4-0.6,0.7c0,0.1,0.1,0.3,0.1,0.3c0,0-0.1,0.1-0.1,0.1c0,0.1,0.2,0.1,0.2,0.1c0.1,0.2,0.3,0.4,0.7,0.4
						c0.3,0,1.2-0.3,2.2-0.9c1-0.5,0.8-0.2,1,0.1c0.2,0.3,0.4,0.3,0.8,0.2c0.5-0.1,0.3,0.1,0.2,0.3c-0.1,0.2-0.1,0.3,0.3,0.6
						c0.4,0.3,0.4-0.2,0.5-0.5c0.1-0.3,0.9-1.2,1.1-1.5c0.2-0.3,0.7-0.4,0.9-0.5c0.2-0.2,0.3-0.5,0.1-0.9c-0.2-0.3-0.7,0.2-1,0.5
						c-0.3,0.3-0.4,0-0.4-0.3c0-0.3-0.1-1-0.4-1.6c-0.2-0.6,0.3-0.5,0.5-0.4c0.2,0.1,0.7,0.1,1,0.2c0.3,0.1,1.4,0.1,1.9,0.2
						c0.5,0.1,1,0.3,1.7,0.2l2.1,0.2c0.2,0,0.3-0.1,0.4-0.1c0.2,0,0.3,0.3,0.5,0.3c0.2,0,0.2-0.1,0.4-0.1c0.2,0,1,0.1,1.3,0.2
						c0.3,0.1,0.4,0.3,0.6,0.3c0.3,0,0.4-0.2,0.6-0.6C-246.6,0.9-247,0.8-247.4,0.8z M-262.6,3.6c0,0-0.2,0.2-0.4,0.2
						c-0.2,0-0.3,0-0.4,0c-0.1,0,0-0.1,0.1-0.2c0.1-0.1,0.3-0.1,0.3-0.2c0.1,0,0.2-0.2,0.4-0.1C-262.4,3.5-262.5,3.6-262.6,3.6z"/>
				</g>
				<path id="XMLID_191_" class="st3" d="M-264.6,5c0,0,0.6-0.1,0.9-0.3l-0.1-0.2l0.1-0.1c0,0-0.3,0.3-0.6,0.2
					C-264.6,4.4-264.6,5-264.6,5z"/>
			</g>
			<g>
				<rect x="-241.9" y="-1.3" class="st3" width="0.4" height="7.9"/>
			</g>
		</g>
	</g>
	<g class="st1">
		<circle class="st5" cx="62.4" cy="0.2" r="5.6"/>
		<path class="st6" d="M63.3,0.1h-1v3.1c-0.3,0-0.6,0-1,0V0.1h-0.8v-0.9h0.8l0-0.6l0-0.1c0-0.1,0-0.2,0-0.3c0-0.1,0-0.2,0.1-0.2
			c0-0.1,0.1-0.1,0.1-0.2c0-0.1,0.1-0.1,0.1-0.2c0.1-0.1,0.1-0.1,0.2-0.1c0.1,0,0.1-0.1,0.2-0.1c0.1,0,0.1-0.1,0.2-0.1
			c0.1,0,0.2,0,0.3,0c0,0,0.1,0,0.1,0c0,0,0.1,0,0.1,0c0,0,0.1,0,0.1,0c0,0,0.1,0,0.1,0l0.1,0l0.1,0c0.1,0,0.1,0,0.2,0
			c0.1,0,0.1,0,0.2,0l0.1,0l-0.2,0.8h-0.6c0,0-0.1,0-0.1,0c0,0-0.1,0-0.1,0c0,0-0.1,0-0.1,0c0,0-0.1,0-0.1,0.1c0,0,0,0-0.1,0.1
			c0,0,0,0.1,0,0.1c0,0,0,0.1,0,0.1c0,0,0,0.1,0,0.1v0.5l1,0C63.3-0.5,63.3-0.2,63.3,0.1"/>
		<circle class="st5" cx="76.6" cy="0.2" r="5.6"/>
		<path id="lozenge_10_" class="st7" d="M79.9,0.7c0,0-0.1-0.5-0.3-0.7c-0.3-0.3-0.5-0.3-0.7-0.3c-0.9-0.1-2.4-0.1-2.4-0.1h0
			c0,0-1.4,0-2.4,0.1c-0.1,0-0.4,0-0.7,0.3c-0.2,0.2-0.3,0.7-0.3,0.7s-0.1,0.5-0.1,1.1v0.5c0,0.5,0.1,1.1,0.1,1.1s0.1,0.5,0.3,0.7
			c0.3,0.3,0.6,0.3,0.7,0.3c0.5,0.1,2.3,0.1,2.3,0.1s1.4,0,2.4-0.1c0.1,0,0.4,0,0.7-0.3c0.2-0.2,0.3-0.7,0.3-0.7S80,2.8,80,2.2V1.7
			C80,1.2,79.9,0.7,79.9,0.7z"/>
		<path id="u_20_" class="st7" d="M78.4-1h-0.4v-0.2c-0.2,0.2-0.3,0.3-0.4,0.3c-0.1,0-0.2-0.1-0.3-0.2c0-0.1,0-0.2,0-0.3v-1.8h0.4
			v1.7c0,0.1,0,0.1,0,0.2c0,0.1,0,0.1,0.1,0.1c0.1,0,0.2-0.1,0.2-0.2v-1.7h0.4V-1z"/>
		<path id="o_10_" class="st7" d="M76.9-2.5c0-0.2,0-0.4-0.1-0.5c-0.1-0.2-0.3-0.2-0.5-0.2c-0.2,0-0.4,0.1-0.5,0.2
			c-0.1,0.1-0.1,0.3-0.1,0.5l0,0.8c0,0.2,0,0.4,0.1,0.5c0.1,0.2,0.3,0.2,0.5,0.2c0.2,0,0.4-0.1,0.5-0.2c0.1-0.1,0.1-0.3,0.1-0.5
			V-2.5z M76.4-1.6c0,0.2,0,0.3-0.2,0.3c-0.1,0-0.2-0.1-0.2-0.3v-0.9c0-0.2,0-0.3,0.2-0.3s0.2,0.1,0.2,0.3L76.4-1.6z"/>
		<path id="y_10_" class="st7" d="M75.2-2.2V-1h-0.4v-1.2c0,0-0.5-1.5-0.6-1.8h0.5L75-2.8L75.3-4h0.5L75.2-2.2z"/>
		<g class="st2">
			<path id="e_10_" class="st8" d="M79.4,2.4l0-0.5c0-0.2,0-0.4-0.1-0.5c-0.1-0.2-0.3-0.2-0.5-0.2c-0.2,0-0.4,0.1-0.5,0.2
				c-0.1,0.1-0.1,0.3-0.1,0.5v0.8c0,0.2,0.1,0.4,0.1,0.5c0.1,0.2,0.3,0.2,0.5,0.2c0.2,0,0.4-0.1,0.5-0.2c0-0.1,0.1-0.2,0.1-0.2
				c0,0,0-0.1,0-0.3V2.7H79c0,0.2,0,0.3,0,0.3c0,0.1-0.1,0.2-0.2,0.2c-0.1,0-0.2-0.1-0.2-0.3V2.4H79.4z M78.6,1.8
				c0-0.2,0.1-0.3,0.2-0.3C79,1.5,79,1.6,79,1.8v0.2l-0.4,0V1.8z"/>
			<path id="b_10_" class="st8" d="M77.6,1.2c-0.1,0-0.3,0.1-0.4,0.3l0-1h-0.4v3h0.4l0-0.2c0.1,0.2,0.3,0.3,0.4,0.3
				c0.2,0,0.3-0.1,0.3-0.3c0-0.1,0-0.2,0-0.4V1.9c0-0.2,0-0.4-0.1-0.4C77.8,1.3,77.7,1.2,77.6,1.2z M77.5,2.8c0,0.2-0.1,0.3-0.2,0.3
				c-0.1,0-0.1,0-0.2-0.1l0-1.4c0.1-0.1,0.1-0.1,0.2-0.1c0.1,0,0.2,0.1,0.2,0.3V2.8z"/>
			<path id="u_19_" class="st8" d="M76.4,3.4H76V3.2c-0.2,0.2-0.3,0.3-0.4,0.3c-0.1,0-0.2-0.1-0.3-0.2c0-0.1,0-0.2,0-0.3V1.2h0.4
				v1.7c0,0.1,0,0.1,0,0.2c0,0.1,0,0.1,0.1,0.1c0.1,0,0.2-0.1,0.2-0.2V1.2h0.4V3.4z"/>
			<polygon id="T_10_" class="st8" points="74.8,3.4 74.3,3.4 74.3,0.9 73.8,0.9 73.8,0.4 75.3,0.4 75.3,0.9 74.8,0.9 			"/>
		</g>
	</g>
	<g class="st1">
		
			<text transform="matrix(1 0 0 1 9.8114 4.2873)" style="display:inline;fill:#5E6566; font-family:'Lato-Regular'; font-size:5.0859px;">hello@leoburnett.by</text>
	</g>
	<path id="_x30_1_8_" class="st9" d="M0.4,0.3v4.4H7V0.3H0.4z M3.7,3.3L1.1,0.8h5.2L3.7,3.3z M2.3,2.5L0.8,4v-3L2.3,2.5z M2.6,2.8
		l1.1,1.1l1.1-1.1l1.5,1.5H1.1L2.6,2.8z M5.1,2.5l1.5-1.5v3L5.1,2.5z"/>
	<g id="_x30_8_8_" class="st1">
		<path class="st7" d="M-140.2,5.2l-0.2-0.2c-0.1-0.1-2.2-2.6-2.2-3.8c0-1.3,1-2.3,2.3-2.3c1.3,0,2.3,1,2.3,2.3
			c0,1.2-2.1,3.7-2.2,3.8L-140.2,5.2L-140.2,5.2z M-140.2-0.8c-1,0-1.9,0.9-1.9,1.9c0,0.8,1.2,2.6,1.9,3.4c0.7-0.8,1.9-2.5,1.9-3.4
			C-138.3,0.1-139.2-0.8-140.2-0.8L-140.2-0.8z"/>
		<path class="st7" d="M-140.2,2.1c-0.5,0-0.9-0.4-0.9-0.9c0-0.5,0.4-0.9,0.9-0.9c0.5,0,0.9,0.4,0.9,0.9
			C-139.3,1.7-139.7,2.1-140.2,2.1L-140.2,2.1z M-140.2,0.6c-0.3,0-0.5,0.2-0.5,0.5c0,0.3,0.2,0.5,0.5,0.5c0.3,0,0.5-0.2,0.5-0.5
			C-139.7,0.9-139.9,0.6-140.2,0.6L-140.2,0.6z"/>
	</g>
	<path id="_x30_4_8_" class="st10" d="M-50.2-0.3C-50.1-0.3-50-0.2-50,0c0.1,0.5,0.1,1,0.1,1.3c0,0.1-0.1,0.3-0.3,0.4
		c-0.2,0.1-0.3,0-0.4,0.1c-0.1,0-0.2,0.2-0.2,0.4c0,0.3,0,0.5,0.1,0.9c0.1,0.4,0.2,0.6,0.4,0.9c0.1,0.1,0.1,0.1,0.2,0.1
		c0.1,0,0.2,0.1,0.2,0.1c0.1,0,0.2-0.1,0.4-0.2c0.1,0,0.2,0,0.3,0c0.1,0,0.1,0.1,0.2,0.1c0.2,0.3,0.4,0.7,0.6,1.1
		c0.2,0.3-0.1,0.5-0.2,0.6c-0.1,0.1-0.4,0.2-0.9,0.2c-0.1,0-0.3,0-0.5-0.1c-0.5-0.3-1.2-1.1-1.7-2.6c-0.6-2-0.2-3.2,0.2-3.5
		c0.4-0.3,0.8-0.3,0.9-0.3C-50.4-0.4-50.3-0.4-50.2-0.3L-50.2-0.3z M-50-0.7c-0.2-0.1-0.3-0.1-0.4-0.1c-0.2,0-0.7,0-1.2,0.4
		c-0.6,0.4-1.1,1.7-0.4,4c0.6,1.9,1.4,2.6,1.9,2.9c0.2,0.1,0.5,0.2,0.7,0.2c0.6,0,1-0.2,1.2-0.3c0.4-0.3,0.5-0.7,0.3-1.1
		C-48,5-48,5-48.1,4.9c-0.2-0.4-0.4-0.7-0.5-0.9c-0.1-0.1-0.2-0.2-0.3-0.3c-0.2-0.1-0.4-0.1-0.6-0.1c-0.1,0-0.2,0.1-0.3,0.1
		c0,0,0,0,0,0c0,0,0,0,0,0c0,0,0,0,0,0c-0.1-0.2-0.2-0.3-0.3-0.7c-0.1-0.4-0.1-0.6-0.1-0.8c0,0,0,0,0,0c0,0,0,0,0.1,0
		c0.1,0,0.2,0,0.3-0.1c0.4-0.1,0.6-0.5,0.6-0.8c0-0.3,0-0.7-0.1-1.1c0-0.1,0-0.1,0-0.2C-49.6-0.4-49.7-0.6-50-0.7L-50-0.7z"/>
	<g class="st1">
		
			<text transform="matrix(1 0 0 1 -47.6028 4.7162)" style="display:inline;fill:#5E6566; font-family:'Lato-Regular'; font-size:5.0859px;">+ 375 17 327 85 01</text>
	</g>
</g>
</svg>
