<?xml version="1.0" encoding="utf-8"?>
<!-- Generator: Adobe Illustrator 22.1.0, SVG Export Plug-In . SVG Version: 6.00 Build 0)  -->
<svg version="1.1" id="Слой_1" xmlns="http://www.w3.org/2000/svg" xmlns:xlink="http://www.w3.org/1999/xlink" x="0px" y="0px"
	 viewBox="0 0 4.5 8.3" style="enable-background:new 0 0 4.5 8.3;" xml:space="preserve">
<style type="text/css">
	.st0{display:none;fill:#D6D5D7;}
	.st1{display:none;}
	.st2{display:inline;}
	.st3{fill:#5E6566;}
	.st4{fill:none;stroke:#5E6566;stroke-width:0.25;stroke-miterlimit:10;}
	.st5{display:inline;fill-rule:evenodd;clip-rule:evenodd;fill:#CECECF;}
	.st6{display:inline;fill-rule:evenodd;clip-rule:evenodd;fill:#FFFFFF;}
	.st7{display:inline;fill:#FFFFFF;}
	.st8{fill:#D6D5D7;}
	.st9{display:none;fill:#FFFFFF;}
	.st10{fill:#FFFFFF;}
</style>
<g>
	<rect x="-425" y="-14.7" class="st0" width="678.2" height="37.9"/>
	
		<text transform="matrix(1 0 0 1 -84.2874 6.0185)" style="display:none;fill:#5E6566; font-family:'Lato-Regular'; font-size:5.0859px;">Минск, ул. Ленинградская 18, оф. 7</text>
	<g class="st1">
		
			<text transform="matrix(1 0 0 1 -157.1209 6.3525)" style="display:inline;fill:#5E6566; font-family:'Lato-Regular'; font-size:5.0859px;">2017-2018 LeoBurnett Kryn</text>
		<g class="st2">
			<g>
				<path class="st3" d="M-159.9,5.4C-159.9,5.4-159.9,5.4-159.9,5.4l0.2,0.2c-0.1,0.1-0.3,0.2-0.4,0.3c-0.2,0.1-0.4,0.1-0.6,0.1
					c-0.2,0-0.4,0-0.5-0.1s-0.3-0.2-0.4-0.3c-0.1-0.1-0.2-0.3-0.3-0.4C-162,5-162,4.8-162,4.6s0-0.4,0.1-0.6
					c0.1-0.2,0.2-0.3,0.3-0.4c0.1-0.1,0.3-0.2,0.4-0.3c0.2-0.1,0.3-0.1,0.5-0.1c0.2,0,0.4,0,0.5,0.1c0.2,0.1,0.3,0.1,0.4,0.3
					l-0.1,0.2c0,0,0,0,0,0c0,0,0,0,0,0c0,0-0.1,0-0.1,0c0,0-0.1-0.1-0.1-0.1c-0.1,0-0.1-0.1-0.2-0.1s-0.2,0-0.3,0
					c-0.1,0-0.3,0-0.4,0.1c-0.1,0-0.2,0.1-0.3,0.2s-0.2,0.2-0.2,0.3c0,0.1-0.1,0.3-0.1,0.5c0,0.2,0,0.3,0.1,0.5
					c0,0.1,0.1,0.2,0.2,0.3c0.1,0.1,0.2,0.2,0.3,0.2s0.2,0.1,0.4,0.1c0.1,0,0.2,0,0.2,0c0.1,0,0.1,0,0.2,0c0.1,0,0.1,0,0.2-0.1
					C-160.1,5.5-160,5.5-159.9,5.4C-160,5.4-160,5.4-159.9,5.4z"/>
			</g>
			<circle class="st4" cx="-160.7" cy="4.6" r="2.3"/>
		</g>
	</g>
	<g class="st1">
		<g class="st2">
			<g id="XMLID_207_">
				<path id="XMLID_215_" class="st3" d="M-184.7,6.6V1.4h0.5V4l1.9-2.6h0.5l-1.5,2.1l1.6,3.1h-0.5l-1.4-2.7l-0.6,0.8v2H-184.7z"/>
				<path id="XMLID_212_" class="st3" d="M-180.1,4.2v2.5h-0.5V1.4h1c1,0,1.6,0.3,1.6,1.3c0,0.5-0.2,1.1-0.8,1.2v0
					c0.6,0.2,0.7,0.6,0.7,1.3c0,0.3,0,1.2,0.2,1.3v0.1h-0.5c-0.2-0.4-0.2-1.3-0.2-1.7c0-0.7-0.6-0.7-1.2-0.7H-180.1z M-180.1,3.7
					h0.8c0.2,0,0.9-0.1,0.9-1c0-0.8-0.3-1-1.1-1h-0.7V3.7z"/>
				<path id="XMLID_210_" class="st3" d="M-174.1,1.4h0.5l-1.4,3v2.2h-0.5V4.4l-1.4-3h0.5l1.1,2.5L-174.1,1.4z"/>
				<path id="XMLID_208_" class="st3" d="M-169.9,5.9L-169.9,5.9l0-4.5h0.5v5.2h-0.5l-1.9-4.5h0v4.5h-0.5V1.4h0.6L-169.9,5.9z"/>
			</g>
			<g id="XMLID_190_">
				<g id="XMLID_192_">
					<path id="XMLID_193_" class="st3" d="M-212,5.5c-0.1,0-0.2-0.2-0.2-0.5c0-0.2,0.3-0.5-0.3-0.7c-0.6-0.1-1.2,0.8-1.5,0.7
						c-0.3-0.1,0.2-0.8-0.2-0.9c-0.4,0-1,0.4-1.4,0.6c-0.4,0.2-1.5,0.7-1.8,0.6c-0.3-0.1-0.2-0.4-0.2-0.5c0-0.1,0.1,0.1,0.1-0.3
						c0-0.4-0.4-0.5-0.6-0.5c-0.2,0-0.3-0.2-0.4,0.1c0,0.2-0.1,0.2-0.2,0.3c-0.1,0.1-0.6,0.5-0.9,0.7c-0.3,0.2-1.2,0.7-1.6,0.6
						c-0.4-0.1-0.5-0.4-0.3-1c0.3-0.5-0.3-0.6-0.8,0c-0.2,0.2-0.9,0.4-1.4,0.6c-0.4,0.2-0.7,0-0.3-0.4c0.1-0.1,0.5-0.5,0.6-0.6
						c0.1-0.2,0.1-0.5-0.1-0.5c-0.3-0.1-0.3,0-0.5,0.1c-0.2,0.1-0.4,0.1-0.5,0.1c-0.2,0-1.4,0-1.7,0c-0.3,0-0.3-0.3-0.3-0.4
						c0-0.1,0.2-0.4,0-1c-0.2-0.6,0.2-0.5,0.4-0.7c0.2-0.1,0.8-0.4,0.8-1.1c0-0.7-0.4-1.4-0.9-1.5c-0.7,0-1.4,0.5-1.8,0.7
						c-0.4,0.3-1.4,0.9-1.7,1.2c-0.3,0-1,0-1.1,0.1c-0.1,0.1-0.2,0.5,0,0.5c0.2,0,0.1,0.3,0,0.4c-0.1,0.1-0.5,0.6-0.8,0.9
						c-0.3,0.3-0.9,1.1-0.9,1.3c-0.1,0.2,0,0.8,0.3,0.9c0.4,0,0.5-0.4,0.9-0.4c0.3,0.1,0.1,1.1,1.3,1.2c0.6,0.1,1.4-0.3,1.8-0.6
						c0.4-0.3,1.3-0.9,1.6-1.3c0.5,0,1.1,0,1.4,0c0.3,0,0.9-0.1,0.9,0.1c0,0.2-1,1-0.9,1.1c0,0.1,0,0.4,0.5,0.4
						c0.7,0,1.6-0.9,2.1-0.8c0.7,0-0.4,0.9,1.4,0.9c1.8,0,2.6-1.5,3-1.5c0.7,0-0.4,1.1,0.6,1.1c1.2,0.1,2.5-1.1,2.8-1.1
						c0.3,0,0,0.5,0,0.6c-0.1,0.2,0,0.5,0.3,0.5c0.3,0,1.5-1.1,1.7-1c0.2,0,0.1,0.3,0.1,0.6c0,0.3,0.2,0.3,0.4,0.4
						c0.2,0.1,0.2-0.1,0.4-0.2C-211.8,5.7-211.8,5.5-212,5.5z M-228.1,5c-0.3,0.4-1.5,1-2,1c-0.5,0-1-0.8-0.6-1.5c0.5,0,0.9,0,1.1,0
						c0.4,0,1.2,0.1,1.5,0.1C-227.6,4.7-227.8,4.7-228.1,5z M-227,3.4c0,0.3-0.2,0.6-0.4,0.8c-0.3,0-1.2-0.2-1.6-0.2
						c-0.5,0-0.9,0-1.2,0c-0.2,0-0.3-0.2-0.2-0.4c0.1-0.2,0.7-0.9,0.9-1.1c0.3,0,0.5,0,0.8,0.1c0.4,0,0.9,0,1.1,0
						C-227.3,2.8-227,3.1-227,3.4z M-227.6,1.9c-2.1-0.1-0.5-0.6,0.2-1c0.3-0.2,0.7-0.6,0.9-0.6c0.2,0,0.4,0.1,0.4,0.8
						C-226.1,1.9-227.2,1.9-227.6,1.9z M-235.8,3.8c-0.5-0.3-0.4-0.2-0.5,0c-0.2,0.2-0.4,0.4-0.6,0.5c-0.2,0.1-1.1,0.4-1.7,0.3
						c-0.5,0-0.8-0.1-0.5-0.4c0.4-0.3,0.4-1-0.2-1c-0.6,0-1.5,0.4-1.7,0.9c-0.1,0.2-0.1,0.4-0.5,0.6c-0.5,0.2-1,0.4-1.3,0.4
						c-0.3-0.1-0.6,0-0.5-0.5c0.1-0.5,0.2-0.5,0.4-1.1c0.3-0.2,1-1.1,1.3-1.3c0.5-0.1,2.4-0.5,3.2-1c1.1-0.7,2.6-2.2,1.6-3
						c-0.7-0.6-2.3,0.5-2.6,0.9c-0.3,0.4-2.2,2.3-2.5,2.5c-0.4-0.2-1-0.2-1.3-0.7c-0.3-0.5-0.5-0.7-0.7-0.5c-0.2,0.1-0.1,0.4,0,0.6
						c0.1,0.3,0.4,0.8,1.1,1c0.7,0.2,0.3,0.3,0.2,0.5c-0.1,0.1-1.7,1.6-2.4,2.1c-0.7,0.6-2,1.2-1.6,1.7c0.1,0.3,0.6-0.2,0.8-0.2
						c0.1,0,0.3,0,0.4-0.1c0.1-0.1,0.5-0.6,0.8-0.6c0.3,0,0.5,0.4,0.8,0.5c0.5,0.1,2.4-0.2,2.7-0.5c0.2,0,0.7,0.1,0.9,0.1
						c0.3,0,1.4-0.1,1.7-0.2c0.3-0.1,0.4,0,0.3,0.2c-0.1,0.1-0.5,0.8-0.1,1.1c0.4,0.4,1.7,0,2.2-0.3c0.5-0.3,1.1-0.9,1.1-1.2
						C-234.8,4.6-235.3,4-235.8,3.8z M-240.6,1.2c0.3-0.5,0.4-0.5,0.6-0.8c0.3-0.4,1.5-1.9,2.6-1.9c0.6,0,0.5,0.6,0.4,0.9
						c-0.2,0.3-1.1,1.3-1.7,1.6c-0.6,0.3-1.1,0.5-1.4,0.5C-240.4,1.5-240.8,1.7-240.6,1.2z M-239.5,4c0,0-0.3,0.2-0.4,0.2
						c-0.2,0-0.3,0.1-0.3,0c-0.1,0-0.2,0-0.1-0.1c0.1-0.1,0.1-0.1,0.2-0.1c0.1-0.1,0.4-0.3,0.7-0.3C-239.4,3.8-239.5,3.9-239.5,4z
						 M-236.4,5.8c-0.6,0.1-0.5,0.3-0.6,0.3c-0.2,0-0.8-0.1-0.5-0.5c0.4-0.4,1.2-1.4,1.6-1.4c0.4,0,0.5,0.4,0.6,0.7
						C-235.3,5.2-235.8,5.7-236.4,5.8z M-195.1,1.8c-0.4,0-1.9-0.1-2.6-0.1c-0.8,0-1.7-0.2-2.4-0.2c-0.3,0-1,0.1-1.3-0.1
						c-0.3-0.2-1.5-0.3-1.9-0.3c-0.3,0-1.1-0.2-1.6-0.2c-0.5,0-0.7-0.4-1.6-0.4c-0.7,0-0.2,0.7,0.3,0.8c0.5,0.1,0.5,1,0.6,1.8
						c0.2,0.9-0.2,1.2-0.4,1.4c-0.2,0.2-0.5,0.6-0.8,0.4c-0.3-0.2-0.1-0.4,0.4-1.1c0.5-0.7-0.3-0.8-0.6-0.5c-0.3,0.3-0.5,0.7-1,0.9
						c-0.4,0.3-0.7,0.6-1.5,0.9c-0.8,0.2-0.7-0.2,0.1-0.7c0.4-0.3,0.2-0.8-0.4-0.7c-0.6,0-0.6,0.2-1.3,0.5c-0.4,0.2-0.6,0.4-0.6,0.7
						c0,0.1,0.1,0.3,0.1,0.3c0,0-0.1,0.1-0.1,0.1c0,0.1,0.2,0.1,0.2,0.1c0.1,0.2,0.3,0.4,0.7,0.4c0.3,0,1.2-0.3,2.2-0.9
						c1-0.5,0.8-0.2,1,0.1c0.2,0.3,0.4,0.3,0.8,0.2c0.5-0.1,0.3,0.1,0.2,0.3c-0.1,0.2-0.1,0.3,0.3,0.6c0.4,0.3,0.4-0.2,0.5-0.5
						c0.1-0.3,0.9-1.2,1.1-1.5c0.2-0.3,0.7-0.4,0.9-0.5c0.2-0.2,0.3-0.5,0.1-0.9c-0.2-0.3-0.7,0.2-1,0.5c-0.3,0.3-0.4,0-0.4-0.3
						c0-0.3-0.1-1-0.4-1.6c-0.2-0.6,0.3-0.5,0.5-0.4c0.2,0.1,0.7,0.1,1,0.2c0.3,0.1,1.4,0.1,1.9,0.2c0.5,0.1,1,0.3,1.7,0.2l2.1,0.2
						c0.2,0,0.3-0.1,0.4-0.1c0.2,0,0.3,0.3,0.5,0.3c0.2,0,0.2-0.1,0.4-0.1c0.2,0,1,0.1,1.3,0.2c0.3,0.1,0.4,0.3,0.6,0.3
						c0.3,0,0.4-0.2,0.6-0.6C-194.3,1.9-194.6,1.8-195.1,1.8z M-210.2,4.6c0,0-0.2,0.2-0.4,0.2c-0.2,0-0.3,0-0.4,0
						c-0.1,0,0-0.1,0.1-0.2c0.1-0.1,0.3-0.1,0.3-0.2c0.1,0,0.2-0.2,0.4-0.1C-210.1,4.5-210.2,4.5-210.2,4.6z"/>
				</g>
				<path id="XMLID_191_" class="st3" d="M-212.3,6c0,0,0.6-0.1,0.9-0.3l-0.1-0.2l0.1-0.1c0,0-0.3,0.3-0.6,0.2
					C-212.3,5.4-212.3,6-212.3,6z"/>
			</g>
			<g>
				<rect x="-189.6" y="-0.3" class="st3" width="0.4" height="7.9"/>
			</g>
		</g>
	</g>
	<g class="st1">
		<circle class="st5" cx="114.7" cy="1.2" r="5.6"/>
		<path class="st6" d="M115.6,1.1h-1v3.1c-0.3,0-0.6,0-1,0V1.1h-0.8V0.1h0.8l0-0.6l0-0.1c0-0.1,0-0.2,0-0.3c0-0.1,0-0.2,0.1-0.2
			c0-0.1,0.1-0.1,0.1-0.2c0-0.1,0.1-0.1,0.1-0.2c0.1-0.1,0.1-0.1,0.2-0.1c0.1,0,0.1-0.1,0.2-0.1c0.1,0,0.1-0.1,0.2-0.1
			c0.1,0,0.2,0,0.3,0c0,0,0.1,0,0.1,0c0,0,0.1,0,0.1,0c0,0,0.1,0,0.1,0c0,0,0.1,0,0.1,0l0.1,0l0.1,0c0.1,0,0.1,0,0.2,0
			c0.1,0,0.1,0,0.2,0l0.1,0l-0.2,0.8h-0.6c0,0-0.1,0-0.1,0c0,0-0.1,0-0.1,0c0,0-0.1,0-0.1,0c0,0-0.1,0-0.1,0.1c0,0,0,0-0.1,0.1
			c0,0,0,0.1,0,0.1c0,0,0,0.1,0,0.1c0,0,0,0.1,0,0.1v0.5l1,0C115.6,0.4,115.6,0.7,115.6,1.1"/>
		<circle class="st5" cx="128.9" cy="1.2" r="5.6"/>
		<path id="lozenge_10_" class="st7" d="M132.3,1.6c0,0-0.1-0.5-0.3-0.7c-0.3-0.3-0.5-0.3-0.7-0.3c-0.9-0.1-2.4-0.1-2.4-0.1h0
			c0,0-1.4,0-2.4,0.1c-0.1,0-0.4,0-0.7,0.3c-0.2,0.2-0.3,0.7-0.3,0.7s-0.1,0.5-0.1,1.1v0.5c0,0.5,0.1,1.1,0.1,1.1s0.1,0.5,0.3,0.7
			c0.3,0.3,0.6,0.3,0.7,0.3c0.5,0.1,2.3,0.1,2.3,0.1s1.4,0,2.4-0.1c0.1,0,0.4,0,0.7-0.3c0.2-0.2,0.3-0.7,0.3-0.7s0.1-0.5,0.1-1.1
			V2.7C132.3,2.2,132.3,1.6,132.3,1.6z"/>
		<path id="u_20_" class="st7" d="M130.7,0h-0.4v-0.2C130.1-0.1,130,0,129.8,0c-0.1,0-0.2-0.1-0.3-0.2c0-0.1,0-0.2,0-0.3v-1.8h0.4
			v1.7c0,0.1,0,0.1,0,0.2c0,0.1,0,0.1,0.1,0.1c0.1,0,0.2-0.1,0.2-0.2v-1.7h0.4V0z"/>
		<path id="o_10_" class="st7" d="M129.2-1.5c0-0.2,0-0.4-0.1-0.5c-0.1-0.2-0.3-0.2-0.5-0.2c-0.2,0-0.4,0.1-0.5,0.2
			C128-2,128-1.8,128-1.5l0,0.8c0,0.2,0,0.4,0.1,0.5c0.1,0.2,0.3,0.2,0.5,0.2c0.2,0,0.4-0.1,0.5-0.2c0.1-0.1,0.1-0.3,0.1-0.5V-1.5z
			 M128.8-0.7c0,0.2,0,0.3-0.2,0.3c-0.1,0-0.2-0.1-0.2-0.3v-0.9c0-0.2,0-0.3,0.2-0.3c0.1,0,0.2,0.1,0.2,0.3L128.8-0.7z"/>
		<path id="y_10_" class="st7" d="M127.5-1.2V0H127v-1.2c0,0-0.5-1.5-0.6-1.8h0.5l0.3,1.2l0.3-1.2h0.5L127.5-1.2z"/>
		<g class="st2">
			<path id="e_10_" class="st8" d="M131.8,3.4l0-0.5c0-0.2,0-0.4-0.1-0.5c-0.1-0.2-0.3-0.2-0.5-0.2c-0.2,0-0.4,0.1-0.5,0.2
				c-0.1,0.1-0.1,0.3-0.1,0.5v0.8c0,0.2,0.1,0.4,0.1,0.5c0.1,0.2,0.3,0.2,0.5,0.2c0.2,0,0.4-0.1,0.5-0.2c0-0.1,0.1-0.2,0.1-0.2
				c0,0,0-0.1,0-0.3V3.6h-0.4c0,0.2,0,0.3,0,0.3c0,0.1-0.1,0.2-0.2,0.2c-0.1,0-0.2-0.1-0.2-0.3V3.4H131.8z M130.9,2.8
				c0-0.2,0.1-0.3,0.2-0.3c0.1,0,0.2,0.1,0.2,0.3V3l-0.4,0V2.8z"/>
			<path id="b_10_" class="st8" d="M129.9,2.1c-0.1,0-0.3,0.1-0.4,0.3l0-1H129v3h0.4l0-0.2c0.1,0.2,0.3,0.3,0.4,0.3
				c0.2,0,0.3-0.1,0.3-0.3c0-0.1,0-0.2,0-0.4V2.8c0-0.2,0-0.4-0.1-0.4C130.1,2.2,130,2.1,129.9,2.1z M129.8,3.8
				c0,0.2-0.1,0.3-0.2,0.3c-0.1,0-0.1,0-0.2-0.1l0-1.4c0.1-0.1,0.1-0.1,0.2-0.1c0.1,0,0.2,0.1,0.2,0.3V3.8z"/>
			<path id="u_19_" class="st8" d="M128.7,4.4h-0.4V4.2c-0.2,0.2-0.3,0.3-0.4,0.3c-0.1,0-0.2-0.1-0.3-0.2c0-0.1,0-0.2,0-0.3V2.2h0.4
				v1.7c0,0.1,0,0.1,0,0.2c0,0.1,0,0.1,0.1,0.1c0.1,0,0.2-0.1,0.2-0.2V2.2h0.4V4.4z"/>
			<polygon id="T_10_" class="st8" points="127.1,4.4 126.6,4.4 126.6,1.8 126.2,1.8 126.2,1.4 127.6,1.4 127.6,1.8 127.1,1.8 			
				"/>
		</g>
	</g>
	<g class="st1">
		
			<text transform="matrix(1 0 0 1 62.1296 5.2568)" style="display:inline;fill:#5E6566; font-family:'Lato-Regular'; font-size:5.0859px;">hello@leoburnett.by</text>
	</g>
	<path id="_x30_1_8_" class="st9" d="M52.7,1.3v4.4h6.6V1.3H52.7z M56,4.3l-2.6-2.5h5.2L56,4.3z M54.6,3.5L53.2,5V2L54.6,3.5z
		 M54.9,3.8L56,4.9l1.1-1.1l1.5,1.5h-5.1L54.9,3.8z M57.4,3.5L58.9,2v3L57.4,3.5z"/>
	<g id="_x30_8_8_" class="st1">
		<path class="st7" d="M-87.9,6.1l-0.2-0.2c-0.1-0.1-2.2-2.6-2.2-3.8c0-1.3,1-2.3,2.3-2.3c1.3,0,2.3,1,2.3,2.3
			c0,1.2-2.1,3.7-2.2,3.8L-87.9,6.1L-87.9,6.1z M-87.9,0.2c-1,0-1.9,0.9-1.9,1.9c0,0.8,1.2,2.6,1.9,3.4c0.7-0.8,1.9-2.5,1.9-3.4
			C-86,1.1-86.9,0.2-87.9,0.2L-87.9,0.2z"/>
		<path class="st7" d="M-87.9,3c-0.5,0-0.9-0.4-0.9-0.9c0-0.5,0.4-0.9,0.9-0.9c0.5,0,0.9,0.4,0.9,0.9C-87,2.6-87.4,3-87.9,3L-87.9,3
			z M-87.9,1.6c-0.3,0-0.5,0.2-0.5,0.5c0,0.3,0.2,0.5,0.5,0.5c0.3,0,0.5-0.2,0.5-0.5C-87.4,1.8-87.6,1.6-87.9,1.6L-87.9,1.6z"/>
	</g>
	<path id="_x30_4_8_" class="st10" d="M2.1,0.6C2.2,0.7,2.3,0.8,2.3,1c0.1,0.5,0.1,1,0.1,1.3c0,0.1-0.1,0.3-0.3,0.4
		C2,2.7,1.8,2.7,1.7,2.8c-0.1,0-0.2,0.2-0.2,0.4c0,0.3,0,0.5,0.1,0.9C1.8,4.5,1.9,4.7,2,4.9C2.1,5,2.1,5.1,2.2,5.1
		c0.1,0,0.2,0.1,0.2,0.1C2.6,5.1,2.7,5,2.9,5C3,5,3.1,5,3.2,5c0.1,0,0.1,0.1,0.2,0.1C3.5,5.4,3.7,5.9,4,6.3c0.2,0.3-0.1,0.5-0.2,0.6
		C3.7,6.9,3.4,7.1,2.9,7.1c-0.1,0-0.3,0-0.5-0.1C1.9,6.7,1.2,5.9,0.8,4.4C0.1,2.3,0.5,1.2,1,0.9c0.4-0.3,0.8-0.3,0.9-0.3
		C1.9,0.6,2,0.6,2.1,0.6L2.1,0.6z M2.3,0.2C2.2,0.2,2,0.1,1.9,0.1c-0.2,0-0.7,0-1.2,0.4c-0.6,0.4-1.1,1.7-0.4,4
		c0.6,1.9,1.4,2.6,1.9,2.9c0.2,0.1,0.5,0.2,0.7,0.2c0.6,0,1-0.2,1.2-0.3c0.4-0.3,0.5-0.7,0.3-1.1c0-0.1-0.1-0.1-0.1-0.2
		C4.1,5.5,3.9,5.2,3.7,4.9C3.7,4.8,3.5,4.7,3.4,4.7C3.2,4.5,3,4.5,2.8,4.6c-0.1,0-0.2,0.1-0.3,0.1c0,0,0,0,0,0c0,0,0,0,0,0
		c0,0,0,0,0,0C2.3,4.5,2.2,4.4,2,4C1.9,3.6,1.9,3.4,1.9,3.2c0,0,0,0,0,0c0,0,0,0,0.1,0c0.1,0,0.2,0,0.3-0.1c0.4-0.1,0.6-0.5,0.6-0.8
		c0-0.3,0-0.7-0.1-1.1c0-0.1,0-0.1,0-0.2C2.7,0.6,2.6,0.4,2.3,0.2L2.3,0.2z"/>
	<g class="st1">
		
			<text transform="matrix(1 0 0 1 4.7145 5.6845)" style="display:inline;fill:#5E6566; font-family:'Lato-Regular'; font-size:5.0859px;">+ 375 17 327 85 01</text>
	</g>
</g>
</svg>
