<?xml version="1.0" encoding="utf-8"?>
<!-- Generator: Adobe Illustrator 22.1.0, SVG Export Plug-In . SVG Version: 6.00 Build 0)  -->
<svg version="1.1" id="Слой_1" xmlns="http://www.w3.org/2000/svg" xmlns:xlink="http://www.w3.org/1999/xlink" x="0px" y="0px"
	 viewBox="0 0 10.1 10.1" style="enable-background:new 0 0 10.1 10.1;" xml:space="preserve">
<style type="text/css">
	.st0{fill-rule:evenodd;clip-rule:evenodd;fill:#76992C;}
	.st1{fill:#FFFFFF;}
	.st2{fill:#76982C;}
</style>
<g>
	<g>
		<circle class="st0" cx="5.1" cy="5.1" r="5.1"/>
		<g>
			<path id="lozenge_3_" class="st1" d="M8.1,5.4c0,0-0.1-0.4-0.2-0.6C7.6,4.6,7.4,4.6,7.3,4.6C6.4,4.5,5.1,4.5,5.1,4.5h0
				c0,0-1.3,0-2.1,0.1c-0.1,0-0.4,0-0.6,0.3C2.2,5,2.2,5.4,2.2,5.4s-0.1,0.5-0.1,1v0.5c0,0.5,0.1,1,0.1,1s0.1,0.4,0.2,0.6
				c0.2,0.2,0.5,0.2,0.7,0.3c0.5,0,2.1,0.1,2.1,0.1s1.3,0,2.1-0.1c0.1,0,0.4,0,0.6-0.3c0.2-0.2,0.2-0.6,0.2-0.6s0.1-0.5,0.1-1V6.4
				C8.2,5.9,8.1,5.4,8.1,5.4z"/>
			<path id="u_6_" class="st1" d="M6.7,4H6.3V3.7C6.2,3.9,6,4,5.9,4C5.8,4,5.7,3.9,5.7,3.8c0-0.1,0-0.2,0-0.3V1.9H6v1.5
				c0,0.1,0,0.1,0,0.1c0,0.1,0,0.1,0.1,0.1c0.1,0,0.1-0.1,0.2-0.2V1.9h0.4V4z"/>
			<path id="o_3_" class="st1" d="M5.3,2.6c0-0.2,0-0.4-0.1-0.5C5.1,2,4.9,1.9,4.8,1.9C4.6,1.9,4.5,2,4.4,2.1
				C4.3,2.2,4.2,2.4,4.2,2.6l0,0.7c0,0.2,0,0.4,0.1,0.5C4.5,3.9,4.6,4,4.8,4c0.2,0,0.3-0.1,0.4-0.2c0.1-0.1,0.1-0.3,0.1-0.5V2.6z
				 M4.9,3.4c0,0.2,0,0.3-0.2,0.3c-0.1,0-0.2-0.1-0.2-0.3V2.5c0-0.2,0-0.3,0.2-0.3c0.1,0,0.2,0.1,0.2,0.3L4.9,3.4z"/>
			<path id="y_3_" class="st1" d="M3.8,2.8V4H3.4V2.8c0,0-0.4-1.4-0.5-1.6h0.4l0.3,1.1l0.3-1.1h0.4L3.8,2.8z"/>
			<path id="e_3_" class="st2" d="M7.7,7l0-0.4c0-0.2,0-0.4-0.1-0.5C7.4,6,7.3,5.9,7.1,5.9C6.9,5.9,6.8,6,6.7,6.1
				C6.6,6.2,6.5,6.4,6.5,6.6v0.7c0,0.2,0.1,0.4,0.1,0.5C6.8,7.9,6.9,8,7.1,8c0.2,0,0.3-0.1,0.4-0.2c0-0.1,0.1-0.1,0.1-0.2
				c0,0,0-0.1,0-0.2V7.2H7.3c0,0.1,0,0.2,0,0.3c0,0.1-0.1,0.1-0.2,0.1C7,7.6,6.9,7.6,6.9,7.4V7H7.7z M6.9,6.5c0-0.2,0.1-0.2,0.2-0.2
				c0.1,0,0.2,0.1,0.2,0.2v0.2l-0.3,0V6.5z"/>
			<path id="b_3_" class="st2" d="M6,5.9C5.8,5.9,5.7,6,5.6,6.1l0-0.9H5.2V8h0.4l0-0.2C5.7,7.9,5.8,8,6,8c0.1,0,0.3-0.1,0.3-0.2
				c0-0.1,0-0.2,0-0.4V6.5c0-0.2,0-0.3,0-0.4C6.2,6,6.1,5.9,6,5.9z M5.9,7.4c0,0.2,0,0.3-0.2,0.3c-0.1,0-0.1,0-0.2-0.1l0-1.2
				c0.1-0.1,0.1-0.1,0.2-0.1c0.1,0,0.2,0.1,0.2,0.3V7.4z"/>
			<path id="u_5_" class="st2" d="M4.9,8H4.5V7.7C4.4,7.9,4.2,8,4.1,8C4,8,3.9,7.9,3.9,7.8c0-0.1,0-0.2,0-0.3V5.9h0.4v1.5
				c0,0.1,0,0.1,0,0.1c0,0.1,0,0.1,0.1,0.1c0.1,0,0.1-0.1,0.2-0.2V5.9h0.4V8z"/>
			<polygon id="T_3_" class="st2" points="3.4,8 3,8 3,5.6 2.6,5.6 2.6,5.2 3.9,5.2 3.9,5.6 3.4,5.6 			"/>
		</g>
	</g>
</g>
</svg>
