<?xml version="1.0" encoding="utf-8"?>
<!-- Generator: Adobe Illustrator 22.1.0, SVG Export Plug-In . SVG Version: 6.00 Build 0)  -->
<svg version="1.1" id="Слой_1" xmlns="http://www.w3.org/2000/svg" xmlns:xlink="http://www.w3.org/1999/xlink" x="0px" y="0px"
	 viewBox="0 0 11.2 11.7" style="enable-background:new 0 0 11.2 11.7;" xml:space="preserve">
<style type="text/css">
	.st0{display:none;fill:#D6D5D7;}
	.st1{display:none;}
	.st2{display:inline;}
	.st3{fill:#5E6566;}
	.st4{fill:none;stroke:#5E6566;stroke-width:0.25;stroke-miterlimit:10;}
	.st5{fill-rule:evenodd;clip-rule:evenodd;fill:#CECECF;}
	.st6{fill:#FFFFFF;}
	.st7{fill:#D6D5D7;}
	.st8{display:none;fill:#FFFFFF;}
	.st9{display:inline;fill:#FFFFFF;}
</style>
<g>
	<rect x="-548.2" y="-9.7" class="st0" width="678.2" height="37.9"/>
	
		<text transform="matrix(1 0 0 1 -207.5619 10.9347)" style="display:none;fill:#5E6566; font-family:'Lato-Regular'; font-size:5.0859px;">Минск, ул. Ленинградская 18, оф. 7</text>
	<g class="st1">
		
			<text transform="matrix(1 0 0 1 -280.3952 11.268)" style="display:inline;fill:#5E6566; font-family:'Lato-Regular'; font-size:5.0859px;">2017-2018 LeoBurnett Kryn</text>
		<g class="st2">
			<g>
				<path class="st3" d="M-283.2,10.3C-283.2,10.3-283.2,10.3-283.2,10.3l0.2,0.2c-0.1,0.1-0.3,0.2-0.4,0.3
					c-0.2,0.1-0.4,0.1-0.6,0.1c-0.2,0-0.4,0-0.5-0.1s-0.3-0.2-0.4-0.3c-0.1-0.1-0.2-0.3-0.3-0.4c-0.1-0.2-0.1-0.4-0.1-0.6
					s0-0.4,0.1-0.6c0.1-0.2,0.2-0.3,0.3-0.4c0.1-0.1,0.3-0.2,0.4-0.3c0.2-0.1,0.3-0.1,0.5-0.1c0.2,0,0.4,0,0.5,0.1
					c0.2,0.1,0.3,0.1,0.4,0.3l-0.1,0.2c0,0,0,0,0,0c0,0,0,0,0,0c0,0-0.1,0-0.1,0c0,0-0.1-0.1-0.1-0.1c-0.1,0-0.1-0.1-0.2-0.1
					s-0.2,0-0.3,0c-0.1,0-0.3,0-0.4,0.1c-0.1,0-0.2,0.1-0.3,0.2s-0.2,0.2-0.2,0.3c0,0.1-0.1,0.3-0.1,0.5c0,0.2,0,0.3,0.1,0.5
					c0,0.1,0.1,0.2,0.2,0.3c0.1,0.1,0.2,0.2,0.3,0.2s0.2,0.1,0.4,0.1c0.1,0,0.2,0,0.2,0c0.1,0,0.1,0,0.2,0c0.1,0,0.1,0,0.2-0.1
					C-283.4,10.4-283.3,10.4-283.2,10.3C-283.3,10.3-283.2,10.3-283.2,10.3z"/>
			</g>
			<circle class="st4" cx="-284" cy="9.5" r="2.3"/>
		</g>
	</g>
	<g class="st1">
		<g class="st2">
			<g id="XMLID_207_">
				<path id="XMLID_215_" class="st3" d="M-308,11.5V6.3h0.5v2.6l1.9-2.6h0.5l-1.5,2.1l1.6,3.1h-0.5l-1.4-2.7l-0.6,0.8v2H-308z"/>
				<path id="XMLID_212_" class="st3" d="M-303.4,9.1v2.5h-0.5V6.3h1c1,0,1.6,0.3,1.6,1.3c0,0.5-0.2,1.1-0.8,1.2v0
					c0.6,0.2,0.7,0.6,0.7,1.3c0,0.3,0,1.2,0.2,1.3v0.1h-0.5c-0.2-0.4-0.2-1.3-0.2-1.7c0-0.7-0.6-0.7-1.2-0.7H-303.4z M-303.4,8.7
					h0.8c0.2,0,0.9-0.1,0.9-1c0-0.8-0.3-1-1.1-1h-0.7V8.7z"/>
				<path id="XMLID_210_" class="st3" d="M-297.4,6.3h0.5l-1.4,3v2.2h-0.5V9.3l-1.4-3h0.5l1.1,2.5L-297.4,6.3z"/>
				<path id="XMLID_208_" class="st3" d="M-293.1,10.8L-293.1,10.8l0-4.5h0.5v5.2h-0.5l-1.9-4.5h0v4.5h-0.5V6.3h0.6L-293.1,10.8z"/>
			</g>
			<g id="XMLID_190_">
				<g id="XMLID_192_">
					<path id="XMLID_193_" class="st3" d="M-335.2,10.4c-0.1,0-0.2-0.2-0.2-0.5c0-0.2,0.3-0.5-0.3-0.7c-0.6-0.1-1.2,0.8-1.5,0.7
						c-0.3-0.1,0.2-0.8-0.2-0.9c-0.4,0-1,0.4-1.4,0.6c-0.4,0.2-1.5,0.7-1.8,0.6c-0.3-0.1-0.2-0.4-0.2-0.5c0-0.1,0.1,0.1,0.1-0.3
						c0-0.4-0.4-0.5-0.6-0.5c-0.2,0-0.3-0.2-0.4,0.1c0,0.2-0.1,0.2-0.2,0.3c-0.1,0.1-0.6,0.5-0.9,0.7c-0.3,0.2-1.2,0.7-1.6,0.6
						c-0.4-0.1-0.5-0.4-0.3-1c0.3-0.5-0.3-0.6-0.8,0c-0.2,0.2-0.9,0.4-1.4,0.6c-0.4,0.2-0.7,0-0.3-0.4c0.1-0.1,0.5-0.5,0.6-0.6
						c0.1-0.2,0.1-0.5-0.1-0.5c-0.3-0.1-0.3,0-0.5,0.1c-0.2,0.1-0.4,0.1-0.5,0.1c-0.2,0-1.4,0-1.7,0c-0.3,0-0.3-0.3-0.3-0.4
						c0-0.1,0.2-0.4,0-1c-0.2-0.6,0.2-0.5,0.4-0.7c0.2-0.1,0.8-0.4,0.8-1.1c0-0.7-0.4-1.4-0.9-1.5c-0.7,0-1.4,0.5-1.8,0.7
						c-0.4,0.3-1.4,0.9-1.7,1.2c-0.3,0-1,0-1.1,0.1c-0.1,0.1-0.2,0.5,0,0.5c0.2,0,0.1,0.3,0,0.4c-0.1,0.1-0.5,0.6-0.8,0.9
						c-0.3,0.3-0.9,1.1-0.9,1.3c-0.1,0.2,0,0.8,0.3,0.9c0.4,0,0.5-0.4,0.9-0.4c0.3,0.1,0.1,1.1,1.3,1.2c0.6,0.1,1.4-0.3,1.8-0.6
						c0.4-0.3,1.3-0.9,1.6-1.3c0.5,0,1.1,0,1.4,0c0.3,0,0.9-0.1,0.9,0.1c0,0.2-1,1-0.9,1.1c0,0.1,0,0.4,0.5,0.4
						c0.7,0,1.6-0.9,2.1-0.8c0.7,0-0.4,0.9,1.4,0.9c1.8,0,2.6-1.5,3-1.5c0.7,0-0.4,1.1,0.6,1.1c1.2,0.1,2.5-1.1,2.8-1.1
						c0.3,0,0,0.5,0,0.6c-0.1,0.2,0,0.5,0.3,0.5c0.3,0,1.5-1.1,1.7-1c0.2,0,0.1,0.3,0.1,0.6c0,0.3,0.2,0.3,0.4,0.4
						c0.2,0.1,0.2-0.1,0.4-0.2C-335.1,10.6-335.1,10.4-335.2,10.4z M-351.3,9.9c-0.3,0.4-1.5,1-2,1c-0.5,0-1-0.8-0.6-1.5
						c0.5,0,0.9,0,1.1,0c0.4,0,1.2,0.1,1.5,0.1C-350.9,9.6-351,9.6-351.3,9.9z M-350.3,8.3c0,0.3-0.2,0.6-0.4,0.8
						c-0.3,0-1.2-0.2-1.6-0.2c-0.5,0-0.9,0-1.2,0c-0.2,0-0.3-0.2-0.2-0.4c0.1-0.2,0.7-0.9,0.9-1.1c0.3,0,0.5,0,0.8,0.1
						c0.4,0,0.9,0,1.1,0C-350.6,7.8-350.2,8-350.3,8.3z M-350.9,6.8c-2.1-0.1-0.5-0.6,0.2-1c0.3-0.2,0.7-0.6,0.9-0.6
						c0.2,0,0.4,0.1,0.4,0.8C-349.4,6.8-350.5,6.8-350.9,6.8z M-359.1,8.7c-0.5-0.3-0.4-0.2-0.5,0c-0.2,0.2-0.4,0.4-0.6,0.5
						c-0.2,0.1-1.1,0.4-1.7,0.3c-0.5,0-0.8-0.1-0.5-0.4c0.4-0.3,0.4-1-0.2-1c-0.6,0-1.5,0.4-1.7,0.9c-0.1,0.2-0.1,0.4-0.5,0.6
						c-0.5,0.2-1,0.4-1.3,0.4c-0.3-0.1-0.6,0-0.5-0.5c0.1-0.5,0.2-0.5,0.4-1.1c0.3-0.2,1-1.1,1.3-1.3c0.5-0.1,2.4-0.5,3.2-1
						c1.1-0.7,2.6-2.2,1.6-3c-0.7-0.6-2.3,0.5-2.6,0.9c-0.3,0.4-2.2,2.3-2.5,2.5c-0.4-0.2-1-0.2-1.3-0.7c-0.3-0.5-0.5-0.7-0.7-0.5
						c-0.2,0.1-0.1,0.4,0,0.6c0.1,0.3,0.4,0.8,1.1,1c0.7,0.2,0.3,0.3,0.2,0.5c-0.1,0.1-1.7,1.6-2.4,2.1c-0.7,0.6-2,1.2-1.6,1.7
						c0.1,0.3,0.6-0.2,0.8-0.2c0.1,0,0.3,0,0.4-0.1c0.1-0.1,0.5-0.6,0.8-0.6c0.3,0,0.5,0.4,0.8,0.5c0.5,0.1,2.4-0.2,2.7-0.5
						c0.2,0,0.7,0.1,0.9,0.1c0.3,0,1.4-0.1,1.7-0.2c0.3-0.1,0.4,0,0.3,0.2c-0.1,0.1-0.5,0.8-0.1,1.1c0.4,0.4,1.7,0,2.2-0.3
						c0.5-0.3,1.1-0.9,1.1-1.2C-358.1,9.5-358.6,9-359.1,8.7z M-363.8,6.1c0.3-0.5,0.4-0.5,0.6-0.8c0.3-0.4,1.5-1.9,2.6-1.9
						c0.6,0,0.5,0.6,0.4,0.9c-0.2,0.3-1.1,1.3-1.7,1.6c-0.6,0.3-1.1,0.5-1.4,0.5C-363.6,6.4-364.1,6.6-363.8,6.1z M-362.8,8.9
						c0,0-0.3,0.2-0.4,0.2c-0.2,0-0.3,0.1-0.3,0c-0.1,0-0.2,0-0.1-0.1c0.1-0.1,0.1-0.1,0.2-0.1c0.1-0.1,0.4-0.3,0.7-0.3
						C-362.7,8.7-362.8,8.8-362.8,8.9z M-359.7,10.7c-0.6,0.1-0.5,0.3-0.6,0.3c-0.2,0-0.8-0.1-0.5-0.5c0.4-0.4,1.2-1.4,1.6-1.4
						c0.4,0,0.5,0.4,0.6,0.7C-358.6,10.1-359,10.6-359.7,10.7z M-318.3,6.7c-0.4,0-1.9-0.1-2.6-0.1c-0.8,0-1.7-0.2-2.4-0.2
						c-0.3,0-1,0.1-1.3-0.1c-0.3-0.2-1.5-0.3-1.9-0.3c-0.3,0-1.1-0.2-1.6-0.2c-0.5,0-0.7-0.4-1.6-0.4c-0.7,0-0.2,0.7,0.3,0.8
						c0.5,0.1,0.5,1,0.6,1.8c0.2,0.9-0.2,1.2-0.4,1.4c-0.2,0.2-0.5,0.6-0.8,0.4c-0.3-0.2-0.1-0.4,0.4-1.1c0.5-0.7-0.3-0.8-0.6-0.5
						c-0.3,0.3-0.5,0.7-1,0.9c-0.4,0.3-0.7,0.6-1.5,0.9c-0.8,0.2-0.7-0.2,0.1-0.7c0.4-0.3,0.2-0.8-0.4-0.7c-0.6,0-0.6,0.2-1.3,0.5
						c-0.4,0.2-0.6,0.4-0.6,0.7c0,0.1,0.1,0.3,0.1,0.3c0,0-0.1,0.1-0.1,0.1c0,0.1,0.2,0.1,0.2,0.1c0.1,0.2,0.3,0.4,0.7,0.4
						c0.3,0,1.2-0.3,2.2-0.9c1-0.5,0.8-0.2,1,0.1c0.2,0.3,0.4,0.3,0.8,0.2c0.5-0.1,0.3,0.1,0.2,0.3c-0.1,0.2-0.1,0.3,0.3,0.6
						c0.4,0.3,0.4-0.2,0.5-0.5c0.1-0.3,0.9-1.2,1.1-1.5c0.2-0.3,0.7-0.4,0.9-0.5c0.2-0.2,0.3-0.5,0.1-0.9c-0.2-0.3-0.7,0.2-1,0.5
						c-0.3,0.3-0.4,0-0.4-0.3c0-0.3-0.1-1-0.4-1.6c-0.2-0.6,0.3-0.5,0.5-0.4c0.2,0.1,0.7,0.1,1,0.2c0.3,0.1,1.4,0.1,1.9,0.2
						c0.5,0.1,1,0.3,1.7,0.2l2.1,0.2c0.2,0,0.3-0.1,0.4-0.1c0.2,0,0.3,0.3,0.5,0.3c0.2,0,0.2-0.1,0.4-0.1c0.2,0,1,0.1,1.3,0.2
						c0.3,0.1,0.4,0.3,0.6,0.3s0.4-0.2,0.6-0.6C-317.6,6.8-317.9,6.7-318.3,6.7z M-333.5,9.5c0,0-0.2,0.2-0.4,0.2
						c-0.2,0-0.3,0-0.4,0c-0.1,0,0-0.1,0.1-0.2c0.1-0.1,0.3-0.1,0.3-0.2c0.1,0,0.2-0.2,0.4-0.1C-333.3,9.4-333.5,9.4-333.5,9.5z"/>
				</g>
				<path id="XMLID_191_" class="st3" d="M-335.5,10.9c0,0,0.6-0.1,0.9-0.3l-0.1-0.2l0.1-0.1c0,0-0.3,0.3-0.6,0.2
					C-335.5,10.3-335.5,10.9-335.5,10.9z"/>
			</g>
			<g>
				<rect x="-312.9" y="4.6" class="st3" width="0.4" height="7.9"/>
			</g>
		</g>
	</g>
	<g>
		<circle class="st5" cx="5.6" cy="6.1" r="5.6"/>
		<path id="lozenge_10_" class="st6" d="M9,6.5c0,0-0.1-0.5-0.3-0.7C8.5,5.6,8.2,5.6,8,5.6C7.1,5.5,5.7,5.5,5.7,5.5h0
			c0,0-1.4,0-2.4,0.1c-0.1,0-0.4,0-0.7,0.3C2.5,6.1,2.4,6.5,2.4,6.5S2.3,7.1,2.3,7.6v0.5c0,0.5,0.1,1.1,0.1,1.1s0.1,0.5,0.3,0.7
			c0.3,0.3,0.6,0.3,0.7,0.3c0.5,0.1,2.3,0.1,2.3,0.1s1.4,0,2.4-0.1c0.1,0,0.4,0,0.7-0.3C8.9,9.7,9,9.2,9,9.2S9,8.7,9,8.1V7.6
			C9,7.1,9,6.5,9,6.5z"/>
		<path id="u_20_" class="st6" d="M7.4,4.9H7V4.7C6.8,4.9,6.7,4.9,6.5,4.9c-0.1,0-0.2-0.1-0.3-0.2c0-0.1,0-0.2,0-0.3V2.6h0.4v1.7
			c0,0.1,0,0.1,0,0.2c0,0.1,0,0.1,0.1,0.1c0.1,0,0.2-0.1,0.2-0.2V2.6h0.4V4.9z"/>
		<path id="o_10_" class="st6" d="M5.9,3.4c0-0.2,0-0.4-0.1-0.5C5.7,2.7,5.5,2.6,5.3,2.6c-0.2,0-0.4,0.1-0.5,0.2
			C4.7,3,4.7,3.1,4.7,3.4l0,0.8c0,0.2,0,0.4,0.1,0.5C4.9,4.9,5.1,5,5.3,5c0.2,0,0.4-0.1,0.5-0.2c0.1-0.1,0.1-0.3,0.1-0.5V3.4z
			 M5.5,4.2c0,0.2,0,0.3-0.2,0.3c-0.1,0-0.2-0.1-0.2-0.3V3.3c0-0.2,0-0.3,0.2-0.3s0.2,0.1,0.2,0.3L5.5,4.2z"/>
		<path id="y_10_" class="st6" d="M4.2,3.7v1.2H3.8V3.7c0,0-0.5-1.5-0.6-1.8h0.5L4,3.1l0.3-1.2h0.5L4.2,3.7z"/>
		<g>
			<path id="e_10_" class="st7" d="M8.5,8.3l0-0.5c0-0.2,0-0.4-0.1-0.5C8.2,7.1,8.1,7,7.9,7C7.7,7,7.5,7.1,7.4,7.3
				C7.3,7.4,7.2,7.6,7.2,7.8v0.8c0,0.2,0.1,0.4,0.1,0.5c0.1,0.2,0.3,0.2,0.5,0.2c0.2,0,0.4-0.1,0.5-0.2C8.4,9,8.5,9,8.5,8.9
				c0,0,0-0.1,0-0.3V8.5H8.1c0,0.2,0,0.3,0,0.3C8,8.9,8,9,7.9,9C7.7,9,7.7,8.9,7.7,8.7V8.3H8.5z M7.7,7.7c0-0.2,0.1-0.3,0.2-0.3
				c0.1,0,0.2,0.1,0.2,0.3v0.2l-0.4,0V7.7z"/>
			<path id="b_10_" class="st7" d="M6.6,7C6.4,7,6.3,7.1,6.2,7.3l0-1H5.8v3h0.4l0-0.2c0.1,0.2,0.3,0.3,0.4,0.3
				c0.2,0,0.3-0.1,0.3-0.3C7,9,7,8.9,7,8.7V7.8c0-0.2,0-0.4-0.1-0.4C6.9,7.1,6.8,7,6.6,7z M6.5,8.7C6.5,8.9,6.5,9,6.4,9
				C6.3,9,6.2,9,6.2,8.9l0-1.4c0.1-0.1,0.1-0.1,0.2-0.1c0.1,0,0.2,0.1,0.2,0.3V8.7z"/>
			<path id="u_19_" class="st7" d="M5.4,9.3H5V9.1C4.8,9.3,4.7,9.4,4.5,9.4c-0.1,0-0.2-0.1-0.3-0.2c0-0.1,0-0.2,0-0.3V7.1h0.4v1.7
				c0,0.1,0,0.1,0,0.2C4.7,9,4.7,9,4.7,9C4.8,9,4.9,8.9,5,8.8V7.1h0.4V9.3z"/>
			<polygon id="T_10_" class="st7" points="3.8,9.3 3.4,9.3 3.4,6.7 2.9,6.7 2.9,6.3 4.3,6.3 4.3,6.7 3.8,6.7 			"/>
		</g>
	</g>
	<g class="st1">
		
			<text transform="matrix(1 0 0 1 -61.1454 10.1727)" style="display:inline;fill:#5E6566; font-family:'Lato-Regular'; font-size:5.0859px;">hello@leoburnett.by</text>
	</g>
	<path id="_x30_1_8_" class="st8" d="M-70.5,6.2v4.4h6.6V6.2H-70.5z M-67.2,9.2l-2.6-2.5h5.2L-67.2,9.2z M-68.7,8.4l-1.5,1.5V7
		L-68.7,8.4z M-68.4,8.7l1.1,1.1l1.1-1.1l1.5,1.5h-5.1L-68.4,8.7z M-65.8,8.4l1.5-1.5v3L-65.8,8.4z"/>
	<g id="_x30_8_8_" class="st1">
		<path class="st9" d="M-211.2,11.1l-0.2-0.2c-0.1-0.1-2.2-2.6-2.2-3.8c0-1.3,1-2.3,2.3-2.3c1.3,0,2.3,1,2.3,2.3
			c0,1.2-2.1,3.7-2.2,3.8L-211.2,11.1L-211.2,11.1z M-211.2,5.1c-1,0-1.9,0.9-1.9,1.9c0,0.8,1.2,2.6,1.9,3.4
			c0.7-0.8,1.9-2.5,1.9-3.4C-209.3,6-210.1,5.1-211.2,5.1L-211.2,5.1z"/>
		<path class="st9" d="M-211.2,8c-0.5,0-0.9-0.4-0.9-0.9c0-0.5,0.4-0.9,0.9-0.9c0.5,0,0.9,0.4,0.9,0.9C-210.2,7.5-210.7,8-211.2,8
			L-211.2,8z M-211.2,6.5c-0.3,0-0.5,0.2-0.5,0.5c0,0.3,0.2,0.5,0.5,0.5c0.3,0,0.5-0.2,0.5-0.5C-210.7,6.7-210.9,6.5-211.2,6.5
			L-211.2,6.5z"/>
	</g>
	<path id="_x30_4_8_" class="st8" d="M-121.1,5.5c0.1,0.1,0.2,0.2,0.2,0.3c0.1,0.5,0.1,1,0.1,1.3c0,0.1-0.1,0.3-0.3,0.4
		c-0.2,0.1-0.3,0-0.4,0.1c-0.1,0-0.2,0.2-0.2,0.4c0,0.3,0,0.5,0.1,0.9c0.1,0.4,0.2,0.6,0.4,0.9c0.1,0.1,0.1,0.1,0.2,0.1
		c0.1,0,0.2,0.1,0.2,0.1c0.1,0,0.2-0.1,0.4-0.2c0.1,0,0.2,0,0.3,0c0.1,0,0.1,0.1,0.2,0.1c0.2,0.3,0.4,0.7,0.6,1.1
		c0.2,0.3-0.1,0.5-0.2,0.6c-0.1,0.1-0.4,0.2-0.9,0.2c-0.1,0-0.3,0-0.5-0.1c-0.5-0.3-1.2-1.1-1.7-2.6c-0.6-2-0.2-3.2,0.2-3.5
		c0.4-0.3,0.8-0.3,0.9-0.3C-121.3,5.5-121.2,5.5-121.1,5.5L-121.1,5.5z M-120.9,5.2c-0.2-0.1-0.3-0.1-0.4-0.1c-0.2,0-0.7,0-1.2,0.4
		c-0.6,0.4-1.1,1.7-0.4,4c0.6,1.9,1.4,2.6,1.9,2.9c0.2,0.1,0.5,0.2,0.7,0.2c0.6,0,1-0.2,1.2-0.3c0.4-0.3,0.5-0.7,0.3-1.1
		c0-0.1-0.1-0.1-0.1-0.2c-0.2-0.4-0.4-0.7-0.5-0.9c-0.1-0.1-0.2-0.2-0.3-0.3c-0.2-0.1-0.4-0.1-0.6-0.1c-0.1,0-0.2,0.1-0.3,0.1
		c0,0,0,0,0,0c0,0,0,0,0,0c0,0,0,0,0,0c-0.1-0.2-0.2-0.3-0.3-0.7c-0.1-0.4-0.1-0.6-0.1-0.8c0,0,0,0,0,0c0,0,0,0,0.1,0
		c0.1,0,0.2,0,0.3-0.1c0.4-0.1,0.6-0.5,0.6-0.8c0-0.3,0-0.7-0.1-1.1c0-0.1,0-0.1,0-0.2C-120.5,5.5-120.7,5.3-120.9,5.2L-120.9,5.2z"
		/>
	<g class="st1">
		
			<text transform="matrix(1 0 0 1 -118.5596 10.6017)" style="display:inline;fill:#5E6566; font-family:'Lato-Regular'; font-size:5.0859px;">+ 375 17 327 85 01</text>
	</g>
</g>
</svg>
